<?xml version="1.0" encoding="utf-8"?>
<!-- Generator: Adobe Illustrator 19.2.1, SVG Export Plug-In . SVG Version: 6.00 Build 0)  -->
<svg version="1.1" id="Ebene_1" xmlns="http://www.w3.org/2000/svg" xmlns:xlink="http://www.w3.org/1999/xlink" x="0px" y="0px"
	 viewBox="0 0 152.5 82.8" style="enable-background:new 0 0 152.5 82.8;" xml:space="preserve">
<style type="text/css">
	.st0{fill:#CFD3E2;}
</style>
<title>large</title>
<path class="st0" d="M96.7,43.3c-0.1,2-0.5,4.1-1.2,6c2.1,2.7,2.9,4.9,2.1,6.3c-2.2,3.8-15.6,0.2-30-8.1s-24.2-18.1-22-22
	c0.8-1.4,3.2-1.8,6.5-1.3c1.4-1.6,3-2.9,4.6-4.1c-12.3-4.7-21.8-5.7-23.9-2c-3.3,5.7,11.4,20.4,32.8,32.8
	c21.4,12.4,41.5,17.8,44.8,12C112.6,59.2,106.9,51.6,96.7,43.3z"/>
<path class="st0" d="M49.5,32.1c0.5,0.7,1.2,1.3,1.9,2.1c4.1,4.1,10.1,8.5,17,12.5s13.7,7,19.3,8.5c1,0.2,1.9,0.5,2.7,0.6
	c3.3-4.1,5.3-9.3,5.3-15c0-13.2-10.7-23.9-23.9-23.9C61.6,16.8,52.9,23.1,49.5,32.1z"/>
<path class="st0" d="M47.8,40.5c0,0.1,0,0.1,0,0.2c0,13.2,10.7,23.9,23.9,23.9c4.4,0,8.6-1.2,12.1-3.3c-6-2.4-12.3-5.5-18.7-9.2
	C58.8,48.4,52.9,44.4,47.8,40.5z"/>
</svg>
