<?xml version="1.0" encoding="utf-8"?>
<!-- Generator: Adobe Illustrator 19.2.1, SVG Export Plug-In . SVG Version: 6.00 Build 0)  -->
<svg version="1.1" id="Ebene_1" xmlns="http://www.w3.org/2000/svg" xmlns:xlink="http://www.w3.org/1999/xlink" x="0px" y="0px"
	 viewBox="0 0 152.5 82.8" style="enable-background:new 0 0 152.5 82.8;" xml:space="preserve">
<style type="text/css">
	.st0{fill:#CFD3E2;}
</style>
<title>large</title>
<path class="st0" d="M112.9,45c-0.2,3.3-0.9,6.7-2,9.9c3.4,4.4,4.8,8,3.4,10.4C110.7,71.6,88.6,65.6,65,52
	C41.4,38.4,25.2,22.2,28.8,15.9c1.3-2.3,5.2-3,10.7-2.2c2.3-2.6,4.9-4.8,7.6-6.7C26.9-0.7,11.3-2.4,7.8,3.7
	c-5.4,9.4,18.7,33.5,54,53.9C97,78,130,86.8,135.4,77.4C139,71.2,129.7,58.7,112.9,45z"/>
<path class="st0" d="M35.2,26.6c0.9,1.1,1.9,2.2,3.2,3.4c6.7,6.7,16.6,14,27.9,20.5c11.3,6.5,22.5,11.5,31.7,13.9
	c1.7,0.4,3.2,0.8,4.5,1c5.4-6.7,8.7-15.3,8.7-24.7c0-21.7-17.6-39.3-39.3-39.3C55.1,1.4,40.8,11.9,35.2,26.6z"/>
<path class="st0" d="M32.5,40.4c0,0.1,0,0.2,0,0.3C32.5,62.4,50.1,80,71.8,80c7.3,0,14.1-2,19.9-5.4c-9.8-4-20.2-9.1-30.7-15.2
	C50.5,53.4,40.8,46.9,32.5,40.4z"/>
</svg>
