<?xml version="1.0" encoding="utf-8"?>
<!-- Generator: Adobe Illustrator 19.2.1, SVG Export Plug-In . SVG Version: 6.00 Build 0)  -->
<svg version="1.1" id="Ebene_1" xmlns="http://www.w3.org/2000/svg" xmlns:xlink="http://www.w3.org/1999/xlink" x="0px" y="0px"
	 viewBox="0 0 93.5 55.9" style="enable-background:new 0 0 93.5 55.9;" xml:space="preserve">
<style type="text/css">
	.st0{fill:#D8D8D8;}
</style>
<title>middle</title>
<title>middle</title>
<g>
	<path class="st0" d="M65.2,15.4l-1.6-1.6h3.1L59.9,7v3.1l-1.6-1.6c-1-1-2.7-1-3.8,0l-12,12c-1,1-1,2.7,0,3.8l1.6,1.6
		c-0.4,0.3-0.7,0.6-1.1,0.9c-0.1,0.1-0.2,0.2-0.3,0.4c-4.9-3.2-11.5-2.6-15.8,1.7l7.3,7.3c0,0-0.1,0.1-0.1,0.1
		c-1.8,1.8-2.6,4-1.7,4.9c0.9,0.9,3.1,0.1,4.9-1.7c0,0,0.1-0.1,0.1-0.1l7.3,7.3c4.3-4.3,4.8-10.9,1.7-15.8c0.1-0.1,0.2-0.2,0.4-0.3
		c0.3-0.3,0.6-0.7,0.9-1.1l1.6,1.6c1,1,2.7,1,3.8,0l12-12C66.2,18.1,66.2,16.4,65.2,15.4z"/>
	<rect x="33.8" y="1.2" transform="matrix(0.7071 -0.7071 0.7071 0.7071 4.659 30.3491)" class="st0" width="10.4" height="16.7"/>
	<rect x="59" y="26.4" transform="matrix(0.7071 -0.7071 0.7071 0.7071 -5.7862 55.5593)" class="st0" width="10.4" height="16.7"/>
	<path class="st0" d="M19.5,37.6h-1.7c0,10.1,8.2,18.4,18.4,18.4v-1.7C27,54.2,19.5,46.7,19.5,37.6z"/>
	<path class="st0" d="M22.8,37.6H21c0,8.3,6.8,15.1,15.1,15.1v-1.7C28.8,50.9,22.8,44.9,22.8,37.6z"/>
	<path class="st0" d="M29.2,44.5c-1.9-1.9-2.9-4.3-2.9-6.9h-1.7c0,3.1,1.2,6,3.4,8.2c2.2,2.2,5.1,3.4,8.2,3.4c0,0,0,0,0,0v-1.7
		c0,0,0,0,0,0C33.6,47.4,31.1,46.3,29.2,44.5z"/>
	<path class="st0" d="M29.6,37.6h-1.7c0,4.6,3.7,8.3,8.3,8.3v-1.7C32.5,44.1,29.6,41.2,29.6,37.6z"/>
</g>
</svg>
