<?xml version="1.0" encoding="utf-8"?>
<!-- Generator: Adobe Illustrator 19.2.1, SVG Export Plug-In . SVG Version: 6.00 Build 0)  -->
<svg version="1.1" id="Ebene_1" xmlns="http://www.w3.org/2000/svg" xmlns:xlink="http://www.w3.org/1999/xlink" x="0px" y="0px"
	 viewBox="0 0 93.5 55.9" style="enable-background:new 0 0 93.5 55.9;" xml:space="preserve">
<style type="text/css">
	.st0{fill:#D8D8D8;}
</style>
<title>middle</title>
<title>middle</title>
<g>
	<path class="st0" d="M55.2,21.9l-0.8-0.8h1.5l-3.3-3.3v1.5l-0.8-0.8c-0.5-0.5-1.3-0.5-1.8,0l-5.8,5.8c-0.5,0.5-0.5,1.3,0,1.8L45,27
		c-0.2,0.1-0.3,0.3-0.5,0.4c0,0-0.1,0.1-0.1,0.2c-2.4-1.5-5.6-1.3-7.6,0.8l3.5,3.5l0,0c-0.9,0.9-1.3,1.9-0.8,2.4
		c0.4,0.4,1.5,0,2.4-0.8l0,0l3.5,3.5c2.1-2.1,2.3-5.3,0.8-7.6c0,0,0.1-0.1,0.2-0.1c0.1-0.1,0.3-0.3,0.4-0.5l0.8,0.8
		c0.5,0.5,1.3,0.5,1.8,0l5.8-5.8C55.6,23.2,55.6,22.4,55.2,21.9z"/>
	<rect x="40" y="15" transform="matrix(0.7071 -0.7071 0.7071 0.7071 -1.0308 35.6355)" class="st0" width="5" height="8.1"/>
	<rect x="52.2" y="27.2" transform="matrix(0.7071 -0.7071 0.7071 0.7071 -6.077 47.806)" class="st0" width="5" height="8.1"/>
	<path class="st0" d="M33.1,32.6h-0.8c0,4.9,4,8.9,8.9,8.9v-0.8C36.7,40.6,33.1,37,33.1,32.6z"/>
	<path class="st0" d="M34.7,32.6h-0.9c0,4,3.3,7.3,7.3,7.3v-0.8C37.6,39,34.7,36.1,34.7,32.6z"/>
	<path class="st0" d="M37.8,36c-0.9-0.9-1.4-2.1-1.4-3.3h-0.8c0,1.5,0.6,2.9,1.6,4c1.1,1.1,2.5,1.6,4,1.6l0,0v-0.8l0,0
		C39.9,37.4,38.7,36.8,37.8,36z"/>
	<path class="st0" d="M38,32.6h-0.8c0,2.2,1.8,4,4,4v-0.8C39.4,35.8,38,34.4,38,32.6z"/>
</g>
</svg>
