<?xml version="1.0" encoding="utf-8"?>
<!-- Generator: Adobe Illustrator 19.2.1, SVG Export Plug-In . SVG Version: 6.00 Build 0)  -->
<svg version="1.1" id="Ebene_1" xmlns="http://www.w3.org/2000/svg" xmlns:xlink="http://www.w3.org/1999/xlink" x="0px" y="0px"
	 viewBox="0 0 152.5 82.8" style="enable-background:new 0 0 152.5 82.8;" xml:space="preserve">
<style type="text/css">
	.st0{fill:#C9C9C9;}
</style>
<title>large</title>
<g>
	<path class="st0" d="M33.7,55.7l0.5,0c0.2,0,0.3,0,0.5,0c4.9,0,9.9-0.3,14.7-0.9c0-0.9,0-1.8,0-2.6c-4.9,0.6-9.8,0.9-14.7,0.9
		c-0.2,0-0.4,0-0.6,0l-1,0C19,52.4,6.5,43.4,1.1,31.5c0,0.1,0,0.2,0,0.3C5.4,45,18.6,55.2,33.7,55.7z"/>
	<path class="st0" d="M33.7,63.4l0.5,0c0.2,0,0.3,0,0.5,0c4.9,0,9.9-0.3,14.7-0.9c0-0.8,0-1.6,0-2.4c-4.9,0.6-9.8,0.9-14.7,0.9
		c-0.2,0-0.4,0-0.6,0l-1,0C19.4,60.3,7.2,51.9,1.6,40.5c0.1,0.3,0.1,0.6,0.2,0.9C6.7,53.7,19.3,63,33.7,63.4z"/>
	<path class="st0" d="M33.7,59.7l0.5,0c0.2,0,0.3,0,0.5,0c4.9,0,9.9-0.3,14.7-0.9c0-0.9,0-1.8,0-2.6c-4.9,0.6-9.8,0.9-14.7,0.9
		c-0.2,0-0.4,0-0.6,0l-1,0C19,56.4,6.5,47.4,1.1,35.5c0,0.1,0,0.2,0,0.3C5.4,49,18.6,59.2,33.7,59.7z"/>
	<path class="st0" d="M49.5,63.9c-4.9,0.6-9.8,0.9-14.7,0.9c-0.2,0-0.4,0-0.6,0l-1,0c-12-0.5-22.8-7-29.1-16.3
		c5.1,11.4,16.4,19.4,29.6,19.8l0,0c0.4,0,0.7,0,1.1,0l0,0l0,0c5.1,0,10.1-0.3,15-0.9c-0.2-1-0.2-2.1-0.2-3.3
		C49.5,64,49.5,64,49.5,63.9z"/>
	<path class="st0" d="M144.1,34.7c-1.2,0-2.1-0.9-2.1-2.1v-21c0-0.3,0-0.6,0-0.9c0-0.1,0-0.3-0.1-0.4c0-0.1,0-0.3-0.1-0.4
		c0-0.2-0.1-0.4-0.1-0.6c0-0.1,0-0.1-0.1-0.2c-0.1-0.2-0.2-0.4-0.2-0.7c0,0,0-0.1,0-0.1c-0.1-0.2-0.2-0.5-0.3-0.7c0,0,0,0,0,0
		c-0.1-0.2-0.3-0.5-0.4-0.7c0,0,0,0,0,0c-0.1-0.2-0.3-0.4-0.5-0.6c0,0,0,0,0,0c-0.2-0.2-0.3-0.4-0.5-0.6c0,0,0,0,0,0c0,0,0,0,0,0
		c-0.6-0.6-1.2-1.1-1.9-1.5c0,0,0,0,0,0c-0.2-0.1-0.5-0.2-0.7-0.3c0,0,0,0,0,0c-0.2-0.1-0.4-0.2-0.7-0.3c0,0-0.1,0-0.1,0
		c-0.2-0.1-0.4-0.1-0.7-0.2c-0.1,0-0.1,0-0.2,0c-0.2,0-0.4-0.1-0.7-0.1c-0.1,0-0.1,0-0.2,0c-0.3,0-0.6,0-0.9,0H87.3H46.5H23H5.3
		c0,0-4.2,0-4.2,4.2c0,2.7,0,13.3,0,20.4C5.4,41,18.6,51.3,33.7,51.7l0.5,0c0.2,0,0.3,0,0.5,0c4.9,0,9.9-0.3,14.7-0.9
		c0-10.6,0-18.3,0-18.3h2.1c0,0,0,14.7,0,31.5c0,16.8,16.8,16.8,16.8,16.8V68.3v-4.8c14.6-4.3,28.1-11.4,39.8-20.6
		c-12.7,8-26.4,13-39.8,17v-1.4c16.6-5,33.5-11.5,48.4-23.4c-15.1,10.9-32.2,16.2-48.4,21v-1.4c12.8-3.8,26.1-7.9,38.4-14.9
		c-12.4,5.8-25.8,8.7-38.4,12.3v-1.4c13.7-3.9,28.1-6.9,41.3-13.8C96.5,42.8,82,44.5,68.4,48.3v-1.4c20.3-5.6,42.4-6.5,59.5-23.6
		c1-1.3,2-2.6,2.9-3.9c0.2,0.1,0.4,0.1,0.6,0.2v12.9c0,1.2-0.9,2.1-2.1,2.1h-2.1c0,0-8.4,0-8.4,8.4c0,8.4,0,12.6,0,12.6
		s16.8,0,16.8-8.4c0,8.4,16.8,8.4,16.8,8.4s0-4.2,0-12.6C152.5,34.7,144.1,34.7,144.1,34.7z M32.7,36.8c-1.2,0-2.1-0.9-2.1-2.1
		c0-1.2,0.9-2.1,2.1-2.1c1.2,0,2.1,0.9,2.1,2.1C34.8,35.8,33.8,36.8,32.7,36.8z"/>
</g>
</svg>
