<?xml version="1.0" encoding="utf-8"?>
<!-- Generator: Adobe Illustrator 19.2.1, SVG Export Plug-In . SVG Version: 6.00 Build 0)  -->
<svg version="1.1" id="Ebene_1" xmlns="http://www.w3.org/2000/svg" xmlns:xlink="http://www.w3.org/1999/xlink" x="0px" y="0px"
	 viewBox="0 0 152.5 82.8" style="enable-background:new 0 0 152.5 82.8;" xml:space="preserve">
<style type="text/css">
	.st0{fill:#C9C9C9;}
</style>
<title>large</title>
<g>
	<path class="st0" d="M42.7,52h0.4c0.2,0,0.2,0,0.4,0c3.8,0,7.7-0.2,11.5-0.7c0-0.7,0-1.4,0-2c-3.8,0.5-7.6,0.7-11.5,0.7
		c-0.2,0-0.3,0-0.5,0h-0.8c-11-0.5-20.7-7.6-24.9-16.8c0,0.1,0,0.2,0,0.2C20.7,43.7,30.9,51.6,42.7,52z"/>
	<path class="st0" d="M42.7,58h0.4c0.2,0,0.2,0,0.4,0c3.8,0,7.7-0.2,11.5-0.7c0-0.6,0-1.2,0-1.9c-3.8,0.5-7.6,0.7-11.5,0.7
		c-0.2,0-0.3,0-0.5,0h-0.8c-10.7-0.5-20.2-7.1-24.5-16c0.1,0.2,0.1,0.5,0.2,0.7C21.7,50.5,31.5,57.7,42.7,58z"/>
	<path class="st0" d="M42.7,55.2h0.4c0.2,0,0.2,0,0.4,0c3.8,0,7.7-0.2,11.5-0.7c0-0.7,0-1.4,0-2c-3.8,0.5-7.6,0.7-11.5,0.7
		c-0.2,0-0.3,0-0.5,0h-0.8c-11-0.5-20.7-7.6-24.9-16.8c0,0.1,0,0.2,0,0.2C20.7,46.8,30.9,54.8,42.7,55.2z"/>
	<path class="st0" d="M55,58.4c-3.8,0.5-7.6,0.7-11.5,0.7c-0.2,0-0.3,0-0.5,0h-0.8c-9.4-0.4-17.8-5.5-22.7-12.7
		c4,8.9,12.8,15.1,23.1,15.4l0,0c0.3,0,0.5,0,0.9,0l0,0l0,0c4,0,7.9-0.2,11.7-0.7c-0.2-0.8-0.2-1.6-0.2-2.6C55,58.5,55,58.5,55,58.4
		z"/>
	<path class="st0" d="M128.7,35.7c-0.9,0-1.6-0.7-1.6-1.6V17.7c0-0.2,0-0.5,0-0.7c0-0.1,0-0.2-0.1-0.3c0-0.1,0-0.2-0.1-0.3
		c0-0.2-0.1-0.3-0.1-0.5c0-0.1,0-0.1-0.1-0.2c-0.1-0.2-0.2-0.3-0.2-0.5v-0.1c-0.1-0.2-0.2-0.4-0.2-0.5l0,0c-0.1-0.2-0.2-0.4-0.3-0.5
		l0,0c-0.1-0.2-0.2-0.3-0.4-0.5l0,0c-0.2-0.2-0.2-0.3-0.4-0.5l0,0l0,0c-0.5-0.5-0.9-0.9-1.5-1.2l0,0c-0.2-0.1-0.4-0.2-0.5-0.2l0,0
		c-0.2-0.1-0.3-0.2-0.5-0.2h-0.1c-0.2-0.1-0.3-0.1-0.5-0.2c-0.1,0-0.1,0-0.2,0c-0.2,0-0.3-0.1-0.5-0.1c-0.1,0-0.1,0-0.2,0
		c-0.2,0-0.5,0-0.7,0H84.5H52.7H34.4H20.6c0,0-3.3,0-3.3,3.3c0,2.1,0,10.4,0,15.9c3.4,10.2,13.6,18.2,25.4,18.5h0.4
		c0.2,0,0.2,0,0.4,0c3.8,0,7.7-0.2,11.5-0.7c0-8.3,0-14.3,0-14.3h1.6c0,0,0,11.5,0,24.5s13.1,13.1,13.1,13.1v-9.7v-3.7
		c11.4-3.4,21.9-8.9,31-16.1c-9.9,6.2-20.6,10.1-31,13.2v-1.1c12.9-3.9,26.1-9,37.7-18.2c-11.8,8.5-25.1,12.6-37.7,16.4v-1.1
		c10-3,20.3-6.2,29.9-11.6c-9.7,4.5-20.1,6.8-29.9,9.6v-1.1c10.7-3,21.9-5.4,32.2-10.8c-10.2,4.6-21.5,5.9-32.1,8.9v-1.1
		c15.8-4.4,33-5.1,46.4-18.4c0.8-1,1.6-2,2.3-3c0.2,0.1,0.3,0.1,0.5,0.2V34c0,0.9-0.7,1.6-1.6,1.6h-1.6c0,0-6.5,0-6.5,6.5
		s0,9.8,0,9.8s13.1,0,13.1-6.5c0,6.5,13.1,6.5,13.1,6.5s0-3.3,0-9.8C135.3,35.7,128.7,35.7,128.7,35.7z M41.9,37.3
		c-0.9,0-1.6-0.7-1.6-1.6c0-0.9,0.7-1.6,1.6-1.6c0.9,0,1.6,0.7,1.6,1.6C43.6,36.5,42.8,37.3,41.9,37.3z"/>
</g>
</svg>
