<?xml version="1.0" encoding="utf-8"?>
<!-- Generator: Adobe Illustrator 19.2.1, SVG Export Plug-In . SVG Version: 6.00 Build 0)  -->
<svg version="1.1" id="Ebene_1" xmlns="http://www.w3.org/2000/svg" xmlns:xlink="http://www.w3.org/1999/xlink" x="0px" y="0px"
	 viewBox="0 0 93.5 55.9" style="enable-background:new 0 0 93.5 55.9;" xml:space="preserve">
<style type="text/css">
	.st0{fill:#D8D6D6;}
	.st1{fill:#EDEDED;}
	.st2{fill:#CECECE;}
</style>
<title>middle</title>
<title>middle</title>
<g>
	<path class="st0" d="M42.6,19.7c0,0-1.8-3.7-6.3-4.3c0-0.7-0.3-1.7-1.2-2c-1.6-0.6-6.1,0.8-6.1,0.8l1.6,2c-1.2,0.4-2.6,1.1-4.1,2
		l-4.3-1.6c0,0,0.4,2,1.7,3.1c-1.4,1.1-1.7,3.1-1.7,3.1l4.4-1.7c1.5,0.9,2.8,1.6,4.1,2l-1.6,2c0,0,4.5,1.4,6.1,0.8
		c0.9-0.3,1.2-1.3,1.2-2C40.8,23.4,42.6,19.7,42.6,19.7z M38.8,20.7c-0.5,0-1-0.4-1-1c0-0.5,0.4-1,1-1c0.5,0,1,0.4,1,1
		C39.7,20.2,39.3,20.7,38.8,20.7z"/>
</g>
<g>
	<path class="st0" d="M79.9,43.3c0,0-1.8-3.7-6.3-4.3c0-0.7-0.3-1.7-1.2-2c-1.6-0.6-6.1,0.8-6.1,0.8l1.6,2c-1.2,0.4-2.6,1.1-4.1,2
		l-4.3-1.6c0,0,0.4,2,1.7,3.1c-1.4,1.1-1.7,3.1-1.7,3.1l4.4-1.7c1.5,0.9,2.8,1.6,4.1,2l-1.6,2c0,0,4.5,1.4,6.1,0.8
		c0.9-0.3,1.2-1.3,1.2-2C78.2,47.1,79.9,43.3,79.9,43.3z M76.1,44.3c-0.5,0-1-0.4-1-1c0-0.5,0.4-1,1-1c0.5,0,1,0.4,1,1
		C77.1,43.9,76.7,44.3,76.1,44.3z"/>
</g>
<g>
	<path class="st0" d="M73.5,9c0,0-1.8-3.7-6.3-4.3c0-0.7-0.3-1.7-1.2-2c-1.6-0.6-6.1,0.8-6.1,0.8l1.6,2c-1.2,0.4-2.6,1.1-4.1,2
		l-4.3-1.6c0,0,0.4,2,1.7,3.1c-1.4,1.1-1.7,3.1-1.7,3.1l4.4-1.7c1.5,0.9,2.8,1.6,4.1,2l-1.6,2c0,0,4.5,1.4,6.1,0.8
		c0.9-0.3,1.2-1.3,1.2-2C71.8,12.7,73.5,9,73.5,9z M69.7,10c-0.5,0-1-0.4-1-1s0.4-1,1-1c0.5,0,1,0.4,1,1S70.3,10,69.7,10z"/>
</g>
<g>
	<path class="st1" d="M31.2,36.9c0,0-1.9-3.9-6.6-4.5c-0.1-0.8-0.3-1.8-1.3-2.1c-1.7-0.6-6.4,0.9-6.4,0.9l1.6,2.1
		c-1.3,0.5-2.7,1.2-4.3,2.1l-4.5-1.7c0,0,0.4,2.1,1.8,3.3c-1.4,1.1-1.8,3.3-1.8,3.3l4.6-1.8c1.5,0.9,3,1.6,4.3,2.1L17,42.6
		c0,0,4.7,1.5,6.4,0.9c1-0.4,1.3-1.4,1.3-2.1C29.4,40.8,31.2,36.9,31.2,36.9z M27.2,37.9c-0.6,0-1-0.5-1-1s0.5-1,1-1
		c0.6,0,1,0.5,1,1S27.8,37.9,27.2,37.9z"/>
</g>
<g>
	<path class="st1" d="M70,26.1c0,0-1.9-3.9-6.6-4.5c-0.1-0.8-0.3-1.8-1.3-2.1c-1.7-0.6-6.4,0.9-6.4,0.9l1.6,2.1
		c-1.3,0.5-2.7,1.2-4.3,2.1l-4.5-1.7c0,0,0.4,2.1,1.8,3.3c-1.4,1.1-1.8,3.3-1.8,3.3l4.6-1.8c1.5,0.9,3,1.6,4.3,2.1l-1.6,2.1
		c0,0,4.7,1.5,6.4,0.9c1-0.4,1.3-1.4,1.3-2.1C68.2,30.1,70,26.1,70,26.1z M66,27.2c-0.6,0-1-0.5-1-1c0-0.5,0.5-1,1-1
		c0.6,0,1,0.5,1,1C67,26.7,66.6,27.2,66,27.2z"/>
</g>
<g>
	<path class="st2" d="M51.2,46.4c0,0-1.6-3.4-5.8-4c0-0.7-0.3-1.6-1.2-1.9c-1.5-0.6-5.7,0.8-5.7,0.8l1.5,1.9c-1.2,0.4-2.4,1-3.8,1.9
		l-4-1.5c0,0,0.3,1.9,1.6,2.9c-1.3,1-1.6,2.9-1.6,2.9l4-1.5c1.4,0.8,2.6,1.5,3.8,1.9l-1.5,1.9c0,0,4.1,1.3,5.7,0.8
		c0.9-0.3,1.1-1.2,1.2-1.9C49.6,49.9,51.2,46.4,51.2,46.4z M47.7,47.3c-0.5,0-0.9-0.4-0.9-0.9c0-0.5,0.4-0.9,0.9-0.9
		c0.5,0,0.9,0.4,0.9,0.9C48.6,46.9,48.2,47.3,47.7,47.3z"/>
</g>
</svg>
