<?xml version="1.0" encoding="utf-8"?>
<!-- Generator: Adobe Illustrator 19.2.1, SVG Export Plug-In . SVG Version: 6.00 Build 0)  -->
<svg version="1.1" id="Ebene_1" xmlns="http://www.w3.org/2000/svg" xmlns:xlink="http://www.w3.org/1999/xlink" x="0px" y="0px"
	 viewBox="0 0 32.4 27.4" style="enable-background:new 0 0 32.4 27.4;" xml:space="preserve">
<style type="text/css">
	.st0{fill:#D8D6D6;}
</style>
<title>small</title>
<path class="st0" d="M31,12.4C31,12.4,31,12.4,31,12.4c-0.3,0-0.7-0.2-1-0.4c0,0,0,0,0,0c0.1-0.1,0.2-0.2,0.3-0.2
	c0.1-0.1,0.2-0.1,0.2-0.2c0.1-0.1,0.1-0.1,0.2-0.2c0.1-0.1,0.1-0.2,0.1-0.2c0.2-0.2,0.2-0.5,0-0.7c-0.2-0.2-0.6-0.2-0.8,0l0,0
	c0,0,0,0-0.1,0.1c0,0-0.1,0.1-0.1,0.1c0,0.1-0.1,0.1-0.2,0.1c-0.1,0.1-0.1,0.1-0.2,0.2c-0.1,0-0.2,0.1-0.3,0.1
	c-0.1,0-0.2,0.1-0.3,0.1c-0.1,0-0.2,0.1-0.3,0.1c-0.1,0-0.2,0-0.3,0c-0.1,0-0.2,0-0.3,0c-0.1,0-0.2,0-0.3,0c-0.1,0-0.2,0-0.3,0
	c-0.2,0-0.3-0.1-0.4-0.1h0c0-0.2,0.1-0.3,0.1-0.5c0.2-0.7,0.6-1.2,0.9-1.5c0.2-0.2,0.3-0.3,0.4-0.4c0.1-0.1,0.1-0.1,0.1-0.1l0,0l0,0
	c0.2-0.2,0.2-0.6,0-0.8c-0.2-0.2-0.6-0.2-0.8,0c0,0-0.1,0.1-0.2,0.2s-0.2,0.3-0.4,0.5c-0.2,0.2-0.4,0.5-0.6,0.8
	c-0.2,0.3-0.4,0.7-0.5,1.1c-0.2,0.4-0.3,0.9-0.4,1.3c-0.1,0.5-0.3,0.9-0.4,1.4c0,0.1-0.1,0.2-0.1,0.3L25,13.7l-0.1,0.2
	c-0.1,0.1-0.1,0.2-0.2,0.3c-0.1,0.1-0.1,0.2-0.2,0.3c-0.3,0.4-0.7,0.8-1,1.1c-0.4,0.4-0.8,0.7-1.2,1.1c0,0,0,0-0.1,0.1
	c-0.1-0.1-0.1-0.1-0.2-0.2c-0.2-0.3-0.5-0.6-0.7-1c-0.1-0.2-0.2-0.4-0.3-0.6c0-0.1-0.1-0.2-0.1-0.3c0-0.1-0.1-0.2-0.1-0.2
	c0-0.1,0-0.1-0.1-0.2c0-0.1,0-0.1,0-0.2c0-0.1,0-0.1,0-0.1l0-0.1c-0.1-0.2-0.3-0.4-0.5-0.4c-0.3,0-0.5,0.2-0.5,0.5c0,0,0,0.1,0,0.2
	c0,0.1,0,0.1,0,0.2c0,0.1,0,0.2,0,0.3c0,0.1,0,0.2,0.1,0.3c0,0,0,0.1,0,0.1c-0.6-0.2-0.9-0.5-0.9-0.5c-0.2-0.2-0.4-0.2-0.6,0
	c-0.2,0.2-0.2,0.4,0,0.6c0,0,0.7,0.7,1.8,0.8v0c0.2,0.5,0.4,1,0.6,1.3c0.1,0.1,0.1,0.2,0.2,0.3c-0.3,0.2-0.7,0.5-1,0.7
	c-0.4,0.3-0.8,0.5-1.1,0.7c-0.7,0.4-1.3,0.8-1.7,1c-0.1,0-0.2,0.1-0.2,0.1c-0.1-0.1-0.1-0.2-0.2-0.3c-0.4-0.4-0.8-0.9-1.2-1.2
	l0.1-0.4c0.1-0.3,0.2-0.5,0.2-0.8c0.1-0.3,0.1-0.5,0.2-0.8c0.1-0.3,0.1-0.6,0.1-0.8c0-0.3,0.1-0.6,0.1-0.9c0,0,0,0,0-0.1
	c0.1,0,0.1-0.1,0.2-0.1c0,0,0.6-0.5,1.5-1.2c0.5-0.4,1-0.8,1.5-1.2c0.3-0.2,0.6-0.5,0.9-0.7l0.2-0.2c0.1-0.1,0.1-0.1,0.2-0.2
	c0.2-0.1,0.3-0.3,0.5-0.4c0.6-0.6,1.1-1.2,1.6-1.7c0,0,0.1-0.1,0.1-0.1c0.6-0.1,2.2-0.4,3-1C26,8.2,26,7.9,25.8,7.7
	c-0.1-0.2-0.4-0.2-0.6-0.1c-0.4,0.3-1.1,0.5-1.7,0.6c0-0.1,0.1-0.1,0.1-0.2c0.1-0.1,0.2-0.3,0.2-0.4c0.2-0.3,0.3-0.5,0.4-0.7
	c0.1-0.2,0.2-0.4,0.3-0.6c0.1-0.3,0.2-0.5,0.2-0.5c0.1-0.3,0-0.6-0.3-0.7s-0.6,0-0.7,0.3v0c0,0-0.1,0.2-0.2,0.5
	c-0.1,0.1-0.2,0.3-0.3,0.5c-0.1,0.2-0.2,0.4-0.4,0.6c-0.1,0.1-0.2,0.2-0.2,0.4c-0.1,0.1-0.2,0.2-0.3,0.4c-0.1,0.1-0.2,0.3-0.3,0.4
	c-0.1,0.1-0.2,0.3-0.3,0.4c-0.4,0.5-0.9,1-1.4,1.4c0,0,0,0,0,0c0-0.1-0.1-0.1-0.1-0.2c0-0.1-0.1-0.2-0.1-0.3c0-0.1-0.1-0.2-0.1-0.3
	S20,8.9,19.9,8.8c0-0.1-0.1-0.3-0.1-0.4s-0.1-0.3-0.1-0.4c0-0.3-0.1-0.6-0.1-0.8c0-0.3,0-0.5,0-0.7c0-0.2,0.1-0.4,0.1-0.5
	c0-0.1,0-0.1,0-0.1c0,0,0,0,0,0c0.1-0.3-0.1-0.6-0.3-0.7c-0.3-0.1-0.6,0-0.7,0.3l0,0c0,0,0,0,0,0.1c0,0,0,0.1-0.1,0.2
	c0,0.1-0.1,0.4-0.1,0.6c0,0.1,0,0.2-0.1,0.4c-0.3-0.2-0.7-0.4-1.1-0.8c-0.2-0.2-0.5-0.1-0.6,0c-0.2,0.2-0.1,0.5,0,0.6
	c0.3,0.3,0.9,0.8,1.5,1c0,0.2,0,0.4,0,0.6c0,0.2,0,0.3,0,0.5c0,0.2,0,0.3,0.1,0.5c0,0.2,0.1,0.3,0.1,0.5c0,0.1,0.1,0.3,0.1,0.4
	s0.1,0.2,0.1,0.3s0.1,0.2,0.1,0.3c0.1,0.1,0.1,0.2,0.1,0.2c0,0,0,0,0,0.1c0,0,0,0.1,0.1,0.1c-0.2,0.2-0.4,0.3-0.6,0.4
	c-0.6,0.4-1.2,0.8-1.6,1.1c-0.3,0.2-0.6,0.4-0.9,0.6c0-0.2-0.1-0.3-0.1-0.5l0-0.1l0,0l0-0.1l0,0l0,0v0l0,0l-0.1-0.2l0-0.1
	c0,0,0-0.1-0.1-0.1l-0.1-0.2c-0.1-0.2-0.2-0.3-0.3-0.4L15,11.2L14.9,11c-0.2-0.2-0.4-0.4-0.6-0.6c-0.1-0.1-0.2-0.2-0.3-0.3
	c0.1-0.1,0.1-0.3,0.2-0.4c0-0.1,0.1-0.2,0.1-0.3c0-0.1,0.1-0.3,0.1-0.4s0-0.3,0-0.4c0-0.1,0-0.3,0-0.4c0-0.3-0.1-0.6-0.2-0.9
	C14.1,7,14,6.7,13.9,6.4c-0.1-0.3-0.2-0.6-0.3-0.8c0-0.1-0.1-0.3-0.1-0.4V5c0.7-0.1,1.9-0.3,2.8-1.2c0.2-0.2,0.2-0.6,0-0.8
	c-0.2-0.2-0.6-0.2-0.8,0c-0.6,0.6-1.4,0.8-2,0.9c0-0.2,0.1-0.5,0.1-0.7c0.1-0.2,0.1-0.5,0.2-0.7c0.1-0.4,0.2-0.8,0.3-1
	c0-0.1,0.1-0.2,0.1-0.3c0-0.1,0-0.1,0-0.1l0,0c0.1-0.3,0-0.6-0.3-0.7c-0.3-0.1-0.6,0-0.7,0.3c0,0,0,0,0,0.1S13.3,1,13.2,1.2
	c-0.1,0.3-0.2,0.6-0.4,1.1c-0.1,0.2-0.1,0.5-0.2,0.8c-0.1,0.3-0.1,0.6-0.2,0.9c0,0.3-0.1,0.6,0,1c0,0.1,0,0.2,0,0.3
	c0,0.1,0,0.2,0,0.3c0,0.1,0.1,0.3,0.1,0.5c0.1,0.3,0.2,0.6,0.3,0.9C13,7,13.1,7.3,13.1,7.5c0.1,0.3,0.1,0.5,0.1,0.7
	c0,0.1,0,0.2,0,0.3s0,0.2,0,0.3c0,0.1,0,0.2-0.1,0.3c0,0.1-0.1,0.2-0.1,0.2c0,0,0,0,0,0.1c-0.2-0.1-0.4-0.3-0.6-0.4
	c-0.2-0.1-0.5-0.3-0.7-0.4c-0.2-0.1-0.3-0.2-0.5-0.3c0-0.1,0-0.1-0.1-0.2L11,7.7c-0.1-0.3-0.2-0.6-0.3-0.8c-0.2-0.6-0.4-1.1-0.7-1.6
	l0,0C9.9,5,9.5,4.9,9.3,5.1S8.9,5.5,9,5.8l0,0c0.3,0.5,0.5,1,0.7,1.5C9.8,7.5,9.9,7.8,10,8L10,8.2C9.1,8.3,7.4,8.4,6,7.9
	c-0.3-0.1-0.6,0-0.7,0.3s0,0.6,0.3,0.7c1,0.4,2.1,0.5,3.1,0.5c0.8,0,1.5-0.1,1.8-0.1c0.2,0.1,0.3,0.2,0.5,0.3
	c0.2,0.1,0.4,0.3,0.6,0.5s0.4,0.3,0.6,0.5c0.2,0.2,0.4,0.3,0.6,0.5c0.2,0.2,0.4,0.3,0.5,0.5c0.2,0.2,0.3,0.4,0.5,0.5l0.1,0.1
	l0.1,0.1c0.1,0.1,0.1,0.2,0.2,0.3c0,0,0,0.1,0.1,0.1c0,0,0,0,0,0.1l0,0.1l0.1,0.2l0,0v0l0,0l0,0c0,0,0-0.1,0-0.1l0,0l0,0.1
	c0.1,0.2,0.1,0.4,0.1,0.7c0,0.1,0,0.2,0,0.3c0,0.1,0,0.2,0,0.3c0,0.2,0,0.4,0,0.7c0,0.2-0.1,0.5-0.1,0.7c0,0.2-0.1,0.5-0.2,0.7
	c-0.1,0.2-0.1,0.5-0.2,0.7c0,0.1-0.1,0.3-0.2,0.4c-0.9-0.5-1.7-1-2.6-1.3c0,0,0-0.1,0-0.1c0-0.1,0-0.3-0.1-0.4
	c0-0.2-0.1-0.3-0.1-0.5c0-0.2-0.1-0.4-0.2-0.6c-0.1-0.2-0.1-0.5-0.2-0.7c0-0.1-0.1-0.3-0.2-0.4c0-0.1-0.1-0.2-0.2-0.2
	c0,0-0.1-0.1-0.1-0.1l-0.1-0.1l0,0L10,12.8l0,0l0,0h0c-0.1,0-0.1-0.1-0.2-0.1c-0.1,0-0.1,0-0.2-0.1l-0.1,0H9.5l-0.2-0.1l-0.2,0.1
	c-0.3-0.1-0.5-0.1-0.8-0.1c-0.2,0-0.5-0.1-0.7-0.1c-0.2,0-0.4-0.1-0.6-0.1c-0.2,0-0.4-0.1-0.5-0.1c-0.1,0-0.2,0-0.2-0.1
	C6.2,12,6.1,12,6,12c-0.1,0-0.1,0-0.2-0.1c0,0-0.1,0-0.1-0.1c0,0-0.1,0-0.1-0.1c0,0,0,0,0,0c0,0,0,0,0,0l-0.1-0.1
	c-0.2-0.1-0.5-0.1-0.7,0c-0.2,0.2-0.2,0.5,0,0.8c0,0,0,0,0.1,0.1C5,12.6,5,12.7,5.2,12.7c0.1,0,0.1,0.1,0.2,0.1
	c0.1,0,0.1,0.1,0.2,0.1c0,0,0,0,0.1,0c-0.6,0.2-1.6,0.2-3.1-0.4c-0.3-0.1-0.6,0-0.7,0.3c-0.1,0.3,0,0.6,0.3,0.7
	c1.1,0.4,1.9,0.5,2.6,0.5c1.1,0,1.8-0.4,2.2-0.7c0.1,0,0.3,0.1,0.4,0.1c0.2,0,0.5,0.1,0.7,0.1c0.2,0,0.5,0.1,0.7,0.2l0.2,0l0,0.1h0
	l0,0l0,0c0,0,0,0,0.1,0c0,0,0,0,0,0.1c0,0.1,0.1,0.1,0.1,0.2c0.1,0.2,0.1,0.4,0.2,0.6s0.1,0.4,0.1,0.6c0,0,0,0.1,0,0.1
	c0,0-0.1,0-0.1,0C9,15.4,8.5,15.3,8,15.4c-0.5,0-0.9,0.1-1.2,0.1c-0.4,0.1-0.7,0.1-0.9,0.2c-0.3,0.1-0.4,0.1-0.6,0.2
	c-0.1,0-0.2,0.1-0.2,0.1c-0.3,0.1-0.4,0.4-0.3,0.7c0.1,0.3,0.4,0.4,0.7,0.4h0c0,0,0.1,0,0.2-0.1c0.1,0,0.3-0.1,0.5-0.1
	c0.2,0,0.5-0.1,0.8-0.1c0.3,0,0.7-0.1,1.1,0c0.4,0,0.8,0.1,1.2,0.2c0.1,0,0.2,0.1,0.3,0.1l0.1,0.1l0.1,0l0,0l0,0
	c0.1,0.1,0.2,0.1,0.3,0.2s0.2,0.1,0.3,0.2c0.3,0.1,0.5,0.3,0.8,0.5c0,0-0.1,0-0.1,0.1c-0.1,0-0.2,0.1-0.3,0.1
	c-0.5,0.1-0.9,0.2-1.3,0.2c-0.2,0-0.3,0-0.4,0c-0.1,0-0.2,0-0.2,0h0c-0.3,0-0.5,0.2-0.5,0.5c0,0.3,0.2,0.5,0.5,0.6c0,0,0.1,0,0.2,0
	c0.1,0,0.3,0,0.5,0s0.4,0,0.7,0c-0.2,0.5-0.6,1.1-0.7,1.3c-0.1,0.2-0.1,0.5,0.1,0.6c0.1,0,0.2,0.1,0.2,0.1c0.1,0,0.3-0.1,0.4-0.2
	c0.1-0.1,0.7-1.1,0.9-1.9c0.1,0,0.2,0,0.3-0.1c0.1,0,0.3-0.1,0.4-0.1c0.1,0,0.3-0.1,0.4-0.1c0.1,0,0.2-0.1,0.4-0.2c0,0,0,0,0.1,0
	c0.2,0.1,0.3,0.2,0.5,0.4c0.1,0.1,0.3,0.2,0.4,0.3c0.1,0.2,0.2,0.3,0.4,0.4c0.5,0.5,0.9,1,1.2,1.5c0.3,0.4,0.5,0.8,0.6,1.2
	c0.2,0.4,0.3,0.8,0.4,1.1c0.1,0.4,0.1,0.7,0.2,1c0,0.1,0,0.3,0,0.4c0,0.1,0,0.2,0,0.4c0,0.2,0,0.4,0,0.5c0,0.1,0,0.2,0,0.2V26
	c0,0.1,0,0.1,0,0.2c0.1,0.8,0.8,1.3,1.6,1.2c0.8-0.1,1.3-0.8,1.2-1.6c0,0,0-0.1,0-0.2c0-0.1,0-0.4-0.1-0.6c0-0.1-0.1-0.3-0.1-0.5
	c0-0.2-0.1-0.3-0.1-0.5c-0.1-0.4-0.2-0.8-0.4-1.2c0-0.1-0.1-0.2-0.2-0.4c0.1-0.1,0.2-0.2,0.4-0.3c0.4-0.3,0.9-0.8,1.6-1.3
	c0.3-0.3,0.7-0.6,1-0.9c0.4-0.3,0.8-0.7,1.2-1c0.8-0.7,1.6-1.5,2.4-2.3c0.1-0.1,0.2-0.2,0.2-0.3c0.1,0,0.1,0.1,0.2,0.1
	c0.1,0.1,0.2,0.1,0.3,0.1c0.2,0.1,0.4,0.2,0.7,0.2c0.1,0,0.2,0.1,0.4,0.1c0.1,0,0.3,0,0.4,0c0.1,0,0.1,0,0.2,0c0.1,0,0.1,0,0.2,0
	c0.1,0,0.2,0,0.3-0.1c0.1,0,0.2-0.1,0.3-0.1c0.1,0,0.1-0.1,0.2-0.1c0.1-0.1,0.2-0.1,0.2-0.1c0.2-0.1,0.3-0.4,0.2-0.7
	c-0.1-0.3-0.4-0.4-0.7-0.3l-0.1,0c0,0,0,0-0.1,0c0,0-0.1,0-0.1,0c0,0-0.1,0-0.1,0c-0.1,0-0.1,0-0.2,0c0,0-0.1,0-0.1,0
	c0,0-0.1,0-0.1,0c-0.1,0-0.1,0-0.2,0c-0.1,0-0.1,0-0.2-0.1c-0.2-0.1-0.3-0.1-0.4-0.2c-0.1,0-0.1-0.1-0.2-0.1c0,0,0,0-0.1,0
	c0,0,0.1-0.1,0.1-0.1c0.1-0.1,0.2-0.3,0.2-0.4s0.2-0.3,0.2-0.5l0.1-0.2l0.1-0.2c0-0.1,0.1-0.3,0.1-0.4c0.1-0.4,0.2-0.8,0.3-1.1
	c0.1,0,0.3,0.1,0.4,0.1c0.1,0,0.2,0,0.4,0s0.3,0,0.4,0c0.1,0,0.3,0,0.4,0c0.2,0,0.3,0,0.5-0.1c0.1,0,0.2,0,0.3-0.1
	c0.5,0.3,1.2,0.8,1.9,0.8h0c0.2,0,0.4-0.2,0.4-0.4C31.4,12.6,31.2,12.4,31,12.4z"/>
</svg>
