<svg id="Ebene_1" data-name="Ebene 1" xmlns="http://www.w3.org/2000/svg" width="152.51259" height="82.8119" viewBox="0 0 152.51259 82.8119">
  <title>large</title>
  <g>
    <g>
      <polygon points="0 58.03 19.056 64.143 16.053 38.029 0 58.03" style="fill: #dad6d5"/>
      <polygon points="30.864 58.03 19.056 64.143 16.053 38.029 30.864 58.03" style="fill: #ccc7c5"/>
    </g>
    <g>
      <polygon points="105.615 43.931 134.571 53.219 130.007 13.54 105.615 43.931" style="fill: #dad6d5"/>
      <polygon points="152.513 43.931 134.571 53.219 130.007 13.54 152.513 43.931" style="fill: #ccc7c5"/>
    </g>
    <g>
      <polygon points="72.279 53.196 110.742 65.533 104.68 12.827 72.279 53.196" style="fill: #dad6d5"/>
      <polygon points="134.574 53.196 110.742 65.533 104.68 12.827 134.574 53.196" style="fill: #ccc7c5"/>
    </g>
    <g>
      <polygon points="16.86 63.428 77.293 82.812 67.768 0 16.86 63.428" style="fill: #dad6d5"/>
      <polygon points="114.739 63.428 77.293 82.812 67.768 0 114.739 63.428" style="fill: #ccc7c5"/>
    </g>
  </g>
</svg>
