<?xml version="1.0" encoding="utf-8"?>
<!-- Generator: Adobe Illustrator 19.2.1, SVG Export Plug-In . SVG Version: 6.00 Build 0)  -->
<svg version="1.1" id="Ebene_1" xmlns="http://www.w3.org/2000/svg" xmlns:xlink="http://www.w3.org/1999/xlink" x="0px" y="0px"
	 viewBox="0 0 159.9 667" style="enable-background:new 0 0 159.9 667;" xml:space="preserve">
<style type="text/css">
	.st0{fill:none;stroke:#E2DEDB;stroke-miterlimit:10;}
</style>
<path class="st0" d="M54.9,181c8.6-9.5,18-18.1,28.1-25.9c48.8-37.5,76.9-94,76.9-155.1c0,61.1-28,117.6-76.9,155.1
	C72.9,162.9,63.5,171.5,54.9,181C15.6,224.4-2.4,279.7,0.3,334c-2.7,54.3,15.3,109.5,54.7,153c8.6,9.5,18,18.1,28.1,25.9
	c48.8,37.5,76.9,94,76.9,155.1c0-61.1-28-117.6-76.9-155.1c-10.1-7.8-19.5-16.4-28.1-25.9"/>
</svg>
