<?xml version="1.0" encoding="utf-8"?>
<!-- Generator: Adobe Illustrator 19.2.1, SVG Export Plug-In . SVG Version: 6.00 Build 0)  -->
<svg version="1.1" id="Ebene_1" xmlns="http://www.w3.org/2000/svg" xmlns:xlink="http://www.w3.org/1999/xlink" x="0px" y="0px"
	 viewBox="0 0 152.5 82.8" style="enable-background:new 0 0 152.5 82.8;" xml:space="preserve">
<style type="text/css">
	.st0{fill:#C6C4C4;}
</style>
<title>large</title>
<path class="st0" d="M16.8,2.6c0.5,0,1,0.1,1.5,0.1C18,1.1,17.5,0,16.8,0s-1.2,1.1-1.5,2.7C15.8,2.6,16.3,2.6,16.8,2.6z"/>
<path class="st0" d="M27.6,53.9l0.8,28.7v0.2h45V53.9H27.6z M39.6,71.8v6.5h-5.1v-6.5l0,0v-0.1c0-1.1,1.1-1.3,2.6-1.3
	S39.6,70.5,39.6,71.8C39.6,71.7,39.6,71.8,39.6,71.8L39.6,71.8z M39.6,59.2v6.5h-5.1v-6.5l0,0v-0.1c0-1.1,1.1-1.3,2.6-1.3
	S39.6,58,39.6,59.2C39.6,59.1,39.6,59.2,39.6,59.2L39.6,59.2z M45.9,71.8v6.5h-5.1v-6.5l0,0v-0.1c0-1.1,1.1-1.3,2.6-1.3
	S45.9,70.5,45.9,71.8C45.9,71.7,45.9,71.8,45.9,71.8L45.9,71.8z M45.9,59.2v6.5h-5.1v-6.5l0,0v-0.1c0-1.1,1.1-1.3,2.6-1.3
	S45.9,58,45.9,59.2C45.9,59.1,45.9,59.2,45.9,59.2L45.9,59.2z M62.4,71.8v6.5h-5.1v-6.5l0,0v-0.1c0-1.1,1.1-1.3,2.6-1.3
	C61.3,70.4,62.4,70.5,62.4,71.8C62.4,71.7,62.4,71.8,62.4,71.8L62.4,71.8z M62.4,59.2v6.5h-5.1v-6.5l0,0v-0.1c0-1.1,1.1-1.3,2.6-1.3
	C61.3,57.8,62.4,58,62.4,59.2C62.4,59.1,62.4,59.2,62.4,59.2L62.4,59.2z"/>
<polygon class="st0" points="4.8,82.6 5.3,66.3 3.2,66.3 3.2,82.8 4.8,82.8 "/>
<polygon class="st0" points="27.4,49.8 27.5,52.3 74.6,52.3 74.6,49.8 "/>
<path class="st0" d="M7.9,31.1L6.4,82.6h20.5l-1.5-51.5C25.3,31.1,7.9,31.1,7.9,31.1z M19.1,63.9v6.5H14v-6.5l0,0v-0.1
	c0-1.1,1.1-2.9,2.6-2.9C18,61,19.1,62.7,19.1,63.9L19.1,63.9L19.1,63.9z M19.1,48.4H14v-6.5l0,0v-0.1c0-1.1,1.1-2.9,2.6-2.9
	c1.4,0,2.6,1.7,2.6,2.9v0.1l0,0C19.1,41.9,19.1,48.4,19.1,48.4z"/>
<path class="st0" d="M25.8,13.8c-0.9-5.5-4.6-9.6-9-9.6s-8.1,4.1-9,9.6H25.8z"/>
<path class="st0" d="M24.5,28.7V16.5H26c0-0.7,0-1.3-0.1-2H7.7c-0.1,0.6-0.1,1.3-0.1,2h1v12.2H7.9v1.6h17.4v-1.6H24.5z M18.4,16.5
	L18,16.9l-0.4-0.4H18.4z M21.2,21.3l-3,3L15,21l3-3L21.2,21.3z M16.4,16.5l1,1l-3,3L11,17.1l0.6-0.6H16.4L16.4,16.5z M9.3,23.3v-4.5
	l1.2-1.2l3.4,3.4l-3.4,3.4L9.3,23.3z M9.9,25l-0.6,0.6v-1.1L9.9,25z M10.5,16.5L10.5,16.5L10.5,16.5L10.5,16.5z M9.3,16.5l0.6,0.6
	l-0.6,0.6V16.5L9.3,16.5z M9.3,28.7v-2l1.1-1.1l3.1,3.1H9.3z M11,25l3.4-3.4l3.2,3.2l-3.4,3.4L11,25z M14.8,28.7l3.4-3.4l3.4,3.4
	H14.8z M23.7,28.7h-1l1-1V28.7z M23.7,26.6l-1.6,1.6l-3.4-3.4l3-3l1.9,1.9C23.7,23.8,23.7,26.6,23.7,26.6z M23.7,22.6l-1.4-1.4
	l1.4-1.4V22.6z M23.7,18.8l-1.9,1.9l-3.2-3.2l1-1h4.2C23.7,16.5,23.7,18.8,23.7,18.8z"/>
<path class="st0" d="M133.4,46.7c0,0-6.6-5.7-14.4-5.2c-0.3,0-0.6,0-0.9,0.1l-1.3-1.5l2.5,1l1.5-0.8l-1.4-1.6l2.5,1l1.5-0.8
	l-1.4-1.6l2.5,1l1.5-0.8l-1.4-1.6l2.5,1l3.5-1.9c0,0-8.1-1.6-14.6,2.2l0.3-0.4l-2-0.9l2.7-0.2l1-1.4l-2-0.9l2.7-0.2l1-1.4l-2-0.9
	l2.7-0.2l2.3-3.2c0,0-8.5,2.2-12.5,8.8c-0.5,0.8-0.8,1.5-1.1,2.2l0-1.5l-2.1,0.4l2.2-1.6l0-1.7l-2.1,0.4l2.2-1.6l0-1.7l-2.1,0.4
	l2.2-1.6l0-1.7l-2.1,0.4l2.2-1.6l-2.9-4.2c0,0-2.2,5.3-2.4,11.8c-4.9-4.6-11.8-5.5-11.8-5.5l2.7,2.9l2.7-0.1l-1.9,1.1l1.2,1.3
	l2.7-0.1l-1.9,1.1l1.2,1.3l2.7-0.1l-1.9,1.1l1,1.1c-7-3.3-15.2-0.7-15.2-0.7l3.7,1.5l2.4-1.3L91,39.5l1.6,0.6l2.4-1.3l-1.2,1.8
	l1.6,0.6l2.4-1.3l-1.2,1.8l1.6,0.6l2.4-1.3l-1.1,1.7c-0.1,0-0.1,0-0.2,0c-7.7,0.5-13.7,6.9-13.7,6.9l3.9-0.5l1.4-2.3l-0.1,2.1
	l1.7-0.2l1.4-2.3l-0.1,2.1l1.7-0.2l1.4-2.3l-0.1,2.1l1.7-0.2l1.4-2.3l-0.1,2.1l1.7-0.2l1.4-2.3l-0.1,2.1l1.7-0.2l0.8-1.8l0.1,0.1
	l0.3,1.6l0.6-0.1c0,0,0,0,0,0c-0.1,0.2-0.1,0.3-0.2,0.4c0,0.1-0.1,0.2-0.1,0.2l0.9,0.1c0,0,0,0.1-0.1,0.3c0,0.1-0.1,0.2-0.1,0.3
	c-0.1,0.2-0.1,0.4-0.2,0.6c0,0,0,0,0,0c0,0,0,0,0,0c-0.1,0.2-0.1,0.4-0.2,0.6c0,0,0,0,0,0.1c0,0,0,0,0,0.1c0,0.1-0.1,0.3-0.1,0.4
	c0,0.1,0,0.2-0.1,0.2c0,0,0,0,0,0l0,0c0,0,0,0.1,0,0.1c0,0.2-0.1,0.4-0.1,0.5c-0.1,0.4-0.1,0.6-0.1,0.6l0,0l0,0l0.9,0
	c0,0,0,0.1,0,0.2c0,0.1,0,0.3-0.1,0.4c0,0.2-0.1,0.4-0.1,0.6c0,0.2-0.1,0.5-0.1,0.7c0,0.2-0.1,0.5-0.1,0.7c0,0.2,0,0.5-0.1,0.6
	c0,0.4-0.1,0.6-0.1,0.6l0.9-0.2c0,0,0,0.1,0,0.2c0,0.1,0,0.3,0,0.4c0,0.2,0,0.4,0,0.6c0,0.1,0,0.2,0,0.4c0,0.1,0,0.2,0,0.4
	c0,0.4,0,0.7,0,1.1c0,0.1,0,0.2,0,0.3c0,0,0,0.1,0,0.1c0,0.2,0,0.3,0,0.4c0,0,0,0,0,0c0,0,0,0.1,0,0.1c0,0,0,0,0,0l0.9-0.2
	c0,0,0,0.2,0,0.5c0,0,0,0.1,0,0.1c0,0.4,0,0.8,0.1,1.3c0,0.5,0.1,1,0.1,1.3c0,0.2,0,0.3,0,0.4c0,0.1,0,0.1,0,0.1c0,0,0,0,0,0
	l0.9-0.3c0,0,0,0,0,0.1c0,0.1,0,0.3,0.1,0.5c0,0,0,0,0,0l0,0c0,0,0,0,0,0c0,0.2,0.1,0.4,0.1,0.6c0,0,0,0,0,0c0,0,0,0,0,0
	c0,0.2,0.1,0.5,0.1,0.7c0,0,0,0,0,0c0.2,1,0.4,1.9,0.4,1.9l0.8-0.4c0,0,0.1,0.2,0.1,0.6c0.1,0.3,0.2,0.8,0.3,1.3
	c0.2,0.8,0.4,1.6,0.4,1.8c0,0,0,0,0,0l0.8-0.4c0,0,0.2,0.9,0.4,1.8c0.1,0.4,0.2,0.9,0.2,1.2c0,0.2,0.1,0.3,0.1,0.4
	c0,0.1,0,0.2,0,0.2l0.9-0.4c0,0,0,0.2,0.1,0.6c0,0.2,0.1,0.4,0.1,0.6c0,0.2,0.1,0.4,0.1,0.7c0,0.1,0,0.1,0,0.2
	c0,0.3,0.1,0.6,0.1,0.9c0,0.1,0,0.1,0,0.2c0,0.2,0,0.3,0,0.4c0,0.1,0,0.1,0,0.1l0.9-0.3l0,0c0,0,0,0.1,0,0.1c0,0,0,0.1,0,0.1
	c0,0.1,0,0.2,0,0.3c0,0,0,0,0,0c0,0.2,0,0.3,0,0.6c0,0,0,0,0,0c0,0.2,0,0.4,0,0.6c0,0.2,0,0.4,0,0.6c0,0,0,0,0,0c0,0,0,0.1,0,0.1
	c0,0,0,0,0,0c0,0.1,0,0.3,0,0.4c0,0.1,0,0.1,0,0.2c0,0.1,0,0.2,0,0.2c0,0.1,0,0.1,0,0.1l0.9-0.2c0,0,0,0.1,0,0.2c0,0.1,0,0.2,0,0.4
	c0,0.2,0,0.4-0.1,0.6c0,0.2-0.1,0.4-0.1,0.6c0,0.2-0.1,0.4-0.1,0.6c0,0.2-0.1,0.4-0.1,0.5c-0.1,0.3-0.1,0.5-0.1,0.5l4.8-0.1
	c0,0-0.1-0.2-0.2-0.6c0-0.2-0.1-0.4-0.2-0.6s-0.1-0.5-0.2-0.7c-0.1-0.2-0.2-0.5-0.3-0.7c-0.1-0.2-0.2-0.4-0.2-0.6
	c-0.1-0.2-0.1-0.3-0.2-0.4c0-0.1-0.1-0.2-0.1-0.2l0.9-0.2c0,0,0-0.1-0.1-0.2c0-0.1-0.1-0.2-0.2-0.4c-0.2-0.3-0.4-0.8-0.6-1.2
	c-0.1-0.2-0.2-0.4-0.4-0.6c-0.1-0.2-0.2-0.4-0.3-0.5c-0.1-0.2-0.2-0.3-0.2-0.4c0-0.1-0.1-0.1-0.1-0.1l0.9-0.3c0,0,0-0.1-0.1-0.1
	c-0.1-0.1-0.1-0.2-0.2-0.4c-0.2-0.3-0.5-0.7-0.8-1.1c-0.1-0.2-0.3-0.4-0.4-0.6c-0.1-0.2-0.3-0.4-0.4-0.5c-0.2-0.3-0.4-0.5-0.4-0.5
	l0.9-0.4c0,0,0,0-0.1-0.1c-0.1-0.1-0.2-0.2-0.3-0.3c-0.2-0.3-0.5-0.7-0.9-1c-0.6-0.7-1.3-1.4-1.3-1.4l0.8-0.4c0,0-0.6-0.7-1.2-1.4
	c-0.6-0.7-1.2-1.4-1.2-1.4l-0.5,0.3l1.4-0.7c0,0-0.6-0.7-1.1-1.4c-0.1-0.2-0.3-0.3-0.4-0.5c-0.1-0.2-0.2-0.3-0.3-0.4
	c-0.2-0.2-0.3-0.4-0.3-0.4l0.9-0.3c0,0,0,0,0,0c0,0,0-0.1-0.1-0.1c-0.1-0.1-0.1-0.2-0.2-0.3c-0.2-0.3-0.4-0.7-0.7-1.1
	c-0.2-0.4-0.5-0.8-0.7-1.1c-0.2-0.3-0.3-0.5-0.3-0.5l-1.4,0.4l2.3-0.6c0,0-0.1-0.2-0.3-0.5c-0.2-0.3-0.4-0.7-0.6-1.1
	c-0.1-0.1-0.1-0.2-0.2-0.3c0-0.1-0.1-0.2-0.1-0.3c-0.1-0.2-0.2-0.4-0.3-0.5c-0.1-0.2-0.1-0.3-0.2-0.4c0-0.1-0.1-0.1-0.1-0.1
	l-1.4,0.2l0,0l2.4-0.4c0,0-0.1-0.2-0.2-0.5c-0.1-0.1-0.1-0.3-0.2-0.5c-0.1-0.2-0.2-0.4-0.2-0.6c-0.1-0.2-0.2-0.4-0.2-0.6
	c-0.1-0.2-0.1-0.4-0.2-0.5c-0.1-0.2-0.1-0.3-0.1-0.4c0-0.1,0-0.1,0-0.1l-1.5,0.1l0,0l2.4-0.1c0,0-0.1-0.2-0.2-0.5
	c0-0.2-0.1-0.3-0.2-0.5c-0.1-0.2-0.1-0.4-0.2-0.6c-0.1-0.2-0.1-0.4-0.2-0.6c0-0.2-0.1-0.4-0.1-0.6c-0.1-0.3-0.1-0.5-0.1-0.5l0.9,0.1
	c0,0,0-0.1,0-0.1c0-0.1,0-0.2-0.1-0.4c0-0.2-0.1-0.4-0.1-0.6c0-0.1,0-0.2,0-0.3c0,0,0-0.1,0-0.1l2.2,0l0.1-1.9l1.2,1.9l1.7,0
	l-0.4-2.1l1.7,2.1l1.7,0l-0.4-2.1l1.7,2.1l1.7,0l-0.4-2.1l1.7,2.1l1.7,0l-0.4-2.1l1.7,2.1l1.7,0l-0.4-2.1l1.7,2.1L133.4,46.7z
	 M105.2,40.5c0.1,0.2,0.1,0.3,0.2,0.4l-0.1,0.1c-0.2-0.2-0.3-0.3-0.5-0.5L105.2,40.5z M103.4,42.2l-0.5,0.8c-0.2,0-0.4-0.1-0.7-0.1
	L103.4,42.2z M105.7,43.3l-0.2,0.5c-0.1,0-0.2-0.1-0.3-0.1L105.7,43.3z M112.1,42.9L112.1,42.9l0.8,0.4c-0.2,0.1-0.3,0.2-0.4,0.3
	L112.1,42.9z M114.7,38c-0.3,0.2-0.5,0.4-0.7,0.6l-1.1-0.5L114.7,38z M112.2,40.5c-0.1,0.1-0.2,0.3-0.3,0.4l-0.8-0.4L112.2,40.5z
	 M109.1,40l-0.7,0.1c0-0.1-0.1-0.3-0.2-0.5l1.2-0.9C109.3,39.2,109.2,39.6,109.1,40z M104.2,38.2l-1.4,0.8c-0.4-0.2-0.8-0.5-1.2-0.7
	L104.2,38.2z M114.9,42.3l-0.7-0.8l1.5,0.6C115.4,42.1,115.1,42.2,114.9,42.3z"/>
</svg>
