<?xml version="1.0" encoding="utf-8"?>
<!-- Generator: Adobe Illustrator 19.2.1, SVG Export Plug-In . SVG Version: 6.00 Build 0)  -->
<svg version="1.1" id="Ebene_1" xmlns="http://www.w3.org/2000/svg" xmlns:xlink="http://www.w3.org/1999/xlink" x="0px" y="0px"
	 viewBox="0 0 152.5 82.8" style="enable-background:new 0 0 152.5 82.8;" xml:space="preserve">
<style type="text/css">
	.st0{fill:#DBDBDB;}
</style>
<title>large</title>
<path class="st0" d="M13,24.8c0.4,0,0.7,0.1,1.1,0.1c-0.2-1.2-0.6-2-1.1-2c-0.5,0-0.9,0.8-1.1,2C12.3,24.8,12.7,24.8,13,24.8z"/>
<path class="st0" d="M20.9,61.9l0.6,20.8v0.1H54V61.9H20.9z M29.5,74.8v4.7h-3.7v-4.7l0,0v-0.1c0-0.8,0.8-0.9,1.9-0.9
	C28.8,73.8,29.5,73.9,29.5,74.8C29.5,74.8,29.5,74.8,29.5,74.8L29.5,74.8z M29.5,65.7v4.7h-3.7v-4.7l0,0v-0.1c0-0.8,0.8-0.9,1.9-0.9
	C28.8,64.7,29.5,64.9,29.5,65.7C29.5,65.7,29.5,65.7,29.5,65.7L29.5,65.7z M34.1,74.8v4.7h-3.7v-4.7l0,0v-0.1c0-0.8,0.8-0.9,1.9-0.9
	C33.4,73.8,34.1,73.9,34.1,74.8C34.1,74.8,34.1,74.8,34.1,74.8L34.1,74.8z M34.1,65.7v4.7h-3.7v-4.7l0,0v-0.1c0-0.8,0.8-0.9,1.9-0.9
	C33.4,64.7,34.1,64.9,34.1,65.7C34.1,65.7,34.1,65.7,34.1,65.7L34.1,65.7z M46,74.8v4.7h-3.7v-4.7l0,0v-0.1c0-0.8,0.8-0.9,1.9-0.9
	C45.2,73.8,46,73.9,46,74.8C46,74.8,46,74.8,46,74.8L46,74.8z M46,65.7v4.7h-3.7v-4.7l0,0v-0.1c0-0.8,0.8-0.9,1.9-0.9
	C45.2,64.7,46,64.9,46,65.7C46,65.7,46,65.7,46,65.7L46,65.7z"/>
<polygon class="st0" points="4.4,82.7 4.7,70.9 3.2,70.9 3.2,82.8 4.4,82.8 "/>
<polygon class="st0" points="20.7,58.9 20.8,60.7 54.9,60.7 54.9,58.9 "/>
<path class="st0" d="M6.6,45.4L5.5,82.7h14.8l-1.1-37.3C19.2,45.4,6.6,45.4,6.6,45.4z M14.7,69.1v4.7H11v-4.7l0,0v-0.1
	c0-0.8,0.8-2.1,1.9-2.1C13.9,67,14.7,68.3,14.7,69.1L14.7,69.1L14.7,69.1z M14.7,57.9H11v-4.7l0,0v-0.1c0-0.8,0.8-2.1,1.9-2.1
	c1,0,1.9,1.2,1.9,2.1v0.1l0,0C14.7,53.2,14.7,57.9,14.7,57.9z"/>
<path class="st0" d="M19.5,32.9c-0.7-4-3.3-6.9-6.5-6.9s-5.9,3-6.5,6.9H19.5z"/>
<path class="st0" d="M18.6,43.7v-8.8h1.1c0-0.5,0-0.9-0.1-1.4H6.5c-0.1,0.4-0.1,0.9-0.1,1.4h0.7v8.8H6.6v1.2h12.6v-1.2H18.6z
	 M14.2,34.8l-0.3,0.3l-0.3-0.3H14.2z M16.2,38.3l-2.2,2.2l-2.3-2.4l2.2-2.2L16.2,38.3z M12.7,34.8l0.7,0.7l-2.2,2.2l-2.5-2.5
	l0.4-0.4H12.7L12.7,34.8z M7.6,39.8v-3.3l0.9-0.9l2.5,2.5l-2.5,2.5L7.6,39.8z M8,41l-0.4,0.4v-0.8L8,41z M8.5,34.8L8.5,34.8
	L8.5,34.8L8.5,34.8z M7.6,34.8L8,35.3l-0.4,0.4V34.8L7.6,34.8z M7.6,43.7v-1.4l0.8-0.8l2.2,2.2H7.6z M8.8,41l2.5-2.5l2.3,2.3
	l-2.5,2.5L8.8,41z M11.6,43.7l2.5-2.5l2.5,2.5H11.6z M18,43.7h-0.7l0.7-0.7V43.7z M18,42.1l-1.2,1.2l-2.5-2.5l2.2-2.2L18,40
	C18,40.1,18,42.1,18,42.1z M18,39.2l-1-1l1-1V39.2z M18,36.5l-1.4,1.4l-2.3-2.3l0.7-0.7h3C18,34.8,18,36.5,18,36.5z"/>
<path class="st0" d="M97.4,56.7c0,0-4.8-4.1-10.4-3.8c-0.2,0-0.4,0-0.7,0.1l-0.9-1.1l1.8,0.7l1.1-0.6l-1-1.2l1.8,0.7l1.1-0.6l-1-1.2
	l1.8,0.7L92,50l-1-1.2l1.8,0.7l2.5-1.4c0,0-5.9-1.2-10.6,1.6l0.2-0.3l-1.4-0.7l2-0.1l0.7-1l-1.4-0.7l2-0.1l0.7-1L86,45.3l2-0.1
	l1.7-2.3c0,0-6.1,1.6-9,6.4c-0.4,0.6-0.6,1.1-0.8,1.6v-1.1L78.3,50l1.6-1.2v-1.2l-1.5,0.3l1.6-1.2v-1.2l-1.5,0.3l1.6-1.2v-1.2
	l-1.5,0.3l1.6-1.2l-2.1-3c0,0-1.6,3.8-1.7,8.5c-3.5-3.3-8.5-4-8.5-4l2,2.1l2-0.1l-1.4,0.8l0.9,0.9l2-0.1l-1.4,0.8l0.9,0.9l2-0.1
	l-1.4,0.8l0.7,0.8c-5.1-2.4-11-0.5-11-0.5l2.7,1.1l1.7-0.9l-0.6,0.9l1.2,0.4l1.7-0.9l-0.9,1.3l1.2,0.4l1.7-0.9l-0.9,1.3l1.2,0.4
	l1.7-0.9l-0.8,1.2c-0.1,0-0.1,0-0.1,0c-5.6,0.4-9.9,5-9.9,5l2.8-0.4l1-1.7l-0.1,1.5l1.2-0.1l1-1.7L68.7,58l1.2-0.1l1-1.7l-0.1,1.5
	l1.2-0.1l1-1.7l-0.1,1.5l1.2-0.1l1-1.7l-0.1,1.5l1.2-0.1l0.6-1.3l0.1,0.1l0.2,1.2l0.4-0.1l0,0c-0.1,0.1-0.1,0.2-0.1,0.3
	c0,0.1-0.1,0.1-0.1,0.1l0.7,0.1c0,0,0,0.1-0.1,0.2c0,0.1-0.1,0.1-0.1,0.2c-0.1,0.1-0.1,0.3-0.1,0.4l0,0l0,0
	c-0.1,0.1-0.1,0.3-0.1,0.4c0,0,0,0,0,0.1c0,0,0,0,0,0.1s-0.1,0.2-0.1,0.3c0,0.1,0,0.1-0.1,0.1l0,0l0,0v0.1c0,0.1-0.1,0.3-0.1,0.4
	c-0.1,0.3-0.1,0.4-0.1,0.4l0,0l0,0h0.7c0,0,0,0.1,0,0.1s0,0.2-0.1,0.3c0,0.1-0.1,0.3-0.1,0.4c0,0.1-0.1,0.4-0.1,0.5
	s-0.1,0.4-0.1,0.5c0,0.1,0,0.4-0.1,0.4c0,0.3-0.1,0.4-0.1,0.4l0.7-0.1c0,0,0,0.1,0,0.1c0,0.1,0,0.2,0,0.3c0,0.1,0,0.3,0,0.4
	c0,0.1,0,0.1,0,0.3c0,0.1,0,0.1,0,0.3c0,0.3,0,0.5,0,0.8c0,0.1,0,0.1,0,0.2v0.1c0,0.1,0,0.2,0,0.3l0,0v0.1l0,0l0.7-0.1
	c0,0,0,0.1,0,0.4v0.1c0,0.3,0,0.6,0.1,0.9c0,0.4,0.1,0.7,0.1,0.9c0,0.1,0,0.2,0,0.3s0,0.1,0,0.1l0,0l0.7-0.2c0,0,0,0,0,0.1
	s0,0.2,0.1,0.4l0,0l0,0l0,0c0,0.1,0.1,0.3,0.1,0.4l0,0l0,0c0,0.1,0.1,0.4,0.1,0.5l0,0c0.1,0.7,0.3,1.4,0.3,1.4l0.6-0.3
	c0,0,0.1,0.1,0.1,0.4c0.1,0.2,0.1,0.6,0.2,0.9c0.1,0.6,0.3,1.2,0.3,1.3l0,0l0.6-0.3c0,0,0.1,0.7,0.3,1.3c0.1,0.3,0.1,0.7,0.1,0.9
	c0,0.1,0.1,0.2,0.1,0.3s0,0.1,0,0.1l0.7-0.3c0,0,0,0.1,0.1,0.4c0,0.1,0.1,0.3,0.1,0.4s0.1,0.3,0.1,0.5c0,0.1,0,0.1,0,0.1
	c0,0.2,0.1,0.4,0.1,0.7c0,0.1,0,0.1,0,0.1c0,0.1,0,0.2,0,0.3s0,0.1,0,0.1l0.7-0.2l0,0v0.1v0.1c0,0.1,0,0.1,0,0.2l0,0
	c0,0.1,0,0.2,0,0.4l0,0c0,0.1,0,0.3,0,0.4s0,0.3,0,0.4l0,0v0.1l0,0c0,0.1,0,0.2,0,0.3s0,0.1,0,0.1s0,0.1,0,0.1c0,0.1,0,0.1,0,0.1
	l0.7-0.1c0,0,0,0.1,0,0.1s0,0.1,0,0.3c0,0.1,0,0.3-0.1,0.4c0,0.1-0.1,0.3-0.1,0.4s-0.1,0.3-0.1,0.4s-0.1,0.3-0.1,0.4
	c-0.1,0.2-0.1,0.4-0.1,0.4l3.5-0.1c0,0-0.1-0.1-0.1-0.4c0-0.1-0.1-0.3-0.1-0.4s-0.1-0.4-0.1-0.5s-0.1-0.4-0.2-0.5s-0.1-0.3-0.1-0.4
	C87,79.7,87,79.6,87,79.5c0-0.1-0.1-0.1-0.1-0.1l0.7-0.1c0,0,0-0.1-0.1-0.1c0-0.1-0.1-0.1-0.1-0.3c-0.1-0.2-0.3-0.6-0.4-0.9
	c-0.1-0.1-0.1-0.3-0.3-0.4c-0.1-0.1-0.1-0.3-0.2-0.4c-0.1-0.1-0.1-0.2-0.1-0.3s-0.1-0.1-0.1-0.1l0.7-0.2c0,0,0-0.1-0.1-0.1
	c-0.1-0.1-0.1-0.1-0.1-0.3c-0.1-0.2-0.4-0.5-0.6-0.8c-0.1-0.1-0.2-0.3-0.3-0.4s-0.2-0.3-0.3-0.4c-0.1-0.2-0.3-0.4-0.3-0.4l0.7-0.3
	c0,0,0,0-0.1-0.1s-0.1-0.1-0.2-0.2c-0.1-0.2-0.4-0.5-0.7-0.7c-0.4-0.5-0.9-1-0.9-1l0.6-0.3c0,0-0.4-0.5-0.9-1c-0.4-0.5-0.9-1-0.9-1
	l-0.4,0.2l1-0.5c0,0-0.4-0.5-0.8-1c-0.1-0.1-0.2-0.2-0.3-0.4c-0.1-0.1-0.1-0.2-0.2-0.3c-0.1-0.1-0.2-0.3-0.2-0.3l0.7-0.2l0,0
	c0,0,0-0.1-0.1-0.1c-0.1-0.1-0.1-0.1-0.1-0.2c-0.1-0.2-0.3-0.5-0.5-0.8c-0.1-0.3-0.4-0.6-0.5-0.8c-0.1-0.2-0.2-0.4-0.2-0.4l-1,0.3
	l1.7-0.4c0,0-0.1-0.1-0.2-0.4c-0.1-0.2-0.3-0.5-0.4-0.8C81,63.6,81,63.5,81,63.4c0-0.1-0.1-0.1-0.1-0.2c-0.1-0.1-0.1-0.3-0.2-0.4
	c-0.1-0.1-0.1-0.2-0.1-0.3c0-0.1-0.1-0.1-0.1-0.1l-1,0.1l0,0l1.7-0.3c0,0-0.1-0.1-0.1-0.4c-0.1-0.1-0.1-0.2-0.1-0.4
	c-0.1-0.1-0.1-0.3-0.1-0.4c-0.1-0.1-0.1-0.3-0.1-0.4c-0.1-0.1-0.1-0.3-0.1-0.4c-0.1-0.1-0.1-0.2-0.1-0.3c0-0.1,0-0.1,0-0.1l-1.1,0.1
	l0,0L81,60c0,0-0.1-0.1-0.1-0.4c0-0.1-0.1-0.2-0.1-0.4c-0.1-0.1-0.1-0.3-0.1-0.4c-0.1-0.1-0.1-0.3-0.1-0.4c0-0.1-0.1-0.3-0.1-0.4
	c-0.1-0.2-0.1-0.4-0.1-0.4l0.7,0.1v-0.1c0-0.1,0-0.1-0.1-0.3c0-0.1-0.1-0.3-0.1-0.4c0-0.1,0-0.1,0-0.2v-0.1h1.6l0.1-1.4l0.9,1.4h1.2
	l-0.3-1.5l1.2,1.5h1.2l-0.3-1.5l1.2,1.5h1.2l-0.3-1.5l1.2,1.5h1.2l-0.3-1.5l1.2,1.5h1.2L93,55.1l1.2,1.5L97.4,56.7z M77,52.2
	c0.1,0.1,0.1,0.2,0.1,0.3l-0.1,0.1c-0.1-0.1-0.2-0.2-0.4-0.4H77z M75.7,53.4L75.3,54c-0.1,0-0.3-0.1-0.5-0.1L75.7,53.4z M77.4,54.2
	l-0.1,0.4c-0.1,0-0.1-0.1-0.2-0.1L77.4,54.2z M82,53.9L82,53.9l0.6,0.3c-0.1,0.1-0.2,0.1-0.3,0.2L82,53.9z M83.9,50.4
	c-0.2,0.1-0.4,0.3-0.5,0.4l-0.8-0.4L83.9,50.4z M82.1,52.2c-0.1,0.1-0.1,0.2-0.2,0.3l-0.6-0.3H82.1z M79.8,51.8l-0.5,0.1
	c0-0.1-0.1-0.2-0.1-0.4l0.9-0.7C80,51.3,79.9,51.5,79.8,51.8z M76.3,50.5l-1,0.6c-0.3-0.1-0.6-0.4-0.9-0.5L76.3,50.5z M84,53.5
	l-0.5-0.6l1.1,0.4C84.4,53.4,84.2,53.4,84,53.5z"/>
</svg>
