<?xml version="1.0" encoding="utf-8"?>
<!-- Generator: Adobe Illustrator 19.2.1, SVG Export Plug-In . SVG Version: 6.00 Build 0)  -->
<svg version="1.1" id="Ebene_1" xmlns="http://www.w3.org/2000/svg" xmlns:xlink="http://www.w3.org/1999/xlink" x="0px" y="0px"
	 viewBox="0 0 93.5 55.9" style="enable-background:new 0 0 93.5 55.9;" xml:space="preserve">
<style type="text/css">
	.st0{fill:#C4C4C4;}
</style>
<title>middle</title>
<g>
	<g>
		<path class="st0" d="M79.8,25.5L79.8,25.5c-0.1-0.3-0.3-0.5-0.6-0.5h-6.1v-0.5h1.5c0.4,0,0.6-0.3,0.6-0.6v-5.7h0.2
			c0.4,0,0.7-0.3,0.7-0.6v-4.5c0,0,0,0,0,0H77c0.4,0,0.6-0.3,0.6-0.6V4.9c0-0.4-0.3-0.6-0.6-0.6h-4.5l0.3-3.6c0-0.3-0.3-0.6-0.6-0.6
			h-3.8c-0.4,0-0.6,0.3-0.6,0.6L68,4.2h-4.5c-0.4,0-0.6,0.3-0.6,0.6v7.5c0,0.4,0.3,0.6,0.6,0.6h1c0,0,0,0,0,0v4.5
			c0,0.3,0.3,0.6,0.6,0.6h0.2v5.7c0,0.3,0.3,0.6,0.6,0.6h1.5V25h-6.1c-0.3,0-0.6,0.3-0.6,0.6c0,0-4.3,14.3,1.2,19.8l0.6,9.4
			c0,0.3,0.3,0.6,0.6,0.6h14.5c0.3,0,0.6-0.3,0.6-0.6l0.6-9.6C84.1,39.7,79.8,25.5,79.8,25.5z M67.1,15.5c-0.8,0-1.4-0.4-1.4-0.9
			c0-0.5,0.6-0.9,1.4-0.9s1.4,0.4,1.4,0.9C68.5,15.1,67.9,15.5,67.1,15.5z M69.1,19.3l0.7-6.3h1.5l0.7,6.3H69.1z M72.1,14.6
			c0-0.5,0.6-0.9,1.4-0.9s1.4,0.4,1.4,0.9c0,0.5-0.6,0.9-1.4,0.9C72.7,15.5,72.1,15.1,72.1,14.6z"/>
		<circle class="st0" cx="67.1" cy="14.6" r="0.7"/>
		<circle class="st0" cx="73.5" cy="14.6" r="0.7"/>
	</g>
	<g>
		<circle class="st0" cx="41" cy="18.7" r="0.7"/>
		<path class="st0" d="M52.3,28.5L52.3,28.5c-0.1-0.3-0.3-0.5-0.5-0.5h-5.4v-0.5h1.3c0.3,0,0.5-0.3,0.5-0.6v-5.1h0.2
			c0.3,0,0.6-0.2,0.6-0.6v-4c0-0.3-0.3-0.5-0.6-0.5h-0.2v-1.6c0-0.3-0.2-0.6-0.5-0.6h-8c-0.3,0-0.6,0.3-0.6,0.6v1.6H39
			c-0.3,0-0.5,0.2-0.5,0.5v4c0,0.3,0.2,0.6,0.5,0.6h0.2V27c0,0.3,0.2,0.6,0.6,0.6h1.3v0.5h-5.4c-0.3,0-0.6,0.3-0.6,0.6
			c0,0-3.8,12.8,1.1,17.7l0.5,8.4c0,0.3,0.3,0.6,0.6,0.6h13c0.3,0,0.6-0.3,0.6-0.6l0.5-8.6C56.1,41.2,52.3,28.5,52.3,28.5z M41,19.5
			c-0.7,0-1.3-0.4-1.3-0.8c0-0.4,0.6-0.8,1.3-0.8c0.7,0,1.3,0.4,1.3,0.8C42.2,19.1,41.7,19.5,41,19.5z M42.7,22.9l0.6-5.6h1.3
			l0.6,5.6H42.7z M45.4,18.7c0-0.4,0.6-0.8,1.3-0.8c0.7,0,1.3,0.4,1.3,0.8c0,0.4-0.6,0.8-1.3,0.8C45.9,19.5,45.4,19.1,45.4,18.7z"/>
		<circle class="st0" cx="46.6" cy="18.7" r="0.7"/>
	</g>
	<g>
		<path class="st0" d="M27.5,33.8L27.5,33.8c-0.1-0.2-0.2-0.4-0.5-0.4h-4.5V33h1.1c0.3,0,0.5-0.2,0.5-0.5v-4.2h0.1
			c0.3,0,0.5-0.2,0.5-0.5v-3.3c0,0,0,0,0,0h0.6c0.3,0,0.5-0.2,0.5-0.5v-5.6c0-0.3-0.2-0.5-0.5-0.5h-10c-0.3,0-0.5,0.2-0.5,0.5v5.6
			c0,0.3,0.2,0.5,0.5,0.5h0.7c0,0,0,0,0,0v3.3c0,0.3,0.2,0.5,0.4,0.5h0.1v4.2c0,0.3,0.2,0.5,0.5,0.5h1.1v0.4h-4.5
			c-0.3,0-0.5,0.2-0.5,0.5c0,0-3.2,10.6,0.9,14.6l0.4,6.9c0,0.3,0.2,0.5,0.5,0.5h10.7c0.3,0,0.5-0.2,0.5-0.5l0.4-7.1
			C30.6,44.3,27.5,33.8,27.5,33.8z M18.1,26.3c-0.6,0-1-0.3-1-0.7c0-0.4,0.5-0.7,1-0.7s1,0.3,1,0.7C19.1,26,18.7,26.3,18.1,26.3z
			 M19.5,29.2l0.5-4.6h1.1l0.5,4.6H19.5z M21.7,25.7c0-0.4,0.5-0.7,1-0.7c0.6,0,1,0.3,1,0.7c0,0.4-0.5,0.7-1,0.7
			C22.2,26.3,21.7,26,21.7,25.7z"/>
		<circle class="st0" cx="18.1" cy="25.7" r="0.5"/>
		<circle class="st0" cx="22.8" cy="25.7" r="0.5"/>
	</g>
</g>
</svg>
