<?xml version="1.0" encoding="utf-8"?>
<!-- Generator: Adobe Illustrator 19.2.1, SVG Export Plug-In . SVG Version: 6.00 Build 0)  -->
<svg version="1.1" id="Ebene_1" xmlns="http://www.w3.org/2000/svg" xmlns:xlink="http://www.w3.org/1999/xlink" x="0px" y="0px"
	 viewBox="0 0 32.4 27.4" style="enable-background:new 0 0 32.4 27.4;" xml:space="preserve">
<style type="text/css">
	.st0{fill:#DBDBDB;}
</style>
<title>small</title>
<path class="st0" d="M27.7,11.1c0,0-3-2.6-6.6-2.4c-0.1,0-0.3,0-0.4,0L20.2,8l1.2,0.5L22,8.1l-0.6-0.8l1.2,0.5l0.7-0.4l-0.6-0.8
	l1.2,0.5l0.7-0.4L24,5.9l1,0.6l1.6-0.9c0,0-3.7-0.7-6.7,1L20,6.5l-0.9-0.4L20.4,6l0.5-0.6L20,5l1.2-0.1l0.5-0.6l-0.9-0.4L22,3.7
	l1-1.4c0,0-3.9,1-5.7,4c-0.2,0.3-0.4,0.7-0.5,1V6.6l-1,0.2l1-0.8V5.2l-1,0.2l1-0.8V3.8l-1,0.2l1-0.8V2.4l-1,0.2l1-0.8L15.6,0
	c0,0-1,2.4-1.1,5.4c-2.2-2.1-5.4-2.5-5.4-2.5l1.2,1.3l1.2-0.1l-0.9,0.5l0.5,0.6l1.2-0.1l-0.9,0.5l0.5,0.6l1.2-0.1l-0.9,0.5L13,7.2
	C9.8,5.7,6,6.9,6,6.9l1.7,0.7L8.9,7L8.3,7.8L9,8.1l1.1-0.6L9.6,8.3l0.7,0.3L11.4,8l-0.5,0.8l0.7,0.3l1.1-0.6l-0.5,0.8h-0.1
	c-3.6,0.2-6.3,3.1-6.3,3.1l1.8-0.2l0.6-1.1l-0.1,1L9,12l0.6-1.1l-0.1,1l0.8-0.1l0.6-1.1l-0.1,1l0.8-0.1l0.6-1.1l-0.1,1l0.8-0.1
	l0.6-1.1l-0.1,1l0.8-0.1l0.4-0.8h0.1l0.1,0.7h0.3l0,0c0,0.1-0.1,0.1-0.1,0.2v0.1h0.4v0.1v0.1c0,0.1-0.1,0.2-0.1,0.3l0,0l0,0
	c0,0.1-0.1,0.2-0.1,0.3l0,0l0,0c0,0.1,0,0.1-0.1,0.2v0.1l0,0l0,0c0,0,0,0,0,0.1s0,0.2-0.1,0.2c0,0.2-0.1,0.3-0.1,0.3l0,0l0,0h0.4
	c0,0,0,0,0,0.1c0,0,0,0.1,0,0.2c0,0.1,0,0.2-0.1,0.3c0,0.1,0,0.2,0,0.3s0,0.2,0,0.3s0,0.2,0,0.3c0,0.2,0,0.3,0,0.3l0.4-0.1
	c0,0,0,0,0,0.1c0,0,0,0.1,0,0.2c0,0.1,0,0.2,0,0.3s0,0.1,0,0.2c0,0.1,0,0.1,0,0.2c0,0.2,0,0.3,0,0.5v0.1c0,0,0,0,0,0.1s0,0.1,0,0.2
	l0,0l0,0l0,0l0.4-0.1c0,0,0,0.1,0,0.2c0,0,0,0,0,0.1c0,0.2,0,0.4,0,0.6s0,0.4,0,0.6c0,0.1,0,0.2,0,0.2s0,0,0,0.1l0,0l0.4-0.1l0,0
	c0,0,0,0.1,0,0.2l0,0l0,0l0,0c0,0.1,0,0.2,0,0.3l0,0l0,0c0,0.1,0,0.2,0.1,0.3l0,0c0.1,0.5,0.2,0.9,0.2,0.9l0.4-0.2
	c0,0,0,0.1,0.1,0.3c0,0.2,0.1,0.4,0.1,0.6c0.1,0.4,0.2,0.7,0.2,0.8l0,0l0.4-0.2c0,0,0.1,0.4,0.2,0.8c0,0.2,0.1,0.4,0.1,0.6
	c0,0.1,0,0.1,0,0.2V23l0.4-0.2c0,0,0,0.1,0,0.3c0,0.1,0,0.2,0,0.3c0,0.1,0,0.2,0,0.3v0.1c0,0.1,0,0.3,0,0.4v0.1c0,0.1,0,0.1,0,0.2
	v0.1l0.4-0.1l0,0c0,0,0,0,0,0.1c0,0,0,0,0,0.1v0.1l0,0c0,0.1,0,0.2,0,0.3l0,0c0,0.1,0,0.2,0,0.3c0,0.1,0,0.2,0,0.3l0,0l0,0l0,0
	c0,0.1,0,0.1,0,0.2c0,0,0,0,0,0.1v0.1v0.1l0.4-0.1c0,0,0,0,0,0.1c0,0,0,0.1,0,0.2s0,0.2,0,0.3c0,0.1,0,0.2,0,0.3
	c0,0.1,0,0.2-0.1,0.3c0,0.1,0,0.2-0.1,0.2c0,0.1-0.1,0.2-0.1,0.2l2.2-0.1c0,0,0-0.1-0.1-0.3c0-0.1-0.1-0.2-0.1-0.3
	c0-0.1-0.1-0.2-0.1-0.3c0-0.1-0.1-0.2-0.1-0.3c0-0.1-0.1-0.2-0.1-0.3c0-0.1-0.1-0.1-0.1-0.2v-0.1l0.4-0.1c0,0,0,0,0-0.1
	c0,0-0.1-0.1-0.1-0.2c-0.1-0.2-0.2-0.4-0.3-0.6c-0.1-0.1-0.1-0.2-0.2-0.3c-0.1-0.1-0.1-0.2-0.1-0.3c0-0.1-0.1-0.1-0.1-0.2
	c0,0,0,0,0-0.1l0.4-0.1c0,0,0,0,0-0.1c0,0-0.1-0.1-0.1-0.2c-0.1-0.1-0.2-0.3-0.4-0.5c-0.1-0.1-0.1-0.2-0.2-0.3
	c-0.1-0.1-0.1-0.2-0.2-0.2c-0.1-0.1-0.2-0.2-0.2-0.2l0.4-0.2c0,0,0,0,0-0.1c0,0-0.1-0.1-0.1-0.2c-0.1-0.1-0.2-0.3-0.4-0.5
	c-0.3-0.3-0.6-0.7-0.6-0.7l0.4-0.2c0,0-0.3-0.3-0.6-0.6c-0.3-0.3-0.6-0.6-0.6-0.6l-0.2,0.1l0.6-0.3c0,0-0.3-0.3-0.5-0.6
	c-0.1-0.1-0.1-0.2-0.2-0.2c-0.1-0.1-0.1-0.1-0.2-0.2s-0.1-0.2-0.1-0.2l0.4-0.1l0,0l0,0c0,0-0.1-0.1-0.1-0.2
	c-0.1-0.1-0.2-0.3-0.3-0.5c-0.1-0.2-0.2-0.4-0.3-0.5c-0.1-0.1-0.1-0.2-0.1-0.2l-0.6,0.2l1.1-0.3c0,0-0.1-0.1-0.1-0.2
	c-0.1-0.1-0.2-0.3-0.3-0.5c0,0,0-0.1-0.1-0.1c0,0,0-0.1-0.1-0.1c0-0.1-0.1-0.2-0.1-0.2c0-0.1-0.1-0.1-0.1-0.2v-0.1l-0.7,0.1l0,0
	l1.1-0.2c0,0,0-0.1-0.1-0.2c0-0.1-0.1-0.1-0.1-0.2c0-0.1-0.1-0.2-0.1-0.3s-0.1-0.2-0.1-0.3s-0.1-0.2-0.1-0.2c0-0.1,0-0.1-0.1-0.2
	v-0.1h-0.7l0,0H17c0,0,0-0.1-0.1-0.2c0-0.1,0-0.2-0.1-0.2c0-0.1,0-0.2-0.1-0.3c0-0.1,0-0.2-0.1-0.3c0-0.1,0-0.2,0-0.3s0-0.2,0-0.2
	H17c0,0,0,0,0-0.1c0,0,0-0.1,0-0.2c0-0.1,0-0.2,0-0.3V11c0,0,0,0,0-0.1h1l0.1-0.9l0.9,1h0.8l-0.2-1l0.8,1h0.8L21,10l0.8,1h0.8
	l-0.2-1l0.8,1H24l-0.2-1l0.8,1h0.8l-0.2-1l0.8,1L27.7,11.1z M14.8,8.3c0,0.1,0,0.1,0.1,0.2l0,0C14.8,8.4,14.8,8.4,14.8,8.3L14.8,8.3
	z M14,9l-0.2,0.4c-0.1,0-0.2,0-0.3-0.1L14,9z M15,9.5v0.3c0,0-0.1,0-0.1-0.1L15,9.5z M18,9.3L18,9.3l0.4,0.2c-0.1,0-0.1,0.1-0.2,0.1
	L18,9.3z M19.2,7.1c-0.1,0.1-0.2,0.2-0.3,0.3l-0.5-0.2L19.2,7.1z M18,8.3c0,0.1-0.1,0.1-0.1,0.2l-0.4-0.2H18z M16.6,8l-0.3,0.1
	c0-0.1,0-0.1-0.1-0.2l0.6-0.4C16.7,7.6,16.6,7.8,16.6,8z M14.4,7.2l-0.6,0.4c-0.2-0.1-0.3-0.2-0.5-0.3L14.4,7.2z M19.3,9.1L19,8.7
	L19.6,9C19.5,9,19.4,9.1,19.3,9.1z"/>
</svg>
