<?xml version="1.0" encoding="utf-8"?>
<!-- Generator: Adobe Illustrator 19.2.1, SVG Export Plug-In . SVG Version: 6.00 Build 0)  -->
<svg version="1.1" id="Ebene_1" xmlns="http://www.w3.org/2000/svg" xmlns:xlink="http://www.w3.org/1999/xlink" x="0px" y="0px"
	 viewBox="0 0 93.5 55.9" style="enable-background:new 0 0 93.5 55.9;" xml:space="preserve">
<style type="text/css">
	.st0{fill:#C6C6C6;}
</style>
<title>middle</title>
<path class="st0" d="M27.4,22.9l0.1,5.1l1.2,7.4l2.8,10.1h3.6c0,0,0.2-1.7-2.1-1.7l-0.9-6.9l2.2-8.9h9.6l-3.9,7.4l-2.1,10.1h4
	c0,0,0.3-1.7-2-1.7l3.1-6.9l5.8-8.6l2.6,7.1l3.3,10.1h3.4c0,0,0.4-1.7-2.3-1.7l-1.6-6.9l-1.4-8.9c0,0,10.4,0.3,12.8-12.2h2.9
	c0,0,1.6-0.1,1.6-1.7c0,0,0-1.7-1.6-1.7h-2.9l-0.9-0.4h-1.4c0,0-0.1-0.9-1-0.9c-0.9,0-0.9,0.8-0.9,1.1v1.3c0,7.4-6,6.8-6,6.8
	c-4,0-6.2-4.4-6.2-4.4c-2.6-5.4-8.1-5.2-8.1-5.2c-5.7,0-7.4,5.2-9.1,5.2c0,0-3.3-0.1-4.9,4.6l-3.8,9.9h1L27.4,22.9z"/>
</svg>
