<?xml version="1.0" encoding="utf-8"?>
<!-- Generator: Adobe Illustrator 19.2.1, SVG Export Plug-In . SVG Version: 6.00 Build 0)  -->
<svg version="1.1" id="Ebene_1" xmlns="http://www.w3.org/2000/svg" xmlns:xlink="http://www.w3.org/1999/xlink" x="0px" y="0px"
	 viewBox="0 0 93.5 55.9" style="enable-background:new 0 0 93.5 55.9;" xml:space="preserve">
<style type="text/css">
	.st0{fill:#D8D7AF;}
</style>
<title>middle</title>
<path class="st0" d="M15.9,19.8l0.2,8.1L18,39.7l4.4,16.2h5.8c0,0,0.3-2.7-3.4-2.7l-1.5-11.1l3.5-14.3h15.4l-6.3,11.9l-3.3,16.2h6.4
	c0,0,0.4-2.7-3.2-2.7l4.9-11.1l9.3-13.8l4.1,11.4l5.3,16.2h5.5c0,0,0.6-2.7-3.7-2.7l-2.5-11.1l-2.3-14.3c0,0,16.6,0.5,20.5-19.5h4.6
	c0,0,2.6-0.1,2.6-2.7c0,0,0-2.7-2.6-2.7h-4.6l-1.4-0.7h-2.3c0,0-0.1-1.5-1.6-1.5c-1.4,0-1.5,1.3-1.5,1.8v2c0,11.9-9.6,10.9-9.6,10.9
	c-6.4,0-9.9-7.1-9.9-7.1C46.4-0.3,37.7,0,37.7,0c-9.1,0-11.9,8.3-14.5,8.3c0,0-5.2-0.1-7.9,7.3l-6,15.9l1.6,0L15.9,19.8z"/>
</svg>
