<?xml version="1.0" encoding="utf-8"?>
<!-- Generator: Adobe Illustrator 19.2.1, SVG Export Plug-In . SVG Version: 6.00 Build 0)  -->
<svg version="1.1" id="Ebene_1" xmlns="http://www.w3.org/2000/svg" xmlns:xlink="http://www.w3.org/1999/xlink" x="0px" y="0px"
	 viewBox="0 0 32.4 27.4" style="enable-background:new 0 0 32.4 27.4;" xml:space="preserve">
<style type="text/css">
	.st0{fill:#6B9975;}
</style>
<title>small</title>
<path class="st0" d="M20.3,3.6c0-2-1.6-3.6-3.6-3.6s-3.6,1.6-3.6,3.6l0,0v14.3c-0.9,0-1.7-0.8-1.7-1.7l0,0V9.7c0-1.2-1-2.2-2.2-2.2
	s-2.2,1-2.2,2.2l0,0v6.5c0,3.4,2.7,6.1,6.1,6.1l0,0v5.1h7.1v-7.2c3.4,0,6.1-2.7,6.1-6.1l0,0V9.7c0-1.2-1-2.2-2.2-2.2S22,8.5,22,9.7
	l0,0V14c0,0.9-0.8,1.7-1.7,1.7l0,0C20.3,15.7,20.3,3.6,20.3,3.6z"/>
</svg>
