<?xml version="1.0" encoding="utf-8"?>
<!-- Generator: Adobe Illustrator 19.2.1, SVG Export Plug-In . SVG Version: 6.00 Build 0)  -->
<svg version="1.1" id="Ebene_1" xmlns="http://www.w3.org/2000/svg" xmlns:xlink="http://www.w3.org/1999/xlink" x="0px" y="0px"
	 viewBox="0 0 152.5 82.8" style="enable-background:new 0 0 152.5 82.8;" xml:space="preserve">
<style type="text/css">
	.st0{fill:#CCCCCC;}
</style>
<title>large</title>
<path class="st0" d="M92.6,32.5l-25-32.2C67.4,0.2,67.1,0,66.8,0H56.6c-0.4,0-0.7,0.4-0.6,0.8l11.2,32.4l-19.8,0.4l-9.8-12.2
	c-0.2-0.2-0.5-0.4-0.8-0.4h-6.6c-0.4,0-0.7,0.4-0.6,0.9l7.7,19.3c0.1,0.3,0.1,0.5,0,0.8L29.6,61c-0.2,0.4,0.1,0.9,0.6,0.9h6.6
	c0.3,0,0.6-0.1,0.8-0.4l9.7-12.1l19.8,0.4L56,82c-0.1,0.4,0.2,0.8,0.6,0.8h10.2c0.3,0,0.6-0.1,0.8-0.4l25-32.2l23.8,0.5
	c5.1,0.1,9.8-3.7,10-8.9c0.3-5.4-4.1-9.9-9.5-9.8L92.6,32.5z"/>
</svg>
