<?xml version="1.0" encoding="utf-8"?>
<!-- Generator: Adobe Illustrator 19.2.1, SVG Export Plug-In . SVG Version: 6.00 Build 0)  -->
<svg version="1.1" id="Ebene_1" xmlns="http://www.w3.org/2000/svg" xmlns:xlink="http://www.w3.org/1999/xlink" x="0px" y="0px"
	 viewBox="0 0 152.5 82.8" style="enable-background:new 0 0 152.5 82.8;" xml:space="preserve">
<style type="text/css">
	.st0{fill:#FFFFFF;}
</style>
<title>large</title>
<path class="st0" d="M85.2,37L72.9,21.1c-0.1,0-0.2-0.1-0.4-0.1h-5c-0.2,0-0.3,0.2-0.3,0.4l5.5,16l-9.8,0.2l-4.8-6
	c-0.1-0.1-0.2-0.2-0.4-0.2h-3.3c-0.2,0-0.3,0.2-0.3,0.4l3.8,9.5c0,0.1,0,0.2,0,0.4l-3.8,9.4c-0.1,0.2,0,0.4,0.3,0.4h3.3
	c0.1,0,0.3,0,0.4-0.2l4.8-6l9.8,0.2l-5.5,15.9c0,0.2,0.1,0.4,0.3,0.4h5c0.1,0,0.3,0,0.4-0.2l12.3-15.9L96.9,46
	c2.5,0,4.8-1.8,4.9-4.4c0.1-2.7-2-4.9-4.7-4.8L85.2,37z"/>
</svg>
