<?xml version="1.0" encoding="utf-8"?>
<!-- Generator: Adobe Illustrator 19.2.1, SVG Export Plug-In . SVG Version: 6.00 Build 0)  -->
<svg version="1.1" id="Ebene_1" xmlns="http://www.w3.org/2000/svg" xmlns:xlink="http://www.w3.org/1999/xlink" x="0px" y="0px"
	 viewBox="0 0 93.5 55.9" style="enable-background:new 0 0 93.5 55.9;" xml:space="preserve">
<style type="text/css">
	.st0{fill:#FFFFFF;}
</style>
<title>middle</title>
<title>middle</title>
<g transform="translate(-5, -3.921)">
	<path class="st0" d="M56.8,21.1c7.1,0,12.7,5.7,12.7,12.7c0,0.3-0.1,1.1-0.1,1.2c-0.1,0.4,0,0.1-0.1,0.8c3.3,1.2,5,4.3,5.3,7.6
		c0,4.5-3.7,8.2-8.2,8.2c0,0.1-28,0-28,0s-1.8-0.1-1.9-0.1c-0.1,0-0.1,0-0.1,0c-4.2,0-7.6-3.4-7.6-7.6c0.1-2.9,1.7-5.6,4.3-6.8
		C33,36.2,33,36.7,33,35.9c0-0.1,0-0.3,0-0.5c0,0,0,0,0-0.1c0-3.7,2.9-6.6,6.6-6.6c2.4,0.1,3.3,0.8,5,2.4
		C46.2,25,50.5,21.7,56.8,21.1L56.8,21.1z"/>
</g>
</svg>
