<?xml version="1.0" encoding="utf-8"?>
<!-- Generator: Adobe Illustrator 19.2.1, SVG Export Plug-In . SVG Version: 6.00 Build 0)  -->
<svg version="1.1" id="Ebene_1" xmlns="http://www.w3.org/2000/svg" xmlns:xlink="http://www.w3.org/1999/xlink" x="0px" y="0px"
	 viewBox="0 0 93.5 55.9" style="enable-background:new 0 0 93.5 55.9;" xml:space="preserve">
<style type="text/css">
	.st0{fill:#FFFFFF;}
</style>
<title>middle</title>
<title>middle</title>
<g transform="translate(-5, -3.921)">
	<path class="st0" d="M59.5,13C70.3,13,79,21.7,79,32.5c0,0.4-0.1,1.7-0.1,1.9c-0.1,0.6,0,0.2-0.2,1.2c5,1.8,7.7,6.6,8.1,11.6
		c0,6.9-5.6,12.5-12.5,12.5c0,0.1-42.8,0-42.8,0s-2.7-0.1-2.9-0.1c-0.1,0-0.1,0-0.2,0c-6.5,0-11.7-5.2-11.7-11.7
		c0.2-4.4,2.6-8.6,6.6-10.4c-0.3-1.4-0.2-0.7-0.3-1.9c0-0.2,0-0.4,0-0.8c0,0,0,0,0-0.1c0-5.6,4.5-10.1,10.1-10.1
		c3.6,0.1,5,1.2,7.6,3.6C43.3,18.9,49.9,13.9,59.5,13L59.5,13z"/>
</g>
</svg>
