<?xml version="1.0" encoding="utf-8"?>
<!-- Generator: Adobe Illustrator 19.2.1, SVG Export Plug-In . SVG Version: 6.00 Build 0)  -->
<svg version="1.1" id="Ebene_1" xmlns="http://www.w3.org/2000/svg" xmlns:xlink="http://www.w3.org/1999/xlink" x="0px" y="0px"
	 viewBox="0 0 32.4 27.4" style="enable-background:new 0 0 32.4 27.4;" xml:space="preserve">
<style type="text/css">
	.st0{fill:#FFFFFF;}
</style>
<title>small</title>
<g transform="translate(0.000000,90.000000) scale(0.100000,-0.100000)">
	<path class="st0" d="M162.1,838.8c-0.9-3.2-0.9-20.8-0.2-38.5l1.3-32.2l-6.7,1.3c-7.2,1.3-12.5-1.5-12.5-6.7c0-1.8,0.9-2.6,1.8-1.9
		c1.1,0.6,5.2-1.5,9.1-4.7l6.9-6l-6.3-12.8c-5.4-10.8-11.3-27.3-17.1-49.1c-1.8-5.9,8.2-7.3,14.5-2.4c15.4,12.1,27.4,30.1,33.3,48.9
		l2.4,8.2l7.2-10c7.8-10.8,10.4-10.6,16.7,1.3c3,6,3.2,30.5,0.2,33.7c-0.9,0.9-6-0.6-11.3-3.2c-5.4-2.6-10.1-4.7-10.8-4.7
		c-0.4,0-0.2,5.2,0.4,11.7c1.5,14.1-3.9,40-11.5,54.7c-2.8,5.6-5.2,11.5-5.2,12.8c0,1.5-1.5,3-3.2,3.9c-1.8,0.6-3.2,0-3.2-1.5
		c0-1.8-0.6-1.5-1.9,0.4C164.1,844.4,163.4,843.8,162.1,838.8z"/>
</g>
</svg>
