<?xml version="1.0" encoding="utf-8"?>
<!-- Generator: Adobe Illustrator 19.2.1, SVG Export Plug-In . SVG Version: 6.00 Build 0)  -->
<svg version="1.1" id="Ebene_1" xmlns="http://www.w3.org/2000/svg" xmlns:xlink="http://www.w3.org/1999/xlink" x="0px" y="0px"
	 viewBox="0 0 32.4 27.4" style="enable-background:new 0 0 32.4 27.4;" xml:space="preserve">
<style type="text/css">
	.st0{fill:#D8D6D6;}
</style>
<title>small</title>
<g transform="translate(0.000000,90.000000) scale(0.100000,-0.100000)">
	<path class="st0" d="M152,892.3c-1.5-5.5-1.5-35.4-0.4-65.7l2.2-55l-11.4,2.2c-12.2,2.2-21.4-2.6-21.4-11.4c0-3,1.5-4.4,3-3.3
		c1.8,1.1,8.9-2.6,15.5-8.1l11.8-10.3l-10.7-21.8c-9.2-18.4-19.2-46.5-29.1-83.7c-3-10,14-12.5,24.7-4.1
		c26.2,20.7,46.8,51.3,56.8,83.4l4.1,14l12.2-17c13.3-18.4,17.7-18.1,28.4,2.2c5.2,10.3,5.5,52,0.4,57.5c-1.5,1.5-10.3-1.1-19.2-5.5
		c-9.2-4.4-17.3-8.1-18.4-8.1c-0.7,0-0.4,8.9,0.7,19.9c2.6,24-6.6,68.2-19.6,93.3c-4.8,9.6-8.9,19.6-8.9,21.8c0,2.6-2.6,5.2-5.5,6.6
		c-3,1.1-5.5,0-5.5-2.6c0-3-1.1-2.6-3.3,0.7C155.3,901.9,154.2,900.8,152,892.3z"/>
</g>
</svg>
