<?xml version="1.0" encoding="utf-8"?>
<!-- Generator: Adobe Illustrator 19.2.1, SVG Export Plug-In . SVG Version: 6.00 Build 0)  -->
<svg version="1.1" id="Ebene_1" xmlns="http://www.w3.org/2000/svg" xmlns:xlink="http://www.w3.org/1999/xlink" x="0px" y="0px"
	 viewBox="0 0 152.5 82.8" style="enable-background:new 0 0 152.5 82.8;" xml:space="preserve">
<style type="text/css">
	.st0{fill:#DAD6D5;}
	.st1{fill:#B5B4B4;}
</style>
<title>large</title>
<path class="st0" d="M62.2,67.1L50.5,47c0-0.3-0.3-0.7,0.3-1l3.1-0.3c0.3,0,0.7-0.3,0.7-1v-0.3L44.9,28c-0.3-0.3,0-0.7,0.3-0.7
	L47,27c0.3,0,0.7-0.7,0.7-1v-0.3l-6.9-11.8c0-0.3,0-0.7,0.3-0.7l1-0.3c0.3,0,0.7-0.7,0.3-1c0,0,0,0,0-0.3L35.6,0.3
	C35.6,0,35.2,0,34.9,0c-0.3,0-0.7,0-0.7,0.3l-6.6,11.4c0,0,0,0,0,0.3s0,1,0.3,1l1,0.3c0.3,0,0.3,0.3,0.3,0.7l-6.9,11.8v0.3
	c0,0.3,0.3,1,0.7,1l1.7,0.3c0.3,0,0.3,0.3,0.3,0.7l-9.7,16.3V45c0,0.3,0.3,1,0.7,1l3.1,0.3c0.7,0,0.3,0.7,0.3,1L7.9,67.4v0.3
	c0,0.3,0.3,1,0.7,1h23.5V82H38V68.8h23.5c0.3,0,0.7-0.3,0.7-1C62.2,67.4,62.2,67.1,62.2,67.1z"/>
<path class="st1" d="M68.7,82.1c2.6-10.7,5.1-21.2,7.8-31.7c0.5-2,0.6-3.9,0-5.9c-0.3-0.9-0.4-1.8-0.7-2.8c0.2-0.1,0.4-0.1,0.6-0.2
	c0.3,0.9,0.7,1.8,1.1,3.1c0.4-1.2,0.7-2,1.1-2.9c0.2,0.1,0.4,0.1,0.6,0.2c-0.3,1.5-0.6,3.1-1,4.7c16.5,0,32.8,0,49.4,0
	c-0.3-1.7-0.6-3.2-0.9-4.8c0.2-0.1,0.3-0.1,0.5-0.2c0.3,0.8,0.7,1.5,1.1,2.6c0.4-1,0.8-1.9,1.1-2.8c0.2,0.1,0.5,0.1,0.7,0.2
	c-0.5,1.7-1,3.5-1.6,5.2c-0.3,0.8-1,1.5-1.2,2.4c-2.6,10.5-5.2,21-7.7,31.5c-0.3,1.1-0.7,1.7-2,1.7c-15.8,0-31.7,0-47.5,0
	C69.7,82.3,69.3,82.2,68.7,82.1z"/>
<path class="st1" d="M129.8,46.8c2.9,11.7,5.8,23.3,8.7,35.2c-5.7,0-11.3,0-17.2,0c2.7-11.8,5.3-23.5,8-35.2
	C129.6,46.8,129.7,46.8,129.8,46.8z"/>
</svg>
