<?xml version="1.0" encoding="utf-8"?>
<!-- Generator: Adobe Illustrator 19.2.1, SVG Export Plug-In . SVG Version: 6.00 Build 0)  -->
<svg version="1.1" id="Ebene_1" xmlns="http://www.w3.org/2000/svg" xmlns:xlink="http://www.w3.org/1999/xlink" x="0px" y="0px"
	 viewBox="0 0 152.5 82.8" style="enable-background:new 0 0 152.5 82.8;" xml:space="preserve">
<style type="text/css">
	.st0{fill:#DAD6D5;}
	.st1{fill:#B5B4B4;}
	.st2{fill:#CCC7C5;}
</style>
<path class="st0" d="M85.4,19.4L82,13.7c0-0.1-0.1-0.2,0.1-0.3l0.9-0.1c0.1,0,0.2-0.1,0.2-0.3c0,0,0-0.1,0-0.1l-2.8-4.7
	c-0.1-0.1,0-0.2,0.1-0.2L81,7.9c0.1,0,0.2-0.2,0.2-0.3c0,0,0-0.1,0-0.1l-2-3.4c0-0.1,0-0.2,0.1-0.2l0.3-0.1c0.1,0,0.2-0.2,0.1-0.3
	c0,0,0,0,0-0.1l-1.9-3.3C77.6,0,77.6,0,77.5,0s-0.2,0-0.2,0.1l-1.9,3.3c0,0,0,0,0,0.1c0,0.1,0,0.3,0.1,0.3l0.3,0.1
	c0.1,0,0.1,0.1,0.1,0.2l-2,3.4c0,0,0,0.1,0,0.1c0,0.1,0.1,0.3,0.2,0.3l0.5,0.1c0.1,0,0.1,0.1,0.1,0.2l-2.8,4.7c0,0,0,0.1,0,0.1
	c0,0.1,0.1,0.3,0.2,0.3l0.9,0.1c0.2,0,0.1,0.2,0.1,0.3l-3.4,5.8c0,0,0,0.1,0,0.1c0,0.1,0.1,0.3,0.2,0.3h6.8v3.8h1.9v-3.8h6.8
	c0.1,0,0.2-0.1,0.2-0.3C85.4,19.5,85.4,19.5,85.4,19.4z"/>
<path class="st1" d="M59.5,25.7L56.1,20c0-0.1-0.1-0.2,0.1-0.3l0.9-0.1c0.1,0,0.2-0.1,0.2-0.3c0,0,0-0.1,0-0.1l-2.8-4.7
	c-0.1-0.1,0-0.2,0.1-0.2l0.5-0.1c0.1,0,0.2-0.2,0.2-0.3c0,0,0-0.1,0-0.1l-2-3.4c0-0.1,0-0.2,0.1-0.2l0.3-0.1c0.1,0,0.2-0.2,0.1-0.3
	c0,0,0,0,0-0.1l-1.9-3.3c0-0.1-0.1-0.1-0.2-0.1s-0.2,0-0.2,0.1l-1.9,3.3c0,0,0,0,0,0.1c0,0.1,0,0.3,0.1,0.3l0.3,0.1
	c0.1,0,0.1,0.1,0.1,0.2l-2,3.4c0,0,0,0.1,0,0.1c0,0.1,0.1,0.3,0.2,0.3l0.5,0.1c0.1,0,0.1,0.1,0.1,0.2l-2.8,4.7c0,0,0,0.1,0,0.1
	c0,0.1,0.1,0.3,0.2,0.3l0.9,0.1c0.2,0,0.1,0.2,0.1,0.3l-3.4,5.8c0,0,0,0.1,0,0.1c0,0.1,0.1,0.3,0.2,0.3h6.8v3.8h1.9v-3.8h6.8
	c0.1,0,0.2-0.1,0.2-0.3C59.5,25.8,59.5,25.8,59.5,25.7z"/>
<path class="st1" d="M28.7,36.5l-3.4-5.8c0-0.1-0.1-0.2,0.1-0.3l0.9-0.1c0.1,0,0.2-0.1,0.2-0.3c0,0,0-0.1,0-0.1l-2.8-4.7
	c-0.1-0.1,0-0.2,0.1-0.2l0.5-0.1c0.1,0,0.2-0.2,0.2-0.3c0,0,0-0.1,0-0.1l-2-3.4c0-0.1,0-0.2,0.1-0.2l0.3-0.1c0.1,0,0.2-0.2,0.1-0.3
	c0,0,0,0,0-0.1L21,17.2c0-0.1-0.1-0.1-0.2-0.1c-0.1,0-0.2,0-0.2,0.1l-1.9,3.3c0,0,0,0,0,0.1c0,0.1,0,0.3,0.1,0.3l0.3,0.1
	c0.1,0,0.1,0.1,0.1,0.2l-2,3.4c0,0,0,0.1,0,0.1c0,0.1,0.1,0.3,0.2,0.3l0.5,0.1c0.1,0,0.1,0.1,0.1,0.2L15.1,30c0,0,0,0.1,0,0.1
	c0,0.1,0.1,0.3,0.2,0.3l0.9,0.1c0.2,0,0.1,0.2,0.1,0.3l-3.4,5.8c0,0,0,0.1,0,0.1c0,0.1,0.1,0.3,0.2,0.3h6.8v3.8h1.9v-3.8h6.8
	c0.1,0,0.2-0.1,0.2-0.3C28.7,36.6,28.7,36.6,28.7,36.5z"/>
<path class="st2" d="M43.6,27.9l-3.4-5.8c0-0.1-0.1-0.2,0.1-0.3l0.9-0.1c0.1,0,0.2-0.1,0.2-0.3c0,0,0-0.1,0-0.1l-2.8-4.7
	c-0.1-0.1,0-0.2,0.1-0.2l0.5-0.1c0.1,0,0.2-0.2,0.2-0.3c0,0,0-0.1,0-0.1l-2-3.4c0-0.1,0-0.2,0.1-0.2l0.3-0.1c0.1,0,0.2-0.2,0.1-0.3
	c0,0,0,0,0-0.1l-1.9-3.3c0-0.1-0.1-0.1-0.2-0.1c-0.1,0-0.2,0-0.2,0.1l-1.9,3.3c0,0,0,0,0,0.1c0,0.1,0,0.3,0.1,0.3l0.3,0.1
	c0.1,0,0.1,0.1,0.1,0.2l-2,3.4c0,0,0,0.1,0,0.1c0,0.1,0.1,0.3,0.2,0.3l0.5,0.1c0.1,0,0.1,0.1,0.1,0.2L30,21.3c0,0,0,0.1,0,0.1
	c0,0.1,0.1,0.3,0.2,0.3l0.9,0.1c0.2,0,0.1,0.2,0.1,0.3l-3.4,5.8c0,0,0,0.1,0,0.1c0,0.1,0.1,0.3,0.2,0.3h6.8V32h1.9v-3.8h6.8
	c0.1,0,0.2-0.1,0.2-0.3C43.6,27.9,43.6,27.9,43.6,27.9z"/>
<path class="st0" d="M114.6,32.6l-3.4-5.8c0-0.1-0.1-0.2,0.1-0.3l0.9-0.1c0.1,0,0.2-0.1,0.2-0.3c0,0,0-0.1,0-0.1l-2.8-4.7
	c-0.1-0.1,0-0.2,0.1-0.2l0.5-0.1c0.1,0,0.2-0.2,0.2-0.3c0,0,0-0.1,0-0.1l-2-3.4c0-0.1,0-0.2,0.1-0.2l0.3-0.1c0.1,0,0.2-0.2,0.1-0.3
	c0,0,0,0,0-0.1l-1.9-3.3c0-0.1-0.1-0.1-0.2-0.1s-0.2,0-0.2,0.1l-1.9,3.3c0,0,0,0,0,0.1c0,0.1,0,0.3,0.1,0.3l0.3,0.1
	c0.1,0,0.1,0.1,0.1,0.2l-2,3.4c0,0,0,0.1,0,0.1c0,0.1,0.1,0.3,0.2,0.3l0.5,0.1c0.1,0,0.1,0.1,0.1,0.2l-2.8,4.7c0,0,0,0.1,0,0.1
	c0,0.1,0.1,0.3,0.2,0.3l0.9,0.1c0.2,0,0.1,0.2,0.1,0.3l-3.4,5.8c0,0,0,0.1,0,0.1c0,0.1,0.1,0.3,0.2,0.3h6.8v3.8h1.9V33h6.8
	c0.1,0,0.2-0.1,0.2-0.3C114.6,32.7,114.6,32.6,114.6,32.6z"/>
<path class="st1" d="M95.9,32.6l-3.4-5.8c0-0.1-0.1-0.2,0.1-0.3l0.9-0.1c0.1,0,0.2-0.1,0.2-0.3c0,0,0-0.1,0-0.1l-2.8-4.7
	c-0.1-0.1,0-0.2,0.1-0.2l0.5-0.1c0.1,0,0.2-0.2,0.2-0.3c0,0,0-0.1,0-0.1l-2-3.4c0-0.1,0-0.2,0.1-0.2l0.3-0.1c0.1,0,0.2-0.2,0.1-0.3
	c0,0,0,0,0-0.1l-1.9-3.3c0-0.1-0.1-0.1-0.2-0.1s-0.2,0-0.2,0.1l-1.9,3.3c0,0,0,0,0,0.1c0,0.1,0,0.3,0.1,0.3l0.3,0.1
	c0.1,0,0.1,0.1,0.1,0.2l-2,3.4c0,0,0,0.1,0,0.1c0,0.1,0.1,0.3,0.2,0.3l0.5,0.1c0.1,0,0.1,0.1,0.1,0.2l-2.8,4.7c0,0,0,0.1,0,0.1
	c0,0.1,0.1,0.3,0.2,0.3l0.9,0.1c0.2,0,0.1,0.2,0.1,0.3l-3.4,5.8c0,0,0,0.1,0,0.1c0,0.1,0.1,0.3,0.2,0.3h6.8v3.8h1.9V33h6.8
	c0.1,0,0.2-0.1,0.2-0.3C96,32.7,96,32.6,95.9,32.6z"/>
<path class="st2" d="M136.2,33.3l-3.4-5.8c0-0.1-0.1-0.2,0.1-0.3l0.9-0.1c0.1,0,0.2-0.1,0.2-0.3c0,0,0-0.1,0-0.1l-2.8-4.7
	c-0.1-0.1,0-0.2,0.1-0.2l0.5-0.1c0.1,0,0.2-0.2,0.2-0.3c0,0,0-0.1,0-0.1l-2-3.4c0-0.1,0-0.2,0.1-0.2l0.3-0.1c0.1,0,0.2-0.2,0.1-0.3
	c0,0,0,0,0-0.1l-1.9-3.3c0-0.1-0.1-0.1-0.2-0.1c-0.1,0-0.2,0-0.2,0.1l-1.9,3.3c0,0,0,0,0,0.1c0,0.1,0,0.3,0.1,0.3l0.3,0.1
	c0.1,0,0.1,0.1,0.1,0.2l-2,3.4c0,0,0,0.1,0,0.1c0,0.1,0.1,0.3,0.2,0.3l0.5,0.1c0.1,0,0.1,0.1,0.1,0.2l-2.8,4.7c0,0,0,0.1,0,0.1
	c0,0.1,0.1,0.3,0.2,0.3l0.9,0.1c0.2,0,0.1,0.2,0.1,0.3l-3.4,5.8c0,0,0,0.1,0,0.1c0,0.1,0.1,0.3,0.2,0.3h6.8v3.8h1.9v-3.8h6.8
	c0.1,0,0.2-0.1,0.2-0.3C136.2,33.4,136.2,33.4,136.2,33.3z"/>
<path class="st2" d="M85,37.5l-3.4-5.8c0-0.1-0.1-0.2,0.1-0.3l0.9-0.1c0.1,0,0.2-0.1,0.2-0.3c0,0,0-0.1,0-0.1l-2.8-4.7
	c-0.1-0.1,0-0.2,0.1-0.2l0.5-0.1c0.1,0,0.2-0.2,0.2-0.3c0,0,0-0.1,0-0.1l-2-3.4c0-0.1,0-0.2,0.1-0.2l0.3-0.1c0.1,0,0.2-0.2,0.1-0.3
	c0,0,0,0,0-0.1l-1.9-3.3c0-0.1-0.1-0.1-0.2-0.1c-0.1,0-0.2,0-0.2,0.1L75,21.5c0,0,0,0,0,0.1c0,0.1,0,0.3,0.1,0.3l0.3,0.1
	c0.1,0,0.1,0.1,0.1,0.2l-2,3.4c0,0,0,0.1,0,0.1c0,0.1,0.1,0.3,0.2,0.3l0.5,0.1c0.1,0,0.1,0.1,0.1,0.2L71.4,31c0,0,0,0.1,0,0.1
	c0,0.1,0.1,0.3,0.2,0.3l0.9,0.1c0.2,0,0.1,0.2,0.1,0.3l-3.4,5.8c0,0,0,0.1,0,0.1c0,0.1,0.1,0.3,0.2,0.3h6.8v3.8H78v-3.8h6.8
	c0.1,0,0.2-0.1,0.2-0.3C85,37.6,85,37.6,85,37.5z"/>
<path class="st1" d="M66.3,48.3l-3.4-5.8c0-0.1-0.1-0.2,0.1-0.3l0.9-0.1c0.1,0,0.2-0.1,0.2-0.3c0,0,0-0.1,0-0.1l-2.8-4.7
	c-0.1-0.1,0-0.2,0.1-0.2l0.5-0.1c0.1,0,0.2-0.2,0.2-0.3c0,0,0-0.1,0-0.1l-2-3.4c0-0.1,0-0.2,0.1-0.2l0.3-0.1c0.1,0,0.2-0.2,0.1-0.3
	c0,0,0,0,0-0.1L58.6,29c0-0.1-0.1-0.1-0.2-0.1c-0.1,0-0.2,0-0.2,0.1l-1.9,3.3c0,0,0,0,0,0.1c0,0.1,0,0.3,0.1,0.3l0.3,0.1
	c0.1,0,0.1,0.1,0.1,0.2l-2,3.4c0,0,0,0.1,0,0.1c0,0.1,0.1,0.3,0.2,0.3l0.5,0.1c0.1,0,0.1,0.1,0.1,0.2l-2.8,4.7c0,0,0,0.1,0,0.1
	c0,0.1,0.1,0.3,0.2,0.3l0.9,0.1c0.2,0,0.1,0.2,0.1,0.3l-3.4,5.8c0,0,0,0.1,0,0.1c0,0.1,0.1,0.3,0.2,0.3h6.8v3.8h1.9v-3.8h6.8
	c0.1,0,0.2-0.1,0.2-0.3C66.4,48.4,66.4,48.4,66.3,48.3z"/>
<path class="st0" d="M72.6,46.1l-3.4-5.8c0-0.1-0.1-0.2,0.1-0.3l0.9-0.1c0.1,0,0.2-0.1,0.2-0.3c0,0,0-0.1,0-0.1l-2.8-4.7
	c-0.1-0.1,0-0.2,0.1-0.2l0.5-0.1c0.1,0,0.2-0.2,0.2-0.3c0,0,0-0.1,0-0.1l-2-3.4c0-0.1,0-0.2,0.1-0.2l0.3-0.1c0.1,0,0.2-0.2,0.1-0.3
	c0,0,0,0,0-0.1l-1.9-3.3c0-0.1-0.1-0.1-0.2-0.1s-0.2,0-0.2,0.1l-1.9,3.3c0,0,0,0,0,0.1c0,0.1,0,0.3,0.1,0.3l0.3,0.1
	c0.1,0,0.1,0.1,0.1,0.2l-2,3.4c0,0,0,0.1,0,0.1c0,0.1,0.1,0.3,0.2,0.3l0.5,0.1c0.1,0,0.1,0.1,0.1,0.2L59,39.6c0,0,0,0.1,0,0.1
	c0,0.1,0.1,0.3,0.2,0.3l0.9,0.1c0.2,0,0.1,0.2,0.1,0.3l-3.4,5.8c0,0,0,0.1,0,0.1c0,0.1,0.1,0.3,0.2,0.3h6.8v3.8h1.9v-3.8h6.8
	c0.1,0,0.2-0.1,0.2-0.3C72.6,46.2,72.6,46.2,72.6,46.1z"/>
<path class="st0" d="M43.6,46.8L40.1,41c0-0.1-0.1-0.2,0.1-0.3l0.9-0.1c0.1,0,0.2-0.1,0.2-0.3c0,0,0-0.1,0-0.1l-2.8-4.7
	c-0.1-0.1,0-0.2,0.1-0.2l0.5-0.1c0.1,0,0.2-0.2,0.2-0.3c0,0,0-0.1,0-0.1l-2-3.4c0-0.1,0-0.2,0.1-0.2l0.3-0.1c0.1,0,0.2-0.2,0.1-0.3
	c0,0,0,0,0-0.1l-1.9-3.3c0-0.1-0.1-0.1-0.2-0.1c-0.1,0-0.2,0-0.2,0.1l-1.9,3.3c0,0,0,0,0,0.1c0,0.1,0,0.3,0.1,0.3l0.3,0.1
	c0.1,0,0.1,0.1,0.1,0.2l-2,3.4c0,0,0,0.1,0,0.1c0,0.1,0.1,0.3,0.2,0.3l0.5,0.1c0.1,0,0.1,0.1,0.1,0.2L30,40.2c0,0,0,0.1,0,0.1
	c0,0.1,0.1,0.3,0.2,0.3l0.9,0.1c0.2,0,0.1,0.2,0.1,0.3l-3.4,5.8c0,0,0,0.1,0,0.1c0,0.1,0.1,0.3,0.2,0.3h6.8v3.8h1.9v-3.8h6.8
	c0.1,0,0.2-0.1,0.2-0.3C43.6,46.8,43.6,46.8,43.6,46.8z"/>
<path class="st2" d="M24.9,46.8L21.4,41c0-0.1-0.1-0.2,0.1-0.3l0.9-0.1c0.1,0,0.2-0.1,0.2-0.3c0,0,0-0.1,0-0.1l-2.8-4.7
	c-0.1-0.1,0-0.2,0.1-0.2l0.5-0.1c0.1,0,0.2-0.2,0.2-0.3c0,0,0-0.1,0-0.1l-2-3.4c0-0.1,0-0.2,0.1-0.2l0.3-0.1c0.1,0,0.2-0.2,0.1-0.3
	c0,0,0,0,0-0.1l-1.9-3.3c0-0.1-0.1-0.1-0.2-0.1c-0.1,0-0.2,0-0.2,0.1l-1.9,3.3c0,0,0,0,0,0.1c0,0.1,0,0.3,0.1,0.3l0.3,0.1
	c0.1,0,0.1,0.1,0.1,0.2l-2,3.4c0,0,0,0.1,0,0.1c0,0.1,0.1,0.3,0.2,0.3l0.5,0.1c0.1,0,0.1,0.1,0.1,0.2l-2.8,4.7c0,0,0,0.1,0,0.1
	c0,0.1,0.1,0.3,0.2,0.3l0.9,0.1c0.2,0,0.1,0.2,0.1,0.3L9,46.8c0,0,0,0.1,0,0.1c0,0.1,0.1,0.3,0.2,0.3H16v3.8h1.9v-3.8h6.8
	c0.1,0,0.2-0.1,0.2-0.3C24.9,46.8,24.9,46.8,24.9,46.8z"/>
<path class="st0" d="M144.2,49l-3.4-5.8c0-0.1-0.1-0.2,0.1-0.3l0.9-0.1c0.1,0,0.2-0.1,0.2-0.3c0,0,0-0.1,0-0.1l-2.8-4.7
	c-0.1-0.1,0-0.2,0.1-0.2l0.5-0.1c0.1,0,0.2-0.2,0.2-0.3c0,0,0-0.1,0-0.1l-2-3.4c0-0.1,0-0.2,0.1-0.2l0.3-0.1c0.1,0,0.2-0.2,0.1-0.3
	c0,0,0,0,0-0.1l-1.9-3.3c0-0.1-0.1-0.1-0.2-0.1c-0.1,0-0.2,0-0.2,0.1l-1.9,3.3c0,0,0,0,0,0.1c0,0.1,0,0.3,0.1,0.3l0.3,0.1
	c0.1,0,0.1,0.1,0.1,0.2l-2,3.4c0,0,0,0.1,0,0.1c0,0.1,0.1,0.3,0.2,0.3l0.5,0.1c0.1,0,0.1,0.1,0.1,0.2l-2.8,4.7c0,0,0,0.1,0,0.1
	c0,0.1,0.1,0.3,0.2,0.3l0.9,0.1c0.2,0,0.1,0.2,0.1,0.3l-3.4,5.8c0,0,0,0.1,0,0.1c0,0.1,0.1,0.3,0.2,0.3h6.8v3.8h1.9v-3.8h6.8
	c0.1,0,0.2-0.1,0.2-0.3C144.2,49.1,144.2,49.1,144.2,49z"/>
<path class="st1" d="M114.6,51.5l-3.4-5.8c0-0.1-0.1-0.2,0.1-0.3l0.9-0.1c0.1,0,0.2-0.1,0.2-0.3c0,0,0-0.1,0-0.1l-2.8-4.7
	c-0.1-0.1,0-0.2,0.1-0.2l0.5-0.1c0.1,0,0.2-0.2,0.2-0.3c0,0,0-0.1,0-0.1l-2-3.4c0-0.1,0-0.2,0.1-0.2l0.3-0.1c0.1,0,0.2-0.2,0.1-0.3
	c0,0,0,0,0-0.1l-1.9-3.3c0-0.1-0.1-0.1-0.2-0.1s-0.2,0-0.2,0.1l-1.9,3.3c0,0,0,0,0,0.1c0,0.1,0,0.3,0.1,0.3l0.3,0.1
	c0.1,0,0.1,0.1,0.1,0.2l-2,3.4c0,0,0,0.1,0,0.1c0,0.1,0.1,0.3,0.2,0.3l0.5,0.1c0.1,0,0.1,0.1,0.1,0.2l-2.8,4.7c0,0,0,0.1,0,0.1
	c0,0.1,0.1,0.3,0.2,0.3l0.9,0.1c0.2,0,0.1,0.2,0.1,0.3l-3.4,5.8c0,0,0,0.1,0,0.1c0,0.1,0.1,0.3,0.2,0.3h6.8v3.8h1.9v-3.8h6.8
	c0.1,0,0.2-0.1,0.2-0.3C114.6,51.6,114.6,51.5,114.6,51.5z"/>
<path class="st0" d="M58.4,56.9L55,51.2c0-0.1-0.1-0.2,0.1-0.3l0.9-0.1c0.1,0,0.2-0.1,0.2-0.3c0,0,0-0.1,0-0.1l-2.8-4.7
	c-0.1-0.1,0-0.2,0.1-0.2l0.5-0.1c0.1,0,0.2-0.2,0.2-0.3c0,0,0-0.1,0-0.1l-2-3.4c0-0.1,0-0.2,0.1-0.2l0.3-0.1c0.1,0,0.2-0.2,0.1-0.3
	c0,0,0,0,0-0.1l-1.9-3.3c0-0.1-0.1-0.1-0.2-0.1c-0.1,0-0.2,0-0.2,0.1l-1.9,3.3c0,0,0,0,0,0.1c0,0.1,0,0.3,0.1,0.3l0.3,0.1
	c0.1,0,0.1,0.1,0.1,0.2l-2,3.4c0,0,0,0.1,0,0.1c0,0.1,0.1,0.3,0.2,0.3l0.5,0.1c0.1,0,0.1,0.1,0.1,0.2l-2.8,4.7c0,0,0,0.1,0,0.1
	c0,0.1,0.1,0.3,0.2,0.3l0.9,0.1c0.2,0,0.1,0.2,0.1,0.3l-3.4,5.8c0,0,0,0.1,0,0.1c0,0.1,0.1,0.3,0.2,0.3h6.8v3.8h1.9v-3.8h6.8
	c0.1,0,0.2-0.1,0.2-0.3C58.4,57,58.4,57,58.4,56.9z"/>
<path class="st0" d="M90.5,54.1L87,48.3c0-0.1-0.1-0.2,0.1-0.3l0.9-0.1c0.1,0,0.2-0.1,0.2-0.3c0,0,0-0.1,0-0.1l-2.8-4.7
	c-0.1-0.1,0-0.2,0.1-0.2l0.5-0.1c0.1,0,0.2-0.2,0.2-0.3c0,0,0-0.1,0-0.1l-2-3.4c0-0.1,0-0.2,0.1-0.2l0.3-0.1c0.1,0,0.2-0.2,0.1-0.3
	c0,0,0,0,0-0.1l-1.9-3.3c0-0.1-0.1-0.1-0.2-0.1s-0.2,0-0.2,0.1L80.4,38c0,0,0,0,0,0.1c0,0.1,0,0.3,0.1,0.3l0.3,0.1
	c0.1,0,0.1,0.1,0.1,0.2l-2,3.4c0,0,0,0.1,0,0.1c0,0.1,0.1,0.3,0.2,0.3l0.5,0.1c0.1,0,0.1,0.1,0.1,0.2l-2.8,4.7c0,0,0,0.1,0,0.1
	c0,0.1,0.1,0.3,0.2,0.3l0.9,0.1c0.2,0,0.1,0.2,0.1,0.3l-3.4,5.8c0,0,0,0.1,0,0.1c0,0.1,0.1,0.3,0.2,0.3h6.8v3.8h1.9v-3.8h6.8
	c0.1,0,0.2-0.1,0.2-0.3C90.5,54.1,90.5,54.1,90.5,54.1z"/>
<path class="st1" d="M32.8,57.9l-3.4-5.8c0-0.1-0.1-0.2,0.1-0.3l0.9-0.1c0.1,0,0.2-0.1,0.2-0.3c0,0,0-0.1,0-0.1l-2.8-4.7
	c-0.1-0.1,0-0.2,0.1-0.2l0.5-0.1c0.1,0,0.2-0.2,0.2-0.3c0,0,0-0.1,0-0.1l-2-3.4c0-0.1,0-0.2,0.1-0.2l0.3-0.1c0.1,0,0.2-0.2,0.1-0.3
	c0,0,0,0,0-0.1l-1.9-3.3c0-0.1-0.1-0.1-0.2-0.1c-0.1,0-0.2,0-0.2,0.1l-1.9,3.3c0,0,0,0,0,0.1c0,0.1,0,0.3,0.1,0.3l0.3,0.1
	c0.1,0,0.1,0.1,0.1,0.2l-2,3.4c0,0,0,0.1,0,0.1c0,0.1,0.1,0.3,0.2,0.3l0.5,0.1c0.1,0,0.1,0.1,0.1,0.2l-2.8,4.7c0,0,0,0.1,0,0.1
	c0,0.1,0.1,0.3,0.2,0.3l0.9,0.1c0.2,0,0.1,0.2,0.1,0.3L17,57.9c0,0,0,0.1,0,0.1c0,0.1,0.1,0.3,0.2,0.3H24v3.8h1.9v-3.8h6.8
	c0.1,0,0.2-0.1,0.2-0.3C32.9,58,32.9,58,32.8,57.9z"/>
<path class="st1" d="M132.1,54.1l-3.4-5.8c0-0.1-0.1-0.2,0.1-0.3l0.9-0.1c0.1,0,0.2-0.1,0.2-0.3c0,0,0-0.1,0-0.1l-2.8-4.7
	c-0.1-0.1,0-0.2,0.1-0.2l0.5-0.1c0.1,0,0.2-0.2,0.2-0.3c0,0,0-0.1,0-0.1l-2-3.4c0-0.1,0-0.2,0.1-0.2l0.3-0.1c0.1,0,0.2-0.2,0.1-0.3
	c0,0,0,0,0-0.1l-1.9-3.3c0-0.1-0.1-0.1-0.2-0.1s-0.2,0-0.2,0.1l-1.9,3.3c0,0,0,0,0,0.1c0,0.1,0,0.3,0.1,0.3l0.3,0.1
	c0.1,0,0.1,0.1,0.1,0.2l-2,3.4c0,0,0,0.1,0,0.1c0,0.1,0.1,0.3,0.2,0.3l0.5,0.1c0.1,0,0.1,0.1,0.1,0.2l-2.8,4.7c0,0,0,0.1,0,0.1
	c0,0.1,0.1,0.3,0.2,0.3l0.9,0.1c0.2,0,0.1,0.2,0.1,0.3l-3.4,5.8c0,0,0,0.1,0,0.1c0,0.1,0.1,0.3,0.2,0.3h6.8v3.8h1.9v-3.8h6.8
	c0.1,0,0.2-0.1,0.2-0.3C132.2,54.1,132.2,54.1,132.1,54.1z"/>
<title>large</title>
<path class="st2" d="M26,77.7l-3.4-5.8c0-0.1-0.1-0.2,0.1-0.3l0.9-0.1c0.1,0,0.2-0.1,0.2-0.3c0,0,0-0.1,0-0.1L21,66.4
	c-0.1-0.1,0-0.2,0.1-0.2l0.5-0.1c0.1,0,0.2-0.2,0.2-0.3c0,0,0-0.1,0-0.1l-2-3.4c0-0.1,0-0.2,0.1-0.2l0.3-0.1c0.1,0,0.2-0.2,0.1-0.3
	c0,0,0,0,0-0.1l-1.9-3.3c0-0.1-0.1-0.1-0.2-0.1c-0.1,0-0.2,0-0.2,0.1L16,61.6c0,0,0,0,0,0.1c0,0.1,0,0.3,0.1,0.3l0.3,0.1
	c0.1,0,0.1,0.1,0.1,0.2l-2,3.4c0,0,0,0.1,0,0.1c0,0.1,0.1,0.3,0.2,0.3l0.5,0.1c0.1,0,0.1,0.1,0.1,0.2l-2.8,4.7c0,0,0,0.1,0,0.1
	c0,0.1,0.1,0.3,0.2,0.3l0.9,0.1c0.2,0,0.1,0.2,0.1,0.3l-3.4,5.8c0,0,0,0.1,0,0.1c0,0.1,0.1,0.3,0.2,0.3h6.8v3.8H19v-3.8h6.8
	c0.1,0,0.2-0.1,0.2-0.3C26.1,77.7,26.1,77.7,26,77.7z"/>
<path class="st0" d="M103.9,65.9l-3.4-5.8c0-0.1-0.1-0.2,0.1-0.3l0.9-0.1c0.1,0,0.2-0.1,0.2-0.3c0,0,0-0.1,0-0.1l-2.8-4.7
	c-0.1-0.1,0-0.2,0.1-0.2l0.5-0.1c0.1,0,0.2-0.2,0.2-0.3c0,0,0-0.1,0-0.1l-2-3.4c0-0.1,0-0.2,0.1-0.2l0.3-0.1c0.1,0,0.2-0.2,0.1-0.3
	c0,0,0,0,0-0.1l-1.9-3.3c0-0.1-0.1-0.1-0.2-0.1s-0.2,0-0.2,0.1l-1.9,3.3c0,0,0,0,0,0.1c0,0.1,0,0.3,0.1,0.3l0.3,0.1
	c0.1,0,0.1,0.1,0.1,0.2l-2,3.4c0,0,0,0.1,0,0.1c0,0.1,0.1,0.3,0.2,0.3l0.5,0.1c0.1,0,0.1,0.1,0.1,0.2l-2.8,4.7c0,0,0,0.1,0,0.1
	c0,0.1,0.1,0.3,0.2,0.3l0.9,0.1c0.2,0,0.1,0.2,0.1,0.3L88,65.9c0,0,0,0.1,0,0.1c0,0.1,0.1,0.3,0.2,0.3H95V70h1.9v-3.8h6.8
	c0.1,0,0.2-0.1,0.2-0.3C103.9,65.9,103.9,65.9,103.9,65.9z"/>
<path class="st2" d="M64.6,77.7l-3.4-5.8c0-0.1-0.1-0.2,0.1-0.3l0.9-0.1c0.1,0,0.2-0.1,0.2-0.3c0,0,0-0.1,0-0.1l-2.8-4.7
	c-0.1-0.1,0-0.2,0.1-0.2l0.5-0.1c0.1,0,0.2-0.2,0.2-0.3c0,0,0-0.1,0-0.1l-2-3.4c0-0.1,0-0.2,0.1-0.2l0.3-0.1c0.1,0,0.2-0.2,0.1-0.3
	c0,0,0,0,0-0.1l-1.9-3.3c0-0.1-0.1-0.1-0.2-0.1c-0.1,0-0.2,0-0.2,0.1l-1.9,3.3c0,0,0,0,0,0.1c0,0.1,0,0.3,0.1,0.3l0.3,0.1
	c0.1,0,0.1,0.1,0.1,0.2l-2,3.4c0,0,0,0.1,0,0.1c0,0.1,0.1,0.3,0.2,0.3l0.5,0.1c0.1,0,0.1,0.1,0.1,0.2L51,71.1c0,0,0,0.1,0,0.1
	c0,0.1,0.1,0.3,0.2,0.3l0.9,0.1c0.2,0,0.1,0.2,0.1,0.3l-3.4,5.8c0,0,0,0.1,0,0.1c0,0.1,0.1,0.3,0.2,0.3h6.8v3.8h1.9v-3.8h6.8
	c0.1,0,0.2-0.1,0.2-0.3C64.6,77.7,64.6,77.7,64.6,77.7z"/>
<path class="st1" d="M74.5,69.7L71.1,64c0-0.1-0.1-0.2,0.1-0.3l0.9-0.1c0.1,0,0.2-0.1,0.2-0.3c0,0,0-0.1,0-0.1l-2.8-4.7
	c-0.1-0.1,0-0.2,0.1-0.2l0.5-0.1c0.1,0,0.2-0.2,0.2-0.3c0,0,0-0.1,0-0.1l-2-3.4c0-0.1,0-0.2,0.1-0.2l0.3-0.1c0.1,0,0.2-0.2,0.1-0.3
	c0,0,0,0,0-0.1l-1.9-3.3c0-0.1-0.1-0.1-0.2-0.1s-0.2,0-0.2,0.1l-1.9,3.3c0,0,0,0,0,0.1c0,0.1,0,0.3,0.1,0.3l0.3,0.1
	c0.1,0,0.1,0.1,0.1,0.2l-2,3.4c0,0,0,0.1,0,0.1c0,0.1,0.1,0.3,0.2,0.3l0.5,0.1c0.1,0,0.1,0.1,0.1,0.2l-2.8,4.7c0,0,0,0.1,0,0.1
	c0,0.1,0.1,0.3,0.2,0.3l0.9,0.1c0.2,0,0.1,0.2,0.1,0.3l-3.4,5.8c0,0,0,0.1,0,0.1c0,0.1,0.1,0.3,0.2,0.3h6.8v3.8h1.9v-3.8h6.8
	c0.1,0,0.2-0.1,0.2-0.3C74.6,69.8,74.5,69.8,74.5,69.7z"/>
<path class="st0" d="M16.9,78.6l-3.4-5.8c0-0.1-0.1-0.2,0.1-0.3l0.9-0.1c0.1,0,0.2-0.1,0.2-0.3c0,0,0-0.1,0-0.1l-2.8-4.7
	c-0.1-0.1,0-0.2,0.1-0.2l0.5-0.1c0.1,0,0.2-0.2,0.2-0.3c0,0,0-0.1,0-0.1l-2-3.4c0-0.1,0-0.2,0.1-0.2L11,63c0.1,0,0.2-0.2,0.1-0.3
	c0,0,0,0,0-0.1l-1.9-3.3c0-0.1-0.1-0.1-0.2-0.1c-0.1,0-0.2,0-0.2,0.1l-1.9,3.3c0,0,0,0,0,0.1c0,0.1,0,0.3,0.1,0.3l0.3,0.1
	c0.1,0,0.1,0.1,0.1,0.2l-2,3.4c0,0,0,0.1,0,0.1c0,0.1,0.1,0.3,0.2,0.3L6,67.1c0.1,0,0.1,0.1,0.1,0.2l-2.8,4.7c0,0,0,0.1,0,0.1
	c0,0.1,0.1,0.3,0.2,0.3l0.9,0.1c0.2,0,0.1,0.2,0.1,0.3L1,78.6c0,0,0,0.1,0,0.1C1,78.9,1.1,79,1.2,79H8v3.8h1.9V79h6.8
	c0.1,0,0.2-0.1,0.2-0.3C16.9,78.7,16.9,78.7,16.9,78.6z"/>
<path class="st1" d="M47.7,69.7L44.3,64c0-0.1-0.1-0.2,0.1-0.3l0.9-0.1c0.1,0,0.2-0.1,0.2-0.3c0,0,0-0.1,0-0.1l-2.8-4.7
	c-0.1-0.1,0-0.2,0.1-0.2l0.5-0.1c0.1,0,0.2-0.2,0.2-0.3c0,0,0-0.1,0-0.1l-2-3.4c0-0.1,0-0.2,0.1-0.2l0.3-0.1c0.1,0,0.2-0.2,0.1-0.3
	c0,0,0,0,0-0.1L40,50.4c0-0.1-0.1-0.1-0.2-0.1c-0.1,0-0.2,0-0.2,0.1l-1.9,3.3c0,0,0,0,0,0.1c0,0.1,0,0.3,0.1,0.3l0.3,0.1
	c0.1,0,0.1,0.1,0.1,0.2l-2,3.4c0,0,0,0.1,0,0.1c0,0.1,0.1,0.3,0.2,0.3l0.5,0.1c0.1,0,0.1,0.1,0.1,0.2l-2.8,4.7c0,0,0,0.1,0,0.1
	c0,0.1,0.1,0.3,0.2,0.3l0.9,0.1c0.2,0,0.1,0.2,0.1,0.3l-3.4,5.8c0,0,0,0.1,0,0.1c0,0.1,0.1,0.3,0.2,0.3h6.8v3.8h1.9v-3.8h6.8
	c0.1,0,0.2-0.1,0.2-0.3C47.7,69.8,47.7,69.8,47.7,69.7z"/>
<path class="st0" d="M54.6,78.6l-3.4-5.8c0-0.1-0.1-0.2,0.1-0.3l0.9-0.1c0.1,0,0.2-0.1,0.2-0.3c0,0,0-0.1,0-0.1l-2.8-4.7
	c-0.1-0.1,0-0.2,0.1-0.2l0.5-0.1c0.1,0,0.2-0.2,0.2-0.3c0,0,0-0.1,0-0.1l-2-3.4c0-0.1,0-0.2,0.1-0.2l0.3-0.1c0.1,0,0.2-0.2,0.1-0.3
	c0,0,0,0,0-0.1l-1.9-3.3c0-0.1-0.1-0.1-0.2-0.1s-0.2,0-0.2,0.1l-1.9,3.3c0,0,0,0,0,0.1c0,0.1,0,0.3,0.1,0.3l0.3,0.1
	c0.1,0,0.1,0.1,0.1,0.2l-2,3.4c0,0,0,0.1,0,0.1c0,0.1,0.1,0.3,0.2,0.3l0.5,0.1c0.1,0,0.1,0.1,0.1,0.2L41,72.1c0,0,0,0.1,0,0.1
	c0,0.1,0.1,0.3,0.2,0.3l0.9,0.1c0.2,0,0.1,0.2,0.1,0.3l-3.4,5.8c0,0,0,0.1,0,0.1c0,0.1,0.1,0.3,0.2,0.3h6.8v3.8h1.9V79h6.8
	c0.1,0,0.2-0.1,0.2-0.3C54.6,78.7,54.6,78.7,54.6,78.6z"/>
<path class="st2" d="M101.3,74.3l-3.4-5.8c0-0.1-0.1-0.2,0.1-0.3l0.9-0.1c0.1,0,0.2-0.1,0.2-0.3c0,0,0-0.1,0-0.1L96.3,63
	c-0.1-0.1,0-0.2,0.1-0.2l0.5-0.1c0.1,0,0.2-0.2,0.2-0.3c0,0,0-0.1,0-0.1l-2-3.4c0-0.1,0-0.2,0.1-0.2l0.3-0.1c0.1,0,0.2-0.2,0.1-0.3
	c0,0,0,0,0-0.1L93.6,55c0-0.1-0.1-0.1-0.2-0.1c-0.1,0-0.2,0-0.2,0.1l-1.9,3.3c0,0,0,0,0,0.1c0,0.1,0,0.3,0.1,0.3l0.3,0.1
	c0.1,0,0.1,0.1,0.1,0.2l-2,3.4c0,0,0,0.1,0,0.1c0,0.1,0.1,0.3,0.2,0.3l0.5,0.1c0.1,0,0.1,0.1,0.1,0.2l-2.8,4.7c0,0,0,0.1,0,0.1
	c0,0.1,0.1,0.3,0.2,0.3l0.9,0.1c0.2,0,0.1,0.2,0.1,0.3l-3.4,5.8c0,0,0,0.1,0,0.1c0,0.1,0.1,0.3,0.2,0.3h6.8v3.8h1.9v-3.8h6.8
	c0.1,0,0.2-0.1,0.2-0.3C101.4,74.4,101.4,74.3,101.3,74.3z"/>
<path class="st2" d="M122.5,75.1l-3.4-5.8c0-0.1-0.1-0.2,0.1-0.3l0.9-0.1c0.1,0,0.2-0.1,0.2-0.3c0,0,0-0.1,0-0.1l-2.8-4.7
	c-0.1-0.1,0-0.2,0.1-0.2l0.5-0.1c0.1,0,0.2-0.2,0.2-0.3c0,0,0-0.1,0-0.1l-2-3.4c0-0.1,0-0.2,0.1-0.2l0.3-0.1c0.1,0,0.2-0.2,0.1-0.3
	c0,0,0,0,0-0.1l-1.9-3.3c0-0.1-0.1-0.1-0.2-0.1c-0.1,0-0.2,0-0.2,0.1l-1.9,3.3c0,0,0,0,0,0.1c0,0.1,0,0.3,0.1,0.3l0.3,0.1
	c0.1,0,0.1,0.1,0.1,0.2l-2,3.4c0,0,0,0.1,0,0.1c0,0.1,0.1,0.3,0.2,0.3l0.5,0.1c0.1,0,0.1,0.1,0.1,0.2l-2.8,4.7c0,0,0,0.1,0,0.1
	c0,0.1,0.1,0.3,0.2,0.3L110,69c0.2,0,0.1,0.2,0.1,0.3l-3.4,5.8c0,0,0,0.1,0,0.1c0,0.1,0.1,0.3,0.2,0.3h6.8v3.8h1.9v-3.8h6.8
	c0.1,0,0.2-0.1,0.2-0.3C122.6,75.2,122.6,75.1,122.5,75.1z"/>
<path class="st1" d="M153.2,72.9l-3.4-5.8c0-0.1-0.1-0.2,0.1-0.3l0.9-0.1c0.1,0,0.2-0.1,0.2-0.3c0,0,0-0.1,0-0.1l-2.8-4.7
	c-0.1-0.1,0-0.2,0.1-0.2l0.5-0.1c0.1,0,0.2-0.2,0.2-0.3c0,0,0-0.1,0-0.1l-2-3.4c0-0.1,0-0.2,0.1-0.2l0.3-0.1c0.1,0,0.2-0.2,0.1-0.3
	c0,0,0,0,0-0.1l-1.9-3.3c0-0.1-0.1-0.1-0.2-0.1c-0.1,0-0.2,0-0.2,0.1l-1.9,3.3c0,0,0,0,0,0.1c0,0.1,0,0.3,0.1,0.3l0.3,0.1
	c0.1,0,0.1,0.1,0.1,0.2l-2,3.4c0,0,0,0.1,0,0.1c0,0.1,0.1,0.3,0.2,0.3l0.5,0.1c0.1,0,0.1,0.1,0.1,0.2l-2.8,4.7c0,0,0,0.1,0,0.1
	c0,0.1,0.1,0.3,0.2,0.3l0.9,0.1c0.2,0,0.1,0.2,0.1,0.3l-3.4,5.8c0,0,0,0.1,0,0.1c0,0.1,0.1,0.3,0.2,0.3h6.8v3.8h1.9v-3.8h6.8
	c0.1,0,0.2-0.1,0.2-0.3C153.2,73,153.2,73,153.2,72.9z"/>
<path class="st0" d="M137.3,69.7l-3.4-5.8c0-0.1-0.1-0.2,0.1-0.3l0.9-0.1c0.1,0,0.2-0.1,0.2-0.3c0,0,0-0.1,0-0.1l-2.8-4.7
	c-0.1-0.1,0-0.2,0.1-0.2l0.5-0.1c0.1,0,0.2-0.2,0.2-0.3c0,0,0-0.1,0-0.1l-2-3.4c0-0.1,0-0.2,0.1-0.2l0.3-0.1c0.1,0,0.2-0.2,0.1-0.3
	c0,0,0,0,0-0.1l-1.9-3.3c0-0.1-0.1-0.1-0.2-0.1c-0.1,0-0.2,0-0.2,0.1l-1.9,3.3c0,0,0,0,0,0.1c0,0.1,0,0.3,0.1,0.3l0.3,0.1
	c0.1,0,0.1,0.1,0.1,0.2l-2,3.4c0,0,0,0.1,0,0.1c0,0.1,0.1,0.3,0.2,0.3l0.5,0.1c0.1,0,0.1,0.1,0.1,0.2l-2.8,4.7c0,0,0,0.1,0,0.1
	c0,0.1,0.1,0.3,0.2,0.3l0.9,0.1c0.2,0,0.1,0.2,0.1,0.3l-3.4,5.8c0,0,0,0.1,0,0.1c0,0.1,0.1,0.3,0.2,0.3h6.8v3.8h1.9v-3.8h6.8
	c0.1,0,0.2-0.1,0.2-0.3C137.4,69.8,137.4,69.8,137.3,69.7z"/>
<path class="st0" d="M94.4,78.6L91,72.9c0-0.1-0.1-0.2,0.1-0.3l0.9-0.1c0.1,0,0.2-0.1,0.2-0.3c0,0,0-0.1,0-0.1l-2.8-4.7
	c-0.1-0.1,0-0.2,0.1-0.2l0.5-0.1c0.1,0,0.2-0.2,0.2-0.3c0,0,0-0.1,0-0.1l-2-3.4c0-0.1,0-0.2,0.1-0.2l0.3-0.1c0.1,0,0.2-0.2,0.1-0.3
	c0,0,0,0,0-0.1l-1.9-3.3c0-0.1-0.1-0.1-0.2-0.1s-0.2,0-0.2,0.1l-1.9,3.3c0,0,0,0,0,0.1c0,0.1,0,0.3,0.1,0.3l0.3,0.1
	c0.1,0,0.1,0.1,0.1,0.2l-2,3.4c0,0,0,0.1,0,0.1c0,0.1,0.1,0.3,0.2,0.3l0.5,0.1c0.1,0,0.1,0.1,0.1,0.2l-2.8,4.7c0,0,0,0.1,0,0.1
	c0,0.1,0.1,0.3,0.2,0.3l0.9,0.1c0.2,0,0.1,0.2,0.1,0.3l-3.4,5.8c0,0,0,0.1,0,0.1c0,0.1,0.1,0.3,0.2,0.3h6.8v3.8h1.9V79h6.8
	c0.1,0,0.2-0.1,0.2-0.3C94.5,78.7,94.5,78.7,94.4,78.6z"/>
<path class="st0" d="M34,74.3l-3.4-5.8c0-0.1-0.1-0.2,0.1-0.3l0.9-0.1c0.1,0,0.2-0.1,0.2-0.3c0,0,0-0.1,0-0.1L29,63
	c-0.1-0.1,0-0.2,0.1-0.2l0.5-0.1c0.1,0,0.2-0.2,0.2-0.3c0,0,0-0.1,0-0.1l-2-3.4c0-0.1,0-0.2,0.1-0.2l0.3-0.1c0.1,0,0.2-0.2,0.1-0.3
	c0,0,0,0,0-0.1L26.3,55c0-0.1-0.1-0.1-0.2-0.1c-0.1,0-0.2,0-0.2,0.1L24,58.3c0,0,0,0,0,0.1c0,0.1,0,0.3,0.1,0.3l0.3,0.1
	c0.1,0,0.1,0.1,0.1,0.2l-2,3.4c0,0,0,0.1,0,0.1c0,0.1,0.1,0.3,0.2,0.3l0.5,0.1c0.1,0,0.1,0.1,0.1,0.2l-2.8,4.7c0,0,0,0.1,0,0.1
	c0,0.1,0.1,0.3,0.2,0.3l0.9,0.1c0.2,0,0.1,0.2,0.1,0.3l-3.4,5.8c0,0,0,0.1,0,0.1c0,0.1,0.1,0.3,0.2,0.3h6.8v3.8H27v-3.8h6.8
	c0.1,0,0.2-0.1,0.2-0.3C34,74.4,34,74.3,34,74.3z"/>
</svg>
