<?xml version="1.0" encoding="utf-8"?>
<!-- Generator: Adobe Illustrator 19.2.1, SVG Export Plug-In . SVG Version: 6.00 Build 0)  -->
<svg version="1.1" id="Ebene_1" xmlns="http://www.w3.org/2000/svg" xmlns:xlink="http://www.w3.org/1999/xlink" x="0px" y="0px"
	 viewBox="0 0 93.5 55.9" style="enable-background:new 0 0 93.5 55.9;" xml:space="preserve">
<style type="text/css">
	.st0{fill:#DAD6D5;}
</style>
<title>middle</title>
<path class="st0" d="M47.1,37.1c-0.1-0.1-0.1-0.2,0-0.3c0.1-0.1,0.4-0.2,0.6-0.3c0.1-0.1,0.1,0,0.3,0s0.5,0.3,0.7,0s0.7-0.4,0.9-0.4
	c0.3,0,0.6-0.1,0.9-0.3c0.3-0.1,0.8-0.3,1.1-0.5c0.3-0.2,0.2-0.3-0.2-0.3c-0.3,0-1.5,0.2-2.4,0.3c-1,0.1-1.2,0-1.7-0.4
	c-0.2-0.2-0.3-0.2-0.6-0.2c-2.1,0.4-4.1,0.3-6.8-0.3c-0.7,0.8-2.8,1.4-4.6,1.8c-1,0.2-1.1,0.4-1.7,1c-0.3,0.3-1.3,1.6-1.6,1.9
	c-0.1,0.2-0.4,0.3-0.6,0.4s-0.4,0.2-0.6,0.3c-0.1,0.1-0.8,0.4-0.9,0.5c-0.1,0.1-0.3,0-0.3,0c-0.1-0.1,0.1-0.6,0.3-0.7
	c0.1-0.1,0.4-0.3,0.7-0.3c0.3,0,0.4-0.1,0.5-0.3c0-0.2,0.1-0.3,0.4-0.4c0.3-0.1,1.1-0.9,1.2-1.3c-0.3,0.2-1.3,1-1.4,1.2
	s-0.4,0.3-0.6,0.4c-0.2,0-0.9,0.3-1.1,0.5c-0.1,0.1-0.3,0-0.3-0.1c0-0.2,0.1-0.4,0.3-0.6c0.2-0.2,0.6-0.3,0.7-0.2
	c0.2,0.1,0.2,0.1,0.3-0.2c0.1-0.3,0.7-0.5,0.8-0.6c0.7-0.6,1.2-1.1,1.6-1.7c0.1-0.1,0.1-0.3,0.2-0.3c0.1-0.1,0.1-0.1,0.2-0.2
	c0.1-0.3,0.2-0.3,0.5-0.3c1.9,0,2.6-0.7,2.7-1.4c0.3-1.5,0.6-2.5,1.3-3c0.2-0.1,0.2-0.1,0-0.2c-0.9-0.5-0.9-1.1-0.3-2.2
	c0.2-0.3,0.3-0.3,0.3,0s0,0.8,0.1,1.2c0.1,0.3,0.4,0.7,0.9,0.7c0.5,0,1.6-0.1,2.2-0.1c0.6,0,2.9,0.1,3.8,0c1.6-0.2,2.6-0.7,2.3-2.1
	c-0.1-0.6-0.4-2.3-0.3-3c0-0.2,0-0.2-0.1-0.3c-0.1-0.2-0.3-0.2-0.3-0.3c-0.2-0.2-0.5-0.5-0.6-0.8c-0.1-0.3,0-0.4,0.1-0.3
	c0.1,0,0.2,0,0.2,0c-0.6-0.6-0.9-1.2-1.2-1.9c-0.2-0.5-0.9-1.2-1.1-1.4c-0.1-0.2-0.2-0.3-0.2-0.5s0.2-0.2,0.2,0
	c0,0.1,0.1,0.3,0.3,0.4c0.2,0.2,0.8,0.7,0.8,0.8s0.1,0.1,0.1,0c0.2-0.4,0.6-0.9,1-1.2c0.1-0.1,0.1-0.3,0.2-0.3
	c0.1-0.5,0-0.8-0.3-1.2c-0.1-0.1,0-0.3,0.2-0.1c0.3,0.3,0.5,0.7,0.5,1.2c0,0.1,0,0.2,0.1,0.1c0.2-0.1,0.5-0.3,0.7-0.5
	c0.1-0.1,0.1-0.1,0.1-0.2c0-0.2,0-0.3,0-0.4c0-0.1,0-0.1,0-0.1c0,0,0.2,0.3,0.2,0.3c0,0,0.1,0,0.1,0c0.3-0.3,0.5-0.7,0.5-0.9
	c0-0.2,0.2-0.2,0.2,0c-0.1,1.2-1.9,2.1-2.7,2.9c-0.4,0.4-0.3,1-0.2,1.5c0.1,0.3,0.6,0.9,1,1.2c0,0,0,0,0.1,0c0-0.2,0-0.3-0.1-0.6
	c0,0,0-0.2,0-0.3c0-0.1,0-0.1,0-0.3c-0.2-0.9,0-1.4,0.2-2.2c0.2-0.5,0.1-1.4,0-1.7c0-0.2,0.1-0.2,0.2,0c0.1,0.3,0.2,0.8,0.2,1.3
	c0,0.1,0.1,0.1,0.2,0c0.3-0.2,0.7-0.5,0.9-0.6c0.2-0.3,0.2-0.6,0.2-0.8c0.1-0.1,0.1-0.1,0.3,0c0.1,0.1,0.2,0.4,0.2,0.5
	c0,0.1,0,0.1,0.1,0c0.5-0.3,0.7-0.8,0.7-1.3c0-0.3,0.2-0.2,0.2,0c0.1,0.8-0.7,1.8-1.3,2.2c-0.8,0.5-1.3,1-1.4,1.6
	c0,0.5,0.1,1.2,0.3,1.6c0,0,0,0.1,0.1,0c0.1-0.2,0.1-0.5,0-0.7c0-0.1,0-0.2,0.1-0.1c0.1,0.1,0.2,0.3,0.1,0.9c0,0.2,0,0.3,0.2,0.4
	c0.1,0.1,0.2,0.1,0.3,0c0.1,0,0.2-0.1,0.3,0.1c0.1,0.2,0.2,0.3,0.4,0.3c0.3,0,0.6,0,0.7,0.1c0.2,0.2,0.2,0.2,0.5,0.2
	c0.3,0,0.6,0,0.7,0s0.2,0.1,0.3,0.1c0.2,0,0.4,0,0.5,0.1c0.1,0.1,0.3,0.3,0.3,0.4c0,0.1,0,0.1,0,0.2c0,0,0,0,0,0.1
	c0,0.2-0.2,0.3-0.4,0.3c-0.3,0-0.9,0.2-1,0.3c-0.1,0.1-0.4,0.3-0.6,0.3c-0.2,0-0.2,0.3-0.1,0.6c0.5,1.3,0.7,2.5,0.8,3.4
	c0,0.7,0.1,1.6,0,2.3c0,0.3-0.1,0.3,0,0.6c0.1,0.3,0,0.6-0.1,0.7c0,0.1,0,0.1,0.1,0.1c0.3,0,2,0.2,2.3,0.2c0.2,0,0.3,0,0.3,0.2
	c0,0.1,0.1,0.3,0.2,0.5c0,0.2-0.1,0.3-0.1,0.6c0,0.2-0.3,0.5-0.9,0.8c-0.3,0.1-0.6,0.4-0.7,0.5c-0.2,0.1-0.6,0.4-0.8,0.5
	c-0.1,0.1-0.3,0.3-0.5,0.3c-0.1,0-0.2,0-0.4,0.2s-0.9,0.3-1.2,0.3c-0.4,0-1.4,0-1.6,0c-0.3,0-0.2-0.2-0.1-0.3
	C46.9,37.2,47.1,37.1,47.1,37.1z"/>
</svg>
