<?xml version="1.0" encoding="utf-8"?>
<!-- Generator: Adobe Illustrator 19.2.1, SVG Export Plug-In . SVG Version: 6.00 Build 0)  -->
<svg version="1.1" id="Ebene_1" xmlns="http://www.w3.org/2000/svg" xmlns:xlink="http://www.w3.org/1999/xlink" x="0px" y="0px"
	 viewBox="0 0 93.5 55.9" style="enable-background:new 0 0 93.5 55.9;" xml:space="preserve">
<style type="text/css">
	.st0{fill:#DAD6D5;}
	.st1{fill:#B5B4B4;}
	.st2{fill:#CCC7C5;}
</style>
<path class="st0" d="M257.4-20.6l-3.5-5.8c0-0.1-0.1-0.2,0.1-0.3l0.9-0.1c0.1,0,0.2-0.1,0.2-0.3v-0.1l-2.8-4.7
	c-0.1-0.1,0-0.2,0.1-0.2l0.5-0.1c0.1,0,0.2-0.2,0.2-0.3v-0.1l-2-3.4c0-0.1,0-0.2,0.1-0.2l0.3-0.1c0.1,0,0.2-0.2,0.1-0.3
	c0,0,0,0,0-0.1l-1.9-3.3c0-0.1-0.1-0.1-0.2-0.1s-0.2,0-0.2,0.1l-1.9,3.3c0,0,0,0,0,0.1c0,0.1,0,0.3,0.1,0.3l0.2,0.1
	c0.1,0,0.1,0.1,0.1,0.2l-2,3.4v0.1c0,0.1,0.1,0.3,0.2,0.3l0.5,0.1c0.1,0,0.1,0.1,0.1,0.2l-2.8,4.7v0.1c0,0.1,0.1,0.3,0.2,0.3
	l0.9,0.1c0.2,0,0.1,0.2,0.1,0.3l-3.4,5.8v0.1c0,0.1,0.1,0.3,0.2,0.3h6.8v3.8h1.9v-3.8h6.8c0.1,0,0.2-0.1,0.2-0.3
	C257.4-20.5,257.4-20.6,257.4-20.6z"/>
<path class="st0" d="M274.2-25.2l-3.4-5.8c0-0.1-0.1-0.2,0.1-0.3l0.9-0.1c0.1,0,0.2-0.1,0.2-0.3v-0.1l-2.8-4.7
	c-0.1-0.1,0-0.2,0.1-0.2l0.5-0.1c0.1,0,0.2-0.2,0.2-0.3v-0.1l-2-3.4c0-0.1,0-0.2,0.1-0.2l0.3-0.1c0.1,0,0.2-0.2,0.1-0.3
	c0,0,0,0,0-0.1l-1.9-3.3c0-0.1-0.1-0.1-0.2-0.1s-0.2,0-0.2,0.1l-1.9,3.3c0,0,0,0,0,0.1c0,0.1,0,0.3,0.1,0.3l0.3,0.1c0,0,0,0.1,0,0.2
	l-2,3.4v0.1c0,0.1,0.1,0.3,0.2,0.3l0.5,0.1c0.1,0,0.1,0.1,0.1,0.2l-2.8,4.8v0.1c0,0.1,0.1,0.3,0.2,0.3l0.9,0.1
	c0.2,0,0.1,0.2,0.1,0.3l-3.4,5.8v0.1c0,0.1,0.1,0.3,0.2,0.3h6.8v3.8h1.9v-3.8h6.8c0.1,0,0.2-0.1,0.2-0.3
	C274.3-25.1,274.3-25.2,274.2-25.2z"/>
<path class="st0" d="M287-13.4l-3.4-5.8c0-0.1-0.1-0.2,0.1-0.3l0.9-0.1c0.1,0,0.2-0.1,0.2-0.3V-20l-2.8-4.7c-0.1-0.1,0-0.2,0.1-0.2
	l0.5-0.1c0.1,0,0.2-0.2,0.2-0.3v-0.1l-2-3.4c0-0.1,0-0.2,0.1-0.2l0.3-0.1c0.1,0,0.2-0.2,0.1-0.3c0,0,0,0,0-0.1l-1.9-3.3
	c0-0.1-0.1-0.1-0.2-0.1c-0.1,0-0.2,0-0.2,0.1l-2,3.4c0,0,0,0,0,0.1s0,0.3,0.1,0.3l0.3,0.1c0.1,0,0.1,0.1,0.1,0.2l-2,3.4v0.1
	c0,0.1,0.1,0.3,0.2,0.3l0.5,0.1c0.1,0,0.1,0.1,0.1,0.2l-2.8,4.7v0.1c0,0.1,0.1,0.3,0.2,0.3l0.9,0.1c0.2,0,0.1,0.2,0.1,0.3l-3.6,5.7
	v0.1c0,0.1,0.1,0.3,0.2,0.3h6.8v3.8h1.9V-13h6.8c0.1,0,0.2-0.1,0.2-0.3C287-13.3,287-13.4,287-13.4z"/>
<path class="st1" d="M235.7-11.1l-3.4-5.8c0-0.1-0.1-0.2,0.1-0.3l0.9-0.1c0.1,0,0.2-0.1,0.2-0.3v-0.1l-2.8-4.6
	c-0.1-0.1,0-0.2,0.1-0.2l0.5-0.1c0.1,0,0.2-0.2,0.2-0.3V-23l-2-3.4c0-0.1,0-0.2,0.1-0.2l0.3-0.1c0.1,0,0.2-0.2,0.1-0.3
	c0,0,0,0,0-0.1l-2-3.3c0-0.1-0.1-0.1-0.2-0.1c-0.1,0-0.2,0-0.2,0.1l-1.9,3.3c0,0,0,0,0,0.1s0,0.3,0.1,0.3l0.3,0.1
	c0.1,0,0.1,0.1,0.1,0.2l-2,3.4v0.1c0,0.1,0.1,0.3,0.2,0.3l0.5,0.1c0.1,0,0.1,0.1,0.1,0.2l-2.8,4.7v0.1c0,0.1,0.1,0.3,0.2,0.3
	l0.9,0.1c0.2,0,0.1,0.2,0.1,0.3L220-11v0.1c0,0.1,0.1,0.3,0.2,0.3h6.8v3.8h1.7v-3.8h6.8c0.1,0,0.2-0.1,0.2-0.3
	C235.7-11,235.7-11,235.7-11.1z"/>
<path class="st1" d="M265.3-14.9l-3.4-5.8c0-0.1-0.1-0.2,0.1-0.3l0.9-0.1c0.1,0,0.2-0.1,0.2-0.3v-0.1l-2.8-4.7
	c-0.1-0.1,0-0.2,0.1-0.2l0.5-0.1c0.1,0,0.2-0.2,0.2-0.3v-0.1l-2-3.4c0-0.1,0-0.2,0.1-0.2l0.3-0.1c0.1,0,0.2-0.2,0.1-0.3
	c0,0,0,0,0-0.1l-1.9-3.3c0-0.1-0.1-0.1-0.2-0.1s-0.2,0-0.2,0.1l-1.9,3.3c0,0,0,0,0,0.1s0,0.3,0.1,0.3l0.3,0.1c0.1,0,0.1,0.1,0.1,0.2
	l-2,3.4v0.1c0,0.1,0.1,0.3,0.2,0.3l0.5,0.1c0.1,0,0.1,0.1,0.1,0.2l-2.8,4.7v0.1c0,0.1,0.1,0.3,0.2,0.3L253-21c0.2,0,0.1,0.2,0.1,0.3
	l-3.4,5.8v0.1c0,0.1,0.1,0.3,0.2,0.3h6.8v3.8h1.9v-3.8h6.8c0.1,0,0.2-0.1,0.2-0.3C265.4-14.8,265.4-14.9,265.3-14.9z"/>
<path class="st2" d="M227.7,0.8L224.3-5c0-0.1-0.1-0.2,0.1-0.3l0.9-0.1c0.1,0,0.2-0.1,0.2-0.3v-0.1l-2.8-4.7c-0.1-0.1,0-0.2,0.1-0.2
	l0.5-0.1c0.1,0,0.2-0.2,0.2-0.3v-0.1l-2-3.4c0-0.1,0-0.2,0.1-0.2l0.3-0.1c0.1,0,0.2-0.2,0.1-0.3c0,0,0,0,0-0.1l-1.9-3.3
	c0-0.1-0.1-0.1-0.2-0.1c-0.1,0-0.2,0-0.2,0.1l-2,3.3c0,0,0,0,0,0.1s0,0.3,0.1,0.3l0.3,0.1c0.1,0,0.1,0.1,0.1,0.2l-2,3.4v0.1
	c0,0.1,0.1,0.3,0.2,0.3l0.5,0.1c0.1,0,0.1,0.1,0.1,0.2l-2.8,4.7v0.1c0,0.1,0.1,0.3,0.2,0.3l0.9,0.1c0.2,0,0.1,0.2,0.1,0.3L212,0.8
	v0.1c0,0.1,0.1,0.3,0.2,0.3h6.8V5h1.7V1.2h6.8C227.6,1.2,227.7,1.1,227.7,0.8C227.8,0.8,227.7,0.8,227.7,0.8z"/>
<path class="st2" d="M246.2-14.9l-3.4-5.8c0-0.1-0.1-0.2,0.1-0.3l0.9-0.1c0.1,0,0.2-0.1,0.2-0.3v-0.1l-2.8-4.7
	c-0.1-0.1,0-0.2,0.1-0.2l0.5-0.1c0.1,0,0.2-0.2,0.2-0.3v-0.1l-2-3.4c0-0.1,0-0.2,0.1-0.2l0.3-0.1c0.1,0,0.2-0.2,0.1-0.3
	c0,0,0,0,0-0.1l-1.9-3.3c0-0.1-0.1-0.1-0.2-0.1s-0.2,0-0.2,0.1l-1.9,3.3c0,0,0,0,0,0.1s0,0.3,0.1,0.3l0.3,0.1c0.1,0,0.1,0.1,0.1,0.2
	l-2,3.4v0.1c0,0.1,0.1,0.3,0.2,0.3l0.5,0.1c0.1,0,0.1,0.1,0.1,0.2l-2.8,4.7v0.1c0,0.1,0.1,0.3,0.2,0.3l0.9,0.1
	c0.2,0,0.1,0.2,0.1,0.3l-3.4,5.8v0.1c0,0.1,0.1,0.3,0.2,0.3h6.8v3.8h1.9v-3.8h6.8c0.1,0,0.2-0.1,0.2-0.3
	C246.3-14.8,246.2-14.9,246.2-14.9z"/>
<path class="st2" d="M268.1,3l-3.4-5.8c0-0.1-0.1-0.2,0.1-0.3l0.9-0.1c0.1,0,0.2-0.1,0.2-0.3v-0.1l-2.8-4.7c-0.1-0.1,0-0.2,0.1-0.2
	l0.5-0.1c0.1,0,0.2-0.2,0.2-0.3V-9l-2-3.4c0-0.1,0-0.2,0.1-0.2l0.3-0.1c0.1,0,0.2-0.2,0.1-0.3c0,0,0,0,0-0.1l-1.9-3.3
	c0-0.1-0.1-0.1-0.2-0.1c-0.1,0-0.2,0-0.2,0.1l-1.9,3.3c0,0,0,0,0,0.1s0,0.3,0.1,0.3l0.3,0.1c0.1,0,0.1,0.1,0.1,0.2l-2,3.4v0.1
	c0,0.1,0.1,0.3,0.2,0.3l0.5,0.1c0.1,0,0.1,0.1,0.1,0.2l-2.8,4.7v0.1c0,0.1,0.1,0.3,0.2,0.3l0.9,0.1c0.2,0,0.1,0.2,0.1,0.3L252.5,3
	v0.1c0,0.1,0.1,0.3,0.2,0.3h6.8v3.8h1.9V3.4h6.8c0.1,0,0.2-0.1,0.2-0.3C268.2,3.1,268.2,3,268.1,3z"/>
<path class="st1" d="M280.2-1.6l-3.4-5.8c0-0.1-0.1-0.2,0.1-0.3l0.9-0.1c0.1,0,0.2-0.1,0.2-0.3v-0.1l-2.8-4.7
	c-0.1-0.1,0-0.2,0.1-0.2l0.5-0.1c0.1,0,0.2-0.2,0.2-0.3v-0.1l-2-3.4c0-0.1,0-0.2,0.1-0.2l0.3-0.1c0.1,0,0.2-0.2,0.1-0.3
	c0,0,0,0,0-0.1l-1.9-3.3c0-0.1-0.1-0.1-0.2-0.1s-0.2,0-0.2,0.1l-1.9,3.3c0,0,0,0,0,0.1s0,0.3,0.1,0.3l0.3,0.1c0.1,0,0.1,0.1,0.1,0.2
	l-2,3.4v0.1c0,0.1,0.1,0.3,0.2,0.3l0.5,0.1c0.1,0,0.1,0.1,0.1,0.2l-2.8,4.7v0.1c0,0.1,0.1,0.3,0.2,0.3l0.9,0.1
	c0.2,0,0.1,0.2,0.1,0.3l-3.4,5.8v0.1c0,0.1,0.1,0.3,0.2,0.3h6.8v3.8h1.9v-3.8h6.8c0.1,0,0.2-0.1,0.2-0.3
	C280.2-1.5,280.2-1.6,280.2-1.6z"/>
<title>middle</title>
<path class="st0" d="M218.6,7.3l-3.4-5.8c0-0.1-0.1-0.2,0.1-0.3l0.9-0.1c0.1,0,0.2-0.1,0.2-0.3V0.7L213.6-4c-0.1-0.1,0-0.2,0.1-0.2
	l0.5-0.1c0.1,0,0.2-0.2,0.2-0.3v-0.1l-2-3.4c0-0.1,0-0.2,0.1-0.2l0.3-0.1c0.1,0,0.2-0.2,0.1-0.3c0,0,0,0,0-0.1l-1.9-3.3
	c0-0.1-0.1-0.1-0.2-0.1c-0.1,0-0.2,0-0.2,0.1l-1.9,3.3c0,0,0,0,0,0.1s0,0.3,0.1,0.3l0.3,0.1c0.1,0,0.1,0.1,0.1,0.2l-2,3.4v0.1
	c0,0.1,0.1,0.3,0.2,0.3l0.3,0.1c0.1,0,0.1,0.1,0.1,0.2L205,0.7v0.1c0,0.1,0.1,0.3,0.2,0.3l0.9,0.1c0.2,0,0.1,0.2,0.1,0.3l-3.5,5.8
	v0.1c0,0.1,0.1,0.3,0.2,0.3h6.8v3.8h1.9V7.7h6.8C218.5,7.7,218.6,7.6,218.6,7.3C218.6,7.4,218.6,7.4,218.6,7.3z"/>
<path class="st1" d="M249.4,3L246-2.8c0-0.1-0.1-0.2,0.1-0.3l0.9-0.1c0.1,0,0.2-0.1,0.2-0.3v-0.1l-2.8-4.7c-0.1-0.1,0-0.2,0.1-0.2
	l0.5-0.1c0.1,0,0.2-0.2,0.2-0.3V-9l-2-3.4c0-0.1,0-0.2,0.1-0.2l0.3-0.1c0.1,0,0.2-0.2,0.1-0.3c0,0,0,0,0-0.1l-2-3.2
	c0-0.1-0.1-0.1-0.2-0.1s-0.2,0-0.2,0.1l-1.9,3.3c0,0,0,0,0,0.1s0,0.3,0.1,0.3l0.3,0.1c0.1,0,0.1,0.1,0.1,0.2l-2,3.4v0.1
	c0,0.1,0.1,0.3,0.2,0.3l0.5,0.1c0.1,0,0.1,0.1,0.1,0.2l-2.8,4.7v0.1c0,0.1,0.1,0.3,0.2,0.3L237-3c0.2,0,0.1,0.2,0.1,0.3l-3.4,5.8
	v0.1c0,0.1,0.1,0.3,0.2,0.3h6.8v3.8h1.9V3.5h6.8c0.1,0,0.2-0.1,0.2-0.3C249.4,3.1,249.4,3,249.4,3z"/>
<path class="st0" d="M260.2,7.3l-3.4-5.8c0-0.1-0.1-0.2,0.1-0.3l0.9-0.1c0.1,0,0.2-0.1,0.2-0.3V0.7L255.2-4c-0.1-0.1,0-0.2,0.1-0.2
	l0.5-0.1c0.1,0,0.2-0.2,0.2-0.3v-0.1l-2-3.4c0-0.1,0-0.2,0.1-0.2l0.3-0.1c0.1,0,0.2-0.2,0.1-0.3c0,0,0,0,0-0.1l-1.9-3.3
	c0-0.1-0.1-0.1-0.2-0.1s-0.2,0-0.2,0.1l-1.9,3.3c0,0,0,0,0,0.1s0,0.3,0.1,0.3l0.3,0.1c0.1,0,0.1,0.1,0.1,0.2l-2,3.4v0.1
	c0,0.1,0.1,0.3,0.2,0.3l0.5,0.1c0.1,0,0.1,0.1,0.1,0.2l-2.8,4.7v0.1c0,0.1,0.1,0.3,0.2,0.3l0.9,0.1c0.2,0,0.1,0.2,0.1,0.3l-3.4,5.8
	v0.1c0,0.1,0.1,0.3,0.2,0.3h6.8v3.8h1.9V7.7h6.8c0.1,0,0.2-0.1,0.2-0.3C260.2,7.4,260.2,7.4,260.2,7.3z"/>
<path class="st2" d="M290.2,3l-3.4-5.8c0-0.1-0.1-0.2,0.1-0.3l0.9-0.1c0.1,0,0.2-0.1,0.2-0.3v-0.1l-2.8-4.7c-0.1-0.1,0-0.2,0.1-0.2
	l0.5-0.1c0.1,0,0.2-0.2,0.2-0.3V-9l-2-3.4c0-0.1,0-0.2,0.1-0.2l0.3-0.1c0.1,0,0.2-0.2,0.1-0.3c0,0,0,0,0-0.1l-1.9-3.3
	c0-0.1-0.1-0.1-0.2-0.1s-0.2,0-0.2,0.1l-1.9,3.3c0,0,0,0,0,0.1s0,0.3,0.1,0.3l0.3,0.1c0.1,0,0.1,0.1,0.1,0.2l-2,3.4v0.1
	c0,0.1,0.1,0.3,0.2,0.3l0.5,0.1c0.1,0,0.1,0.1,0.1,0.2l-2.8,4.7v0.1c0,0.1,0.1,0.3,0.2,0.3l0.9,0.1c0.2,0,0.1,0.2,0.1,0.3L274.6,3
	v0.1c0,0.1,0.1,0.3,0.2,0.3h6.8v3.8h1.9V3.4h6.8c0.1,0,0.2-0.1,0.2-0.3C290.2,3.1,290.2,3,290.2,3z"/>
<path class="st0" d="M296.1,7.3l-3.4-5.8c0-0.1-0.1-0.2,0.1-0.3l0.9-0.1c0.1,0,0.2-0.1,0.2-0.3V0.7L291.1-4c-0.1-0.1,0-0.2,0.1-0.2
	l0.5-0.1c0.1,0,0.2-0.2,0.2-0.3v-0.1l-2-3.4c0-0.1,0-0.2,0.1-0.2l0.3-0.1c0.1,0,0.2-0.2,0.1-0.3c0,0,0,0,0-0.1l-1.9-3.3
	c0-0.1-0.1-0.1-0.2-0.1s-0.2,0-0.2,0.1l-1.9,3.3c0,0,0,0,0,0.1s0,0.3,0.1,0.3l0.3,0.1c0.1,0,0.1,0.1,0.1,0.2l-2,3.4v0.1
	c0,0.1,0.1,0.3,0.2,0.3l0.5,0.1c0.1,0,0.1,0.1,0.1,0.2l-2.8,4.7v0.1c0,0.1,0.1,0.3,0.2,0.3l0.9,0.1c0.2,0,0.1,0.2,0.1,0.3l-3.4,5.8
	v0.1c0,0.1,0.1,0.3,0.2,0.3h6.8v3.8h1.9V7.7h6.8c0.1,0,0.2-0.1,0.2-0.3C296.2,7.4,296.2,7.4,296.1,7.3z"/>
<path class="st0" d="M238.3,3l-3.4-5.8c0-0.1-0.1-0.2,0.1-0.3l0.9-0.1c0.1,0,0.2-0.1,0.2-0.3v-0.1l-2.8-4.7c-0.1-0.1,0-0.2,0.1-0.2
	l0.5-0.1c0.1,0,0.2-0.2,0.2-0.3V-9l-2-3.4c0-0.1,0-0.2,0.1-0.2l0.3-0.1c0.1,0,0.2-0.2,0.1-0.3c0,0,0,0,0-0.1l-1.9-3.3
	c0-0.1-0.1-0.1-0.2-0.1s-0.2,0-0.2,0.1l-1.9,3.3c0,0,0,0,0,0.1s0,0.3,0.1,0.3l0.3,0.1c0.1,0,0.1,0.1,0.1,0.2l-2,3.4v0.1
	c0,0.1,0.1,0.3,0.2,0.3l0.5,0.1c0.1,0,0.1,0.1,0.1,0.2l-3,4.8v0.1c0,0.1,0.1,0.3,0.2,0.3l0.9,0.1c0.2,0,0.1,0.2,0.1,0.3l-3.4,5.8
	v0.1c0,0.1,0.1,0.3,0.2,0.3h6.8v3.8h1.9V3.5h6.8c0.1,0,0.2-0.1,0.2-0.3C238.3,3.1,238.3,3,238.3,3z"/>
<path class="st0" d="M54.9,48.1c-0.2-0.2-0.2-0.4,0-0.6c0.3-0.2,1-0.4,1.3-0.6c0.3-0.2,0.3-0.1,0.6,0.1s1.2,0.6,1.6,0.1
	c0.4-0.5,1.7-1,2.2-1c0.6,0,1.4-0.3,2-0.6c0.6-0.3,1.8-0.7,2.6-1.2c0.8-0.5,0.4-0.7-0.4-0.6c-0.8,0.1-3.5,0.5-5.6,0.8
	c-2.4,0.3-2.8-0.1-3.9-0.9c-0.5-0.4-0.7-0.5-1.4-0.4c-4.9,0.9-9.6,0.6-15.7-0.8c-1.6,1.9-6.5,3.2-10.6,4.1c-2.3,0.5-2.5,1-3.9,2.3
	c-0.7,0.7-3.1,3.7-3.8,4.5c-0.3,0.4-0.9,0.8-1.3,0.9c-0.4,0.1-1,0.4-1.3,0.6c-0.2,0.2-1.8,1-2.2,1.2c-0.3,0.2-0.6,0.1-0.8-0.1
	c-0.2-0.3,0.3-1.3,0.6-1.6c0.2-0.3,1-0.7,1.6-0.6c0.6,0,1-0.2,1.1-0.6c0.1-0.4,0.3-0.7,1-0.9c0.7-0.2,2.6-2.2,2.8-3
	c-0.6,0.4-3,2.4-3.2,2.9c-0.2,0.5-0.9,0.8-1.5,0.9c-0.5,0.1-2.2,0.8-2.6,1.1c-0.3,0.2-0.6,0.1-0.6-0.3c0-0.5,0.2-0.9,0.7-1.5
	c0.4-0.4,1.4-0.7,1.7-0.5c0.4,0.3,0.5,0.2,0.7-0.4c0.3-0.8,1.6-1.1,1.8-1.3c1.6-1.4,2.9-2.6,3.6-3.9c0.2-0.3,0.3-0.6,0.5-0.8
	c0.2-0.2,0.3-0.2,0.4-0.5c0.2-0.7,0.4-0.8,1.1-0.8c4.5,0,6-1.6,6.3-3.2c0.7-3.4,1.4-5.9,3.1-7c0.4-0.2,0.4-0.3,0-0.5
	c-2.1-1.2-2.2-2.5-0.8-5c0.4-0.6,0.7-0.6,0.6-0.1c-0.1,0.5,0,1.9,0.2,2.7c0.2,0.7,0.9,1.7,2,1.6c1.1-0.1,3.8-0.3,5.2-0.2
	c1.4,0.1,6.7,0.3,8.8,0c3.7-0.5,6.1-1.7,5.4-4.9c-0.3-1.5-1-5.3-0.8-7c0-0.4,0-0.4-0.3-0.8c-0.3-0.5-0.6-0.4-0.8-0.6
	c-0.4-0.4-1.1-1.2-1.4-1.8c-0.3-0.6,0.1-0.9,0.3-0.8c0.3,0.1,0.4,0.1,0.4-0.1c-1.4-1.4-2.2-2.9-2.9-4.5c-0.5-1.1-2.1-2.8-2.5-3.2
	c-0.3-0.4-0.5-0.7-0.5-1.1c0-0.4,0.5-0.4,0.5-0.1c0,0.3,0.3,0.7,0.6,1c0.4,0.4,1.8,1.6,1.9,1.8c0.1,0.2,0.2,0.2,0.3-0.1
	c0.4-0.9,1.5-2.1,2.3-2.8c0.3-0.3,0.3-0.6,0.4-0.8c0.2-1.2,0-1.8-0.7-2.7c-0.2-0.2-0.1-0.6,0.4-0.2c0.8,0.7,1.2,1.7,1.2,2.8
	c0,0.2,0.1,0.4,0.3,0.3c0.4-0.2,1.2-0.8,1.6-1.1c0.2-0.2,0.3-0.3,0.3-0.5c0-0.4,0-0.6-0.1-0.9c-0.1-0.2,0-0.3,0.1-0.2
	c0.1,0.1,0.4,0.6,0.5,0.7c0.1,0.1,0.2,0.1,0.3,0c0.6-0.6,1.2-1.7,1.2-2.1c0.1-0.5,0.4-0.5,0.4,0c-0.3,2.9-4.5,4.9-6.2,6.7
	c-0.9,1-0.8,2.4-0.5,3.4c0.3,0.7,1.4,2.1,2.4,2.8c0.1,0.1,0.1,0.1,0.2,0c0.1-0.4,0.1-0.8-0.2-1.3c-0.1-0.1-0.1-0.4-0.1-0.6
	c0.1-0.3,0.1-0.3,0-0.7c-0.5-2-0.1-3.3,0.5-5c0.4-1.1,0.2-3.3,0-4c-0.1-0.4,0.2-0.5,0.4-0.1c0.3,0.7,0.5,1.8,0.5,3.1
	c0,0.2,0.2,0.2,0.5,0c0.8-0.5,1.7-1.1,2-1.5c0.5-0.6,0.5-1.4,0.4-1.9C58,3.4,58,3.3,58.3,3.5c0.3,0.2,0.4,0.9,0.4,1.2
	c0,0.2,0,0.2,0.2,0.1c1.1-0.7,1.6-1.9,1.7-3.1C60.7,1.1,61,1.3,61,1.6c0.3,1.8-1.6,4.2-3,5c-1.8,1.1-3.1,2.3-3.3,3.8
	c-0.1,1.1,0.3,2.9,0.8,3.7c0.1,0.1,0.1,0.2,0.2,0c0.2-0.5,0.3-1.2,0.1-1.7c-0.1-0.3-0.1-0.4,0.2-0.2c0.3,0.2,0.5,0.8,0.3,2.2
	c-0.1,0.4,0,0.6,0.4,0.9c0.3,0.3,0.5,0.3,0.7,0.1c0.2-0.1,0.4-0.2,0.6,0.2c0.2,0.4,0.4,0.7,0.9,0.7c0.7,0,1.4,0.1,1.7,0.3
	c0.5,0.5,0.5,0.4,1.1,0.5c0.6,0.1,1.3,0.1,1.7,0.1c0.4,0,0.4,0.3,0.8,0.3c0.4,0,0.9,0,1.2,0.3c0.3,0.3,0.6,0.7,0.6,1
	c0,0.3,0,0.3-0.1,0.4c-0.1,0-0.1,0.1-0.1,0.2c0.1,0.4-0.4,0.7-1,0.8c-0.7,0.1-2.1,0.4-2.4,0.6c-0.3,0.2-1,0.7-1.5,0.8
	c-0.5,0.1-0.4,0.7-0.2,1.3c1.2,3.1,1.6,5.8,1.8,8c0.1,1.7,0.2,3.7-0.1,5.3c-0.1,0.7-0.3,0.7-0.1,1.5c0.2,0.6,0,1.3-0.2,1.7
	c-0.1,0.2,0.1,0.3,0.3,0.3c0.8,0,4.6,0.4,5.4,0.4c0.4,0,0.6,0.1,0.7,0.4c0.1,0.3,0.3,0.8,0.4,1.2c0.1,0.4-0.2,0.6-0.3,1.3
	c-0.1,0.5-0.7,1.2-2,1.9c-0.6,0.3-1.3,0.9-1.7,1.2c-0.5,0.3-1.5,0.9-1.8,1.1c-0.3,0.3-0.8,0.7-1.1,0.8c-0.3,0.1-0.4,0.1-0.9,0.5
	c-0.5,0.4-2,0.7-2.8,0.6c-1-0.1-3.2,0-3.7,0c-0.6,0-0.5-0.4-0.3-0.7C54.4,48.4,54.8,48.3,54.9,48.1z"/>
</svg>
