<?xml version="1.0" encoding="utf-8"?>
<!-- Generator: Adobe Illustrator 19.2.1, SVG Export Plug-In . SVG Version: 6.00 Build 0)  -->
<svg version="1.1" id="Ebene_1" xmlns="http://www.w3.org/2000/svg" xmlns:xlink="http://www.w3.org/1999/xlink" x="0px" y="0px"
	 viewBox="0 0 93.5 55.9" style="enable-background:new 0 0 93.5 55.9;" xml:space="preserve">
<style type="text/css">
	.st0{fill:#DAD6D5;}
	.st1{fill:#B5B4B4;}
	.st2{fill:#CCC7C5;}
</style>
<path class="st0" d="M54.7,23.8L51.2,18c0-0.1-0.1-0.2,0.1-0.3l0.9-0.1c0.1,0,0.2-0.1,0.2-0.3c0,0,0-0.1,0-0.1l-2.8-4.7
	c-0.1-0.1,0-0.2,0.1-0.2l0.5-0.1c0.1,0,0.2-0.2,0.2-0.3c0,0,0-0.1,0-0.1l-2-3.4c0-0.1,0-0.2,0.1-0.2l0.3-0.1c0.1,0,0.2-0.2,0.1-0.3
	c0,0,0,0,0-0.1l-1.9-3.3c0-0.1-0.1-0.1-0.2-0.1s-0.2,0-0.2,0.1l-1.9,3.3c0,0,0,0,0,0.1c0,0.1,0,0.3,0.1,0.3L45,8.2
	c0.1,0,0.1,0.1,0.1,0.2l-2,3.4c0,0,0,0.1,0,0.1c0,0.1,0.1,0.3,0.2,0.3l0.5,0.1c0.1,0,0.1,0.1,0.1,0.2l-2.8,4.7c0,0,0,0.1,0,0.1
	c0,0.1,0.1,0.3,0.2,0.3l0.9,0.1c0.2,0,0.1,0.2,0.1,0.3l-3.4,5.8c0,0,0,0.1,0,0.1c0,0.1,0.1,0.3,0.2,0.3h6.8v3.8h1.9v-3.8h6.8
	c0.1,0,0.2-0.1,0.2-0.3C54.7,23.9,54.7,23.8,54.7,23.8z"/>
<path class="st0" d="M71.5,19.2l-3.4-5.8c0-0.1-0.1-0.2,0.1-0.3l0.9-0.1c0.1,0,0.2-0.1,0.2-0.3c0,0,0-0.1,0-0.1l-2.8-4.7
	c-0.1-0.1,0-0.2,0.1-0.2l0.5-0.1c0.1,0,0.2-0.2,0.2-0.3c0,0,0-0.1,0-0.1l-2-3.4c0-0.1,0-0.2,0.1-0.2l0.3-0.1c0.1,0,0.2-0.2,0.1-0.3
	c0,0,0,0,0-0.1l-1.9-3.3c0-0.1-0.1-0.1-0.2-0.1s-0.2,0-0.2,0.1l-1.9,3.3c0,0,0,0,0,0.1c0,0.1,0,0.3,0.1,0.3l0.3,0.1
	C62,3.6,62,3.7,62,3.8l-2,3.4c0,0,0,0.1,0,0.1c0,0.1,0.1,0.3,0.2,0.3l0.5,0.1c0.1,0,0.1,0.1,0.1,0.2L58,12.7c0,0,0,0.1,0,0.1
	c0,0.1,0.1,0.3,0.2,0.3l0.9,0.1c0.2,0,0.1,0.2,0.1,0.3l-3.4,5.8c0,0,0,0.1,0,0.1c0,0.1,0.1,0.3,0.2,0.3h6.8v3.8h1.9v-3.8h6.8
	c0.1,0,0.2-0.1,0.2-0.3C71.6,19.3,71.6,19.2,71.5,19.2z"/>
<path class="st0" d="M84.3,31l-3.4-5.8c0-0.1-0.1-0.2,0.1-0.3l0.9-0.1c0.1,0,0.2-0.1,0.2-0.3c0,0,0-0.1,0-0.1l-2.8-4.7
	c-0.1-0.1,0-0.2,0.1-0.2l0.5-0.1c0.1,0,0.2-0.2,0.2-0.3c0,0,0-0.1,0-0.1l-2-3.4c0-0.1,0-0.2,0.1-0.2l0.3-0.1c0.1,0,0.2-0.2,0.1-0.3
	c0,0,0,0,0-0.1l-1.9-3.3c0-0.1-0.1-0.1-0.2-0.1s-0.2,0-0.2,0.1L74.3,15c0,0,0,0,0,0.1c0,0.1,0,0.3,0.1,0.3l0.3,0.1
	c0.1,0,0.1,0.1,0.1,0.2l-2,3.4c0,0,0,0.1,0,0.1c0,0.1,0.1,0.3,0.2,0.3l0.5,0.1c0.1,0,0.1,0.1,0.1,0.2l-2.8,4.7c0,0,0,0.1,0,0.1
	c0,0.1,0.1,0.3,0.2,0.3l0.9,0.1c0.2,0,0.1,0.2,0.1,0.3L68.4,31c0,0,0,0.1,0,0.1c0,0.1,0.1,0.3,0.2,0.3h6.8v3.8h1.9v-3.8h6.8
	c0.1,0,0.2-0.1,0.2-0.3C84.3,31.1,84.3,31,84.3,31z"/>
<path class="st1" d="M33,33.3l-3.4-5.8c0-0.1-0.1-0.2,0.1-0.3l0.9-0.1c0.1,0,0.2-0.1,0.2-0.3c0,0,0-0.1,0-0.1L28,22.1
	c-0.1-0.1,0-0.2,0.1-0.2l0.5-0.1c0.1,0,0.2-0.2,0.2-0.3c0,0,0-0.1,0-0.1l-2-3.4c0-0.1,0-0.2,0.1-0.2l0.3-0.1c0.1,0,0.2-0.2,0.1-0.3
	c0,0,0,0,0-0.1L25.3,14c0-0.1-0.1-0.1-0.2-0.1c-0.1,0-0.2,0-0.2,0.1L23,17.3c0,0,0,0,0,0.1c0,0.1,0,0.3,0.1,0.3l0.3,0.1
	c0.1,0,0.1,0.1,0.1,0.2l-2,3.4c0,0,0,0.1,0,0.1c0,0.1,0.1,0.3,0.2,0.3l0.5,0.1c0.1,0,0.1,0.1,0.1,0.2l-2.8,4.7c0,0,0,0.1,0,0.1
	c0,0.1,0.1,0.3,0.2,0.3l0.9,0.1c0.2,0,0.1,0.2,0.1,0.3l-3.4,5.8c0,0,0,0.1,0,0.1c0,0.1,0.1,0.3,0.2,0.3h6.8v3.8H26v-3.8h6.8
	c0.1,0,0.2-0.1,0.2-0.3C33,33.4,33,33.4,33,33.3z"/>
<path class="st1" d="M62.6,29.5l-3.4-5.8c0-0.1-0.1-0.2,0.1-0.3l0.9-0.1c0.1,0,0.2-0.1,0.2-0.3c0,0,0-0.1,0-0.1l-2.8-4.7
	c-0.1-0.1,0-0.2,0.1-0.2l0.5-0.1c0.1,0,0.2-0.2,0.2-0.3c0,0,0-0.1,0-0.1l-2-3.4c0-0.1,0-0.2,0.1-0.2l0.3-0.1c0.1,0,0.2-0.2,0.1-0.3
	c0,0,0,0,0-0.1l-1.9-3.3c0-0.1-0.1-0.1-0.2-0.1c-0.1,0-0.2,0-0.2,0.1l-1.9,3.3c0,0,0,0,0,0.1c0,0.1,0,0.3,0.1,0.3l0.3,0.1
	c0.1,0,0.1,0.1,0.1,0.2l-2,3.4c0,0,0,0.1,0,0.1c0,0.1,0.1,0.3,0.2,0.3l0.5,0.1c0.1,0,0.1,0.1,0.1,0.2l-2.8,4.7c0,0,0,0.1,0,0.1
	c0,0.1,0.1,0.3,0.2,0.3l0.9,0.1c0.2,0,0.1,0.2,0.1,0.3l-3.4,5.8c0,0,0,0.1,0,0.1c0,0.1,0.1,0.3,0.2,0.3h6.8v3.8h1.9v-3.8h6.8
	c0.1,0,0.2-0.1,0.2-0.3C62.7,29.6,62.7,29.5,62.6,29.5z"/>
<path class="st2" d="M25,45.2l-3.4-5.8c0-0.1-0.1-0.2,0.1-0.3l0.9-0.1c0.1,0,0.2-0.1,0.2-0.3c0,0,0-0.1,0-0.1L20,33.9
	c-0.1-0.1,0-0.2,0.1-0.2l0.5-0.1c0.1,0,0.2-0.2,0.2-0.3c0,0,0-0.1,0-0.1l-2-3.4c0-0.1,0-0.2,0.1-0.2l0.3-0.1c0.1,0,0.2-0.2,0.1-0.3
	c0,0,0,0,0-0.1l-1.9-3.3c0-0.1-0.1-0.1-0.2-0.1c-0.1,0-0.2,0-0.2,0.1L15,29.1c0,0,0,0,0,0.1c0,0.1,0,0.3,0.1,0.3l0.3,0.1
	c0.1,0,0.1,0.1,0.1,0.2l-2,3.4c0,0,0,0.1,0,0.1c0,0.1,0.1,0.3,0.2,0.3l0.5,0.1c0.1,0,0.1,0.1,0.1,0.2l-2.8,4.7c0,0,0,0.1,0,0.1
	c0,0.1,0.1,0.3,0.2,0.3l0.9,0.1c0.2,0,0.1,0.2,0.1,0.3l-3.4,5.8c0,0,0,0.1,0,0.1c0,0.1,0.1,0.3,0.2,0.3h6.8v3.8H18v-3.8h6.8
	c0.1,0,0.2-0.1,0.2-0.3C25.1,45.2,25,45.2,25,45.2z"/>
<path class="st2" d="M43.5,29.5l-3.4-5.8c0-0.1-0.1-0.2,0.1-0.3l0.9-0.1c0.1,0,0.2-0.1,0.2-0.3c0,0,0-0.1,0-0.1l-2.8-4.7
	c-0.1-0.1,0-0.2,0.1-0.2l0.5-0.1c0.1,0,0.2-0.2,0.2-0.3c0,0,0-0.1,0-0.1l-2-3.4c0-0.1,0-0.2,0.1-0.2l0.3-0.1c0.1,0,0.2-0.2,0.1-0.3
	c0,0,0,0,0-0.1l-1.9-3.3c0-0.1-0.1-0.1-0.2-0.1c-0.1,0-0.2,0-0.2,0.1l-1.9,3.3c0,0,0,0,0,0.1c0,0.1,0,0.3,0.1,0.3l0.3,0.1
	c0.1,0,0.1,0.1,0.1,0.2l-2,3.4c0,0,0,0.1,0,0.1c0,0.1,0.1,0.3,0.2,0.3l0.5,0.1c0.1,0,0.1,0.1,0.1,0.2l-2.8,4.7c0,0,0,0.1,0,0.1
	c0,0.1,0.1,0.3,0.2,0.3l0.9,0.1c0.2,0,0.1,0.2,0.1,0.3l-3.4,5.8c0,0,0,0.1,0,0.1c0,0.1,0.1,0.3,0.2,0.3h6.8v3.8h1.9v-3.8h6.8
	c0.1,0,0.2-0.1,0.2-0.3C43.6,29.6,43.5,29.5,43.5,29.5z"/>
<path class="st2" d="M65.4,47.4L62,41.6c0-0.1-0.1-0.2,0.1-0.3l0.9-0.1c0.1,0,0.2-0.1,0.2-0.3c0,0,0-0.1,0-0.1l-2.8-4.7
	c-0.1-0.1,0-0.2,0.1-0.2l0.5-0.1c0.1,0,0.2-0.2,0.2-0.3c0,0,0-0.1,0-0.1l-2-3.4c0-0.1,0-0.2,0.1-0.2l0.3-0.1c0.1,0,0.2-0.2,0.1-0.3
	c0,0,0,0,0-0.1l-1.9-3.3c0-0.1-0.1-0.1-0.2-0.1c-0.1,0-0.2,0-0.2,0.1l-1.9,3.3c0,0,0,0,0,0.1c0,0.1,0,0.3,0.1,0.3l0.3,0.1
	c0.1,0,0.1,0.1,0.1,0.2l-2,3.4c0,0,0,0.1,0,0.1c0,0.1,0.1,0.3,0.2,0.3l0.5,0.1c0.1,0,0.1,0.1,0.1,0.2l-2.8,4.7c0,0,0,0.1,0,0.1
	c0,0.1,0.1,0.3,0.2,0.3l0.9,0.1c0.2,0,0.1,0.2,0.1,0.3l-3.4,5.8c0,0,0,0.1,0,0.1c0,0.1,0.1,0.3,0.2,0.3h6.8v3.8h1.9v-3.8h6.8
	c0.1,0,0.2-0.1,0.2-0.3C65.5,47.5,65.5,47.4,65.4,47.4z"/>
<path class="st1" d="M77.5,42.8L74.1,37c0-0.1-0.1-0.2,0.1-0.3l0.9-0.1c0.1,0,0.2-0.1,0.2-0.3c0,0,0-0.1,0-0.1l-2.8-4.7
	c-0.1-0.1,0-0.2,0.1-0.2l0.5-0.1c0.1,0,0.2-0.2,0.2-0.3c0,0,0-0.1,0-0.1l-2-3.4c0-0.1,0-0.2,0.1-0.2l0.3-0.1c0.1,0,0.2-0.2,0.1-0.3
	c0,0,0,0,0-0.1l-1.9-3.3c0-0.1-0.1-0.1-0.2-0.1s-0.2,0-0.2,0.1l-1.9,3.3c0,0,0,0,0,0.1c0,0.1,0,0.3,0.1,0.3l0.3,0.1
	c0.1,0,0.1,0.1,0.1,0.2l-2,3.4c0,0,0,0.1,0,0.1c0,0.1,0.1,0.3,0.2,0.3l0.5,0.1c0.1,0,0.1,0.1,0.1,0.2l-2.8,4.7c0,0,0,0.1,0,0.1
	c0,0.1,0.1,0.3,0.2,0.3l0.9,0.1c0.2,0,0.1,0.2,0.1,0.3l-3.4,5.8c0,0,0,0.1,0,0.1c0,0.1,0.1,0.3,0.2,0.3h6.8V47h1.9v-3.8h6.8
	c0.1,0,0.2-0.1,0.2-0.3C77.5,42.9,77.5,42.8,77.5,42.8z"/>
<title>middle</title>
<path class="st0" d="M15.9,51.7l-3.4-5.8c0-0.1-0.1-0.2,0.1-0.3l0.9-0.1c0.1,0,0.2-0.1,0.2-0.3c0,0,0-0.1,0-0.1l-2.8-4.7
	c-0.1-0.1,0-0.2,0.1-0.2l0.5-0.1c0.1,0,0.2-0.2,0.2-0.3c0,0,0-0.1,0-0.1l-2-3.4c0-0.1,0-0.2,0.1-0.2l0.3-0.1c0.1,0,0.2-0.2,0.1-0.3
	c0,0,0,0,0-0.1l-1.9-3.3c0-0.1-0.1-0.1-0.2-0.1s-0.2,0-0.2,0.1l-1.9,3.3c0,0,0,0,0,0.1c0,0.1,0,0.3,0.1,0.3l0.3,0.1
	c0.1,0,0.1,0.1,0.1,0.2l-2,3.4c0,0,0,0.1,0,0.1c0,0.1,0.1,0.3,0.2,0.3L5,40.2c0.1,0,0.1,0.1,0.1,0.2l-2.8,4.7c0,0,0,0.1,0,0.1
	c0,0.1,0.1,0.3,0.2,0.3l0.9,0.1c0.2,0,0.1,0.2,0.1,0.3L0,51.7c0,0,0,0.1,0,0.1c0,0.1,0.1,0.3,0.2,0.3H7v3.8h1.9v-3.8h6.8
	c0.1,0,0.2-0.1,0.2-0.3C15.9,51.8,15.9,51.8,15.9,51.7z"/>
<path class="st1" d="M46.7,47.4l-3.4-5.8c0-0.1-0.1-0.2,0.1-0.3l0.9-0.1c0.1,0,0.2-0.1,0.2-0.3c0,0,0-0.1,0-0.1l-2.8-4.7
	c-0.1-0.1,0-0.2,0.1-0.2l0.5-0.1c0.1,0,0.2-0.2,0.2-0.3c0,0,0-0.1,0-0.1l-2-3.4c0-0.1,0-0.2,0.1-0.2l0.3-0.1c0.1,0,0.2-0.2,0.1-0.3
	c0,0,0,0,0-0.1L39,28.1c0-0.1-0.1-0.1-0.2-0.1c-0.1,0-0.2,0-0.2,0.1l-1.9,3.3c0,0,0,0,0,0.1c0,0.1,0,0.3,0.1,0.3l0.3,0.1
	c0.1,0,0.1,0.1,0.1,0.2l-2,3.4c0,0,0,0.1,0,0.1c0,0.1,0.1,0.3,0.2,0.3l0.5,0.1c0.1,0,0.1,0.1,0.1,0.2l-2.8,4.7c0,0,0,0.1,0,0.1
	c0,0.1,0.1,0.3,0.2,0.3l0.9,0.1c0.2,0,0.1,0.2,0.1,0.3l-3.4,5.8c0,0,0,0.1,0,0.1c0,0.1,0.1,0.3,0.2,0.3h6.8v3.8h1.9v-3.8h6.8
	c0.1,0,0.2-0.1,0.2-0.3C46.7,47.5,46.7,47.4,46.7,47.4z"/>
<path class="st0" d="M57.5,51.7l-3.4-5.8c0-0.1-0.1-0.2,0.1-0.3l0.9-0.1c0.1,0,0.2-0.1,0.2-0.3c0,0,0-0.1,0-0.1l-2.8-4.7
	c-0.1-0.1,0-0.2,0.1-0.2l0.5-0.1c0.1,0,0.2-0.2,0.2-0.3c0,0,0-0.1,0-0.1l-2-3.4c0-0.1,0-0.2,0.1-0.2l0.3-0.1c0.1,0,0.2-0.2,0.1-0.3
	c0,0,0,0,0-0.1l-1.9-3.3c0-0.1-0.1-0.1-0.2-0.1s-0.2,0-0.2,0.1l-1.9,3.3c0,0,0,0,0,0.1c0,0.1,0,0.3,0.1,0.3l0.3,0.1
	c0.1,0,0.1,0.1,0.1,0.2l-2,3.4c0,0,0,0.1,0,0.1c0,0.1,0.1,0.3,0.2,0.3l0.5,0.1c0.1,0,0.1,0.1,0.1,0.2l-2.8,4.7c0,0,0,0.1,0,0.1
	c0,0.1,0.1,0.3,0.2,0.3l0.9,0.1c0.2,0,0.1,0.2,0.1,0.3l-3.4,5.8c0,0,0,0.1,0,0.1c0,0.1,0.1,0.3,0.2,0.3h6.8v3.8h1.9v-3.8h6.8
	c0.1,0,0.2-0.1,0.2-0.3C57.5,51.8,57.5,51.8,57.5,51.7z"/>
<path class="st2" d="M87.5,47.4l-3.4-5.8c0-0.1-0.1-0.2,0.1-0.3l0.9-0.1c0.1,0,0.2-0.1,0.2-0.3c0,0,0-0.1,0-0.1l-2.8-4.7
	c-0.1-0.1,0-0.2,0.1-0.2l0.5-0.1c0.1,0,0.2-0.2,0.2-0.3c0,0,0-0.1,0-0.1l-2-3.4c0-0.1,0-0.2,0.1-0.2l0.3-0.1c0.1,0,0.2-0.2,0.1-0.3
	c0,0,0,0,0-0.1l-1.9-3.3c0-0.1-0.1-0.1-0.2-0.1s-0.2,0-0.2,0.1l-1.9,3.3c0,0,0,0,0,0.1c0,0.1,0,0.3,0.1,0.3l0.3,0.1
	c0.1,0,0.1,0.1,0.1,0.2l-2,3.4c0,0,0,0.1,0,0.1c0,0.1,0.1,0.3,0.2,0.3l0.5,0.1c0.1,0,0.1,0.1,0.1,0.2l-2.8,4.7c0,0,0,0.1,0,0.1
	c0,0.1,0.1,0.3,0.2,0.3l0.9,0.1c0.2,0,0.1,0.2,0.1,0.3l-3.4,5.8c0,0,0,0.1,0,0.1c0,0.1,0.1,0.3,0.2,0.3h6.8v3.8h1.9v-3.8h6.8
	c0.1,0,0.2-0.1,0.2-0.3C87.5,47.5,87.5,47.4,87.5,47.4z"/>
<path class="st0" d="M93.4,51.7L90,45.9c0-0.1-0.1-0.2,0.1-0.3l0.9-0.1c0.1,0,0.2-0.1,0.2-0.3c0,0,0-0.1,0-0.1l-2.8-4.7
	c-0.1-0.1,0-0.2,0.1-0.2l0.5-0.1c0.1,0,0.2-0.2,0.2-0.3c0,0,0-0.1,0-0.1l-2-3.4c0-0.1,0-0.2,0.1-0.2l0.3-0.1c0.1,0,0.2-0.2,0.1-0.3
	c0,0,0,0,0-0.1l-1.9-3.3c0-0.1-0.1-0.1-0.2-0.1c-0.1,0-0.2,0-0.2,0.1l-1.9,3.3c0,0,0,0,0,0.1c0,0.1,0,0.3,0.1,0.3l0.3,0.1
	c0.1,0,0.1,0.1,0.1,0.2l-2,3.4c0,0,0,0.1,0,0.1c0,0.1,0.1,0.3,0.2,0.3l0.5,0.1c0.1,0,0.1,0.1,0.1,0.2l-2.8,4.7c0,0,0,0.1,0,0.1
	c0,0.1,0.1,0.3,0.2,0.3l0.9,0.1c0.2,0,0.1,0.2,0.1,0.3l-3.4,5.8c0,0,0,0.1,0,0.1c0,0.1,0.1,0.3,0.2,0.3h6.8v3.8h1.9v-3.8h6.8
	c0.1,0,0.2-0.1,0.2-0.3C93.5,51.8,93.5,51.8,93.4,51.7z"/>
<path class="st0" d="M35.6,47.4l-3.4-5.8c0-0.1-0.1-0.2,0.1-0.3l0.9-0.1c0.1,0,0.2-0.1,0.2-0.3c0,0,0-0.1,0-0.1l-2.8-4.7
	c-0.1-0.1,0-0.2,0.1-0.2l0.5-0.1c0.1,0,0.2-0.2,0.2-0.3c0,0,0-0.1,0-0.1l-2-3.4c0-0.1,0-0.2,0.1-0.2l0.3-0.1c0.1,0,0.2-0.2,0.1-0.3
	c0,0,0,0,0-0.1l-1.9-3.3c0-0.1-0.1-0.1-0.2-0.1c-0.1,0-0.2,0-0.2,0.1l-1.9,3.3c0,0,0,0,0,0.1c0,0.1,0,0.3,0.1,0.3l0.3,0.1
	c0.1,0,0.1,0.1,0.1,0.2l-2,3.4c0,0,0,0.1,0,0.1c0,0.1,0.1,0.3,0.2,0.3l0.5,0.1c0.1,0,0.1,0.1,0.1,0.2L22,40.9c0,0,0,0.1,0,0.1
	c0,0.1,0.1,0.3,0.2,0.3l0.9,0.1c0.2,0,0.1,0.2,0.1,0.3l-3.4,5.8c0,0,0,0.1,0,0.1c0,0.1,0.1,0.3,0.2,0.3h6.8v3.8h1.9v-3.8h6.8
	c0.1,0,0.2-0.1,0.2-0.3C35.6,47.5,35.6,47.4,35.6,47.4z"/>
</svg>
