<?xml version="1.0" encoding="utf-8"?>
<!-- Generator: Adobe Illustrator 19.2.1, SVG Export Plug-In . SVG Version: 6.00 Build 0)  -->
<svg version="1.1" id="Ebene_1" xmlns="http://www.w3.org/2000/svg" xmlns:xlink="http://www.w3.org/1999/xlink" x="0px" y="0px"
	 viewBox="0 0 32.4 27.4" style="enable-background:new 0 0 32.4 27.4;" xml:space="preserve">
<style type="text/css">
	.st0{fill:#CCC7C5;}
	.st1{fill:#DAD6D5;}
</style>
<path class="st0" d="M23.9,19.4l-3.4-5.8c0-0.1-0.1-0.2,0.1-0.3l0.9-0.1c0.1,0,0.2-0.1,0.2-0.3c0,0,0-0.1,0-0.1l-2.8-4.7
	c-0.1-0.1,0-0.2,0.1-0.2l0.5-0.1c0.1,0,0.2-0.2,0.2-0.3c0,0,0-0.1,0-0.1l-2-3.4c0-0.1,0-0.2,0.1-0.2l0.3-0.1c0.1,0,0.2-0.2,0.1-0.3
	c0,0,0,0,0-0.1l-1.9-3.3C16.1,0,16,0,15.9,0c-0.1,0-0.2,0-0.2,0.1l-1.9,3.3c0,0,0,0,0,0.1c0,0.1,0,0.3,0.1,0.3l0.3,0.1
	c0.1,0,0.1,0.1,0.1,0.2l-2,3.4c0,0,0,0.1,0,0.1c0,0.1,0.1,0.3,0.2,0.3L13,7.9c0.1,0,0.1,0.1,0.1,0.2l-2.8,4.7c0,0,0,0.1,0,0.1
	c0,0.1,0.1,0.3,0.2,0.3l0.9,0.1c0.2,0,0.1,0.2,0.1,0.3L8,19.4c0,0,0,0.1,0,0.1c0,0.1,0.1,0.3,0.2,0.3H15v3.8h1.9v-3.8h6.8
	c0.1,0,0.2-0.1,0.2-0.3C23.9,19.5,23.9,19.5,23.9,19.4z"/>
<title>small</title>
<path class="st1" d="M15.9,23.2l-3.4-5.8c0-0.1-0.1-0.2,0.1-0.3l0.9-0.1c0.1,0,0.2-0.1,0.2-0.3c0,0,0-0.1,0-0.1L10.9,12
	c-0.1-0.1,0-0.2,0.1-0.2l0.5-0.1c0.1,0,0.2-0.2,0.2-0.3c0,0,0-0.1,0-0.1l-2-3.4c0-0.1,0-0.2,0.1-0.2l0.3-0.1c0.1,0,0.2-0.2,0.1-0.3
	c0,0,0,0,0-0.1L8.2,3.9c0-0.1-0.1-0.1-0.2-0.1s-0.2,0-0.2,0.1L5.9,7.2c0,0,0,0,0,0.1c0,0.1,0,0.3,0.1,0.3l0.3,0.1
	c0.1,0,0.1,0.1,0.1,0.2l-2,3.4c0,0,0,0.1,0,0.1c0,0.1,0.1,0.3,0.2,0.3L5,11.8c0.1,0,0.1,0.1,0.1,0.2l-2.8,4.7c0,0,0,0.1,0,0.1
	c0,0.1,0.1,0.3,0.2,0.3l0.9,0.1c0.2,0,0.1,0.2,0.1,0.3L0,23.2c0,0,0,0.1,0,0.1c0,0.1,0.1,0.3,0.2,0.3H7v3.8h1.9v-3.8h6.8
	c0.1,0,0.2-0.1,0.2-0.3C15.9,23.3,15.9,23.3,15.9,23.2z"/>
<path class="st1" d="M32.4,21.1l-3.4-5.8c0-0.1-0.1-0.2,0.1-0.3l0.9-0.1c0.1,0,0.2-0.1,0.2-0.3c0,0,0-0.1,0-0.1l-2.8-4.7
	c-0.1-0.1,0-0.2,0.1-0.2l0.5-0.1c0.1,0,0.2-0.2,0.2-0.3c0,0,0-0.1,0-0.1l-2-3.4c0-0.1,0-0.2,0.1-0.2l0.3-0.1c0.1,0,0.2-0.2,0.1-0.3
	c0,0,0,0,0-0.1l-1.9-3.3c0-0.1-0.1-0.1-0.2-0.1c-0.1,0-0.2,0-0.2,0.1L22.4,5c0,0,0,0,0,0.1c0,0.1,0,0.3,0.1,0.3l0.3,0.1
	c0.1,0,0.1,0.1,0.1,0.2l-2,3.4c0,0,0,0.1,0,0.1c0,0.1,0.1,0.3,0.2,0.3l0.5,0.1c0.1,0,0.1,0.1,0.1,0.2l-2.8,4.7c0,0,0,0.1,0,0.1
	c0,0.1,0.1,0.3,0.2,0.3l0.9,0.1c0.2,0,0.1,0.2,0.1,0.3l-3.4,5.8c0,0,0,0.1,0,0.1c0,0.1,0.1,0.3,0.2,0.3h6.8v3.8h1.9v-3.8h6.8
	c0.1,0,0.2-0.1,0.2-0.3C32.4,21.1,32.4,21.1,32.4,21.1z"/>
</svg>
