<?xml version="1.0" encoding="utf-8"?>
<!-- Generator: Adobe Illustrator 19.2.1, SVG Export Plug-In . SVG Version: 6.00 Build 0)  -->
<svg version="1.1" id="Ebene_1" xmlns="http://www.w3.org/2000/svg" xmlns:xlink="http://www.w3.org/1999/xlink" x="0px" y="0px"
	 viewBox="0 0 32.4 27.4" style="enable-background:new 0 0 32.4 27.4;" xml:space="preserve">
<style type="text/css">
	.st0{fill:#DAD6D5;}
</style>
<title>small</title>
<path class="st0" d="M26.3,22.5l-3.9-6.7c0-0.1-0.1-0.2,0.1-0.3l1-0.1c0.1,0,0.2-0.1,0.2-0.3v-0.1l-3.3-5.3c-0.1-0.1,0-0.2,0.1-0.2
	l0.6-0.1c0.1,0,0.2-0.2,0.2-0.3V8.7l-2.3-3.9c0-0.1,0-0.2,0.1-0.2l0.3-0.1c0.1,0,0.2-0.2,0.1-0.3c0,0,0,0,0-0.1l-2.3-3.8
	C17.3,0,17.2,0,17.1,0c-0.1,0-0.2,0-0.2,0.1l-2.2,3.8c0,0,0,0,0,0.1c0,0.1,0,0.3,0.1,0.3l0.3,0.1c0.1,0,0.1,0.1,0.1,0.2l-2.3,3.9
	v0.1c0,0.1,0.1,0.3,0.2,0.3l0.5,0.1c0.1,0,0.1,0.1,0.1,0.2L10.5,15v0.1c0,0.1,0.1,0.3,0.2,0.3l1,0.1c0.2,0,0.1,0.2,0.1,0.3l-4.1,6.6
	v0.1C7.8,22.8,7.9,23,8,23h7.9v4.4h2.2V23H26c0.1,0,0.2-0.1,0.2-0.3C26.3,22.6,26.3,22.6,26.3,22.5z"/>
</svg>
